# https://github.com/mikedh/trimesh
v 0.00000000 0.20686634 0.40146700
v -0.00000000 0.20686634 0.33480033
v 0.00000000 0.20686634 -0.33480033
v 0.00000000 0.20686634 -0.40146700
v -0.00000000 -0.10833333 -0.50000000
v 0.00000000 -0.10833333 0.50000000
v -0.00000000 0.01519967 0.29313368
v 0.00000000 0.01519967 0.33480033
v 0.00000000 0.01519967 -0.33480033
v 0.00000000 0.01519967 -0.29313368
v 0.00000000 -0.01519967 0.29313368
v -0.00000000 -0.01519967 0.33480033
v 0.00000000 -0.01519967 -0.33480033
v 0.00000000 -0.01519967 -0.29313368
v 0.00000000 0.10833333 -0.50000000
v 0.00000000 0.10833333 0.50000000
v -0.00000000 -0.20686634 0.40146700
v 0.00000000 -0.20686634 0.33480033
v 0.00000000 -0.20686634 -0.33480033
v -0.00000000 -0.20686634 -0.40146700
v 0.28994560 0.20686634 -0.16740017
v 0.28994560 0.20686634 0.16740017
v 0.28994560 0.01519967 -0.16740017
v 0.28994560 0.01519967 0.16740017
v 0.28994560 -0.01519967 -0.16740017
v 0.28994560 -0.01519967 0.16740017
v 0.28994560 -0.20686634 -0.16740017
v 0.28994560 -0.20686634 0.16740017
v -0.28994560 0.20686634 -0.16740017
v -0.28994560 0.20686634 0.16740017
v -0.28994560 0.01519967 -0.16740017
v -0.28994560 0.01519967 0.16740017
v -0.28994560 -0.01519967 -0.16740017
v -0.28994560 -0.01519967 0.16740017
v -0.28994560 -0.20686634 -0.16740017
v -0.28994560 -0.20686634 0.16740017
v 0.12718593 0.01519967 -0.26410431
v 0.12718593 0.01519967 0.26410431
v 0.12718593 -0.01519967 -0.26410431
v 0.12718593 -0.01519967 0.26410431
v -0.30517247 0.20686634 -0.13769905
v -0.30517247 0.20686634 0.13769905
v -0.30517247 0.01519967 -0.13769905
v -0.30517247 0.01519967 0.13769905
v -0.30517247 -0.01519967 -0.13769905
v -0.30517247 -0.01519967 0.13769905
v -0.30517247 -0.20686634 -0.13769905
v -0.30517247 -0.20686634 0.13769905
v -0.26175743 0.20686634 -0.20874459
v -0.26175743 0.20686634 0.20874459
v -0.26175743 0.01519967 -0.20874459
v -0.26175743 0.01519967 0.20874459
v -0.26175743 -0.01519967 -0.20874459
v -0.26175743 -0.01519967 0.20874459
v -0.26175743 -0.20686634 -0.20874459
v -0.26175743 -0.20686634 0.20874459
v 0.27287042 0.01519967 0.10709375
v 0.27287042 0.01519967 -0.10709375
v 0.27287042 -0.01519967 0.10709375
v 0.27287042 -0.01519967 -0.10709375
v 0.17457668 0.20686634 -0.28568208
v 0.17457668 0.20686634 0.28568208
v 0.17457668 0.01519967 -0.28568208
v 0.17457668 0.01519967 0.28568208
v 0.17457668 -0.01519967 -0.28568208
v 0.17457668 -0.01519967 0.28568208
v 0.17457668 -0.20686634 -0.28568208
v 0.17457668 -0.20686634 0.28568208
v -0.02001148 0.20686634 0.40096793
v -0.02001148 0.20686634 -0.40096793
v -0.02001148 -0.20686634 0.40096793
v -0.02001148 -0.20686634 -0.40096793
v -0.39835131 0.20686634 -0.04991989
v -0.39835131 0.20686634 0.04991989
v -0.39835131 -0.20686634 -0.04991989
v -0.39835131 -0.20686634 0.04991989
v -0.23912698 -0.10833333 -0.43911079
v -0.23912698 -0.10833333 0.43911079
v -0.23912698 0.10833333 -0.43911079
v -0.23912698 0.10833333 0.43911079
v -0.17419000 0.20686634 -0.36170927
v -0.17419000 0.20686634 0.36170927
v -0.17419000 -0.20686634 -0.36170927
v -0.17419000 -0.20686634 0.36170927
v -0.30101240 0.20686634 -0.26564503
v -0.30101240 0.20686634 0.26564503
v -0.30101240 -0.20686634 -0.26564503
v -0.30101240 -0.20686634 0.26564503
v 0.07233290 0.01519967 -0.28406918
v 0.07233290 0.01519967 0.28406918
v 0.07233290 -0.01519967 -0.28406918
v 0.07233290 -0.01519967 0.28406918
v 0.13004810 0.20686634 -0.30851054
v 0.13004810 0.20686634 0.30851054
v 0.13004810 0.01519967 -0.30851054
v 0.13004810 0.01519967 0.30851054
v 0.13004810 -0.01519967 -0.30851054
v 0.13004810 -0.01519967 0.30851054
v 0.13004810 -0.20686634 -0.30851054
v 0.13004810 -0.20686634 0.30851054
v 0.08640266 0.01519967 0.28011054
v 0.08640266 0.01519967 -0.28011054
v 0.08640266 -0.01519967 0.28011054
v 0.08640266 -0.01519967 -0.28011054
v -0.04989940 0.20686634 -0.33106089
v -0.04989940 0.20686634 0.33106089
v -0.04989940 0.01519967 -0.33106089
v -0.04989940 0.01519967 0.33106089
v -0.04989940 -0.01519967 -0.33106089
v -0.04989940 -0.01519967 0.33106089
v -0.04989940 -0.20686634 -0.33106089
v -0.04989940 -0.20686634 0.33106089
v -0.31165683 0.20686634 -0.12231629
v -0.31165683 0.20686634 0.12231629
v -0.31165683 0.01519967 -0.12231629
v -0.31165683 0.01519967 0.12231629
v -0.31165683 -0.01519967 -0.12231629
v -0.31165683 -0.01519967 0.12231629
v -0.31165683 -0.20686634 -0.12231629
v -0.31165683 -0.20686634 0.12231629
v 0.02918669 0.01519967 0.29167703
v 0.02918669 0.01519967 -0.29167703
v 0.02918669 -0.01519967 0.29167703
v 0.02918669 -0.01519967 -0.29167703
v -0.21978611 0.01519967 -0.19396240
v -0.21978611 0.01519967 0.19396240
v -0.21978611 -0.01519967 -0.19396240
v -0.21978611 -0.01519967 0.19396240
v 0.23967245 0.20686634 0.23376992
v 0.23967245 0.20686634 -0.23376992
v 0.23967245 0.01519967 0.23376992
v 0.23967245 0.01519967 -0.23376992
v 0.23967245 -0.01519967 0.23376992
v 0.23967245 -0.01519967 -0.23376992
v 0.23967245 -0.20686634 0.23376992
v 0.23967245 -0.20686634 -0.23376992
v 0.20933902 0.20686634 -0.34256810
v 0.20933902 0.20686634 0.34256810
v 0.20933902 -0.20686634 -0.34256810
v 0.20933902 -0.20686634 0.34256810
v 0.47396368 -0.10833333 0.15924333
v 0.47396368 -0.10833333 -0.15924333
v 0.47396368 0.10833333 0.15924333
v 0.47396368 0.10833333 -0.15924333
v 0.26085138 0.01519967 -0.13373071
v 0.26085138 0.01519967 0.13373071
v 0.26085138 -0.01519967 -0.13373071
v 0.26085138 -0.01519967 0.13373071
v -0.22772206 0.20686634 -0.24542600
v -0.22772206 0.20686634 0.24542600
v -0.22772206 0.01519967 -0.24542600
v -0.22772206 0.01519967 0.24542600
v -0.22772206 -0.01519967 -0.24542600
v -0.22772206 -0.01519967 0.24542600
v -0.22772206 -0.20686634 -0.24542600
v -0.22772206 -0.20686634 0.24542600
v -0.21694188 -0.10833333 0.45048442
v -0.21694188 -0.10833333 -0.45048442
v -0.21694188 0.10833333 0.45048442
v -0.21694188 0.10833333 -0.45048442
v 0.44493589 -0.10833333 -0.22810532
v 0.44493589 -0.10833333 0.22810532
v 0.44493589 0.10833333 -0.22810532
v 0.44493589 0.10833333 0.22810532
v -0.14526442 0.20686634 -0.30164468
v -0.14526442 0.20686634 0.30164468
v -0.14526442 0.01519967 -0.30164468
v -0.14526442 0.01519967 0.30164468
v -0.14526442 -0.01519967 -0.30164468
v -0.14526442 -0.01519967 0.30164468
v -0.14526442 -0.20686634 -0.30164468
v -0.14526442 -0.20686634 0.30164468
v -0.01668842 0.20686634 -0.33438414
v -0.01668842 0.20686634 0.33438414
v -0.01668842 0.01519967 -0.33438414
v -0.01668842 0.01519967 0.33438414
v -0.01668842 -0.01519967 -0.33438414
v -0.01668842 -0.01519967 0.33438414
v -0.01668842 -0.20686634 -0.33438414
v -0.01668842 -0.20686634 0.33438414
v -0.25805801 0.20686634 0.30754155
v -0.25805801 0.20686634 -0.30754155
v -0.25805801 -0.20686634 0.30754155
v -0.25805801 -0.20686634 -0.30754155
v 0.15285021 0.01519967 0.25012830
v 0.15285021 0.01519967 -0.25012830
v 0.15285021 -0.01519967 0.25012830
v 0.15285021 -0.01519967 -0.25012830
v -0.22918113 0.01519967 -0.18276584
v -0.22918113 0.01519967 0.18276584
v -0.22918113 -0.01519967 -0.18276584
v -0.22918113 -0.01519967 0.18276584
v -0.07954913 0.20686634 -0.39350691
v -0.07954913 0.20686634 0.39350691
v -0.07954913 -0.20686634 -0.39350691
v -0.07954913 -0.20686634 0.39350691
v 0.36593953 0.20686634 0.16511819
v 0.36593953 0.20686634 -0.16511819
v 0.36593953 -0.20686634 0.16511819
v 0.36593953 -0.20686634 -0.16511819
v -0.11450846 0.20686634 0.31460941
v -0.11450846 0.20686634 -0.31460941
v -0.11450846 0.01519967 0.31460941
v -0.11450846 0.01519967 -0.31460941
v -0.11450846 -0.01519967 0.31460941
v -0.11450846 -0.01519967 -0.31460941
v -0.11450846 -0.20686634 0.31460941
v -0.11450846 -0.20686634 -0.31460941
v 0.10025762 0.01519967 -0.27545553
v 0.10025762 0.01519967 0.27545553
v 0.10025762 -0.01519967 -0.27545553
v 0.10025762 -0.01519967 0.27545553
v 0.04368931 0.01519967 0.28985959
v 0.04368931 0.01519967 -0.28985959
v 0.04368931 -0.01519967 0.28985959
v 0.04368931 -0.01519967 -0.28985959
v -0.11386331 0.01519967 -0.27011570
v -0.11386331 0.01519967 0.27011570
v -0.11386331 -0.01519967 -0.27011570
v -0.11386331 -0.01519967 0.27011570
v 0.29231399 0.01519967 -0.02190590
v 0.29231399 0.01519967 0.02190590
v 0.29231399 -0.01519967 -0.02190590
v 0.29231399 -0.01519967 0.02190590
v -0.38056153 0.20686634 0.12786187
v -0.38056153 0.20686634 -0.12786187
v -0.38056153 -0.20686634 0.12786187
v -0.38056153 -0.20686634 -0.12786187
v 0.16512807 0.01519967 -0.24219839
v 0.16512807 0.01519967 0.24219839
v 0.16512807 -0.01519967 -0.24219839
v 0.16512807 -0.01519967 0.24219839
v -0.04978392 -0.10833333 -0.49751538
v -0.04978392 -0.10833333 0.49751538
v -0.04978392 0.10833333 -0.49751538
v -0.04978392 0.10833333 0.49751538
v 0.39140138 0.20686634 0.08933481
v 0.39140138 0.20686634 -0.08933481
v 0.39140138 -0.20686634 0.08933481
v 0.39140138 -0.20686634 -0.08933481
v 0.19421738 -0.10833333 -0.46073812
v 0.19421738 -0.10833333 0.46073812
v 0.19421738 0.10833333 -0.46073812
v 0.19421738 0.10833333 0.46073812
v -0.17699540 0.01519967 -0.23366636
v -0.17699540 0.01519967 0.23366636
v -0.17699540 -0.01519967 -0.23366636
v -0.17699540 -0.01519967 0.23366636
v -0.06633939 0.20686634 0.32816207
v -0.06633939 0.20686634 -0.32816207
v -0.06633939 0.01519967 0.32816207
v -0.06633939 0.01519967 -0.32816207
v -0.06633939 -0.01519967 0.32816207
v -0.06633939 -0.01519967 -0.32816207
v -0.06633939 -0.20686634 0.32816207
v -0.06633939 -0.20686634 -0.32816207
v -0.07452113 -0.10833333 0.49441540
v -0.07452113 -0.10833333 -0.49441540
v -0.07452113 0.10833333 0.49441540
v -0.07452113 0.10833333 -0.49441540
v -0.17101008 -0.10833333 -0.46984631
v -0.17101008 -0.10833333 0.46984631
v -0.17101008 0.10833333 -0.46984631
v -0.17101008 0.10833333 0.46984631
v -0.26071760 -0.10833333 0.42664543
v -0.26071760 -0.10833333 -0.42664543
v -0.26071760 0.10833333 0.42664543
v -0.26071760 0.10833333 -0.42664543
v 0.31387952 0.20686634 -0.25031057
v 0.31387952 0.20686634 0.25031057
v 0.31387952 -0.20686634 -0.25031057
v 0.31387952 -0.20686634 0.25031057
v -0.12337869 -0.10833333 -0.48453864
v -0.12337869 -0.10833333 0.48453864
v -0.12337869 0.10833333 -0.48453864
v -0.12337869 0.10833333 0.48453864
v -0.49984458 -0.10833333 0.01246535
v -0.49984458 -0.10833333 -0.01246535
v -0.49984458 0.10833333 0.01246535
v -0.49984458 0.10833333 -0.01246535
v -0.05808330 0.01519967 -0.28732154
v -0.05808330 0.01519967 0.28732154
v -0.05808330 -0.01519967 -0.28732154
v -0.05808330 -0.01519967 0.28732154
v -0.18859975 0.20686634 -0.27662501
v -0.18859975 0.20686634 0.27662501
v -0.18859975 0.01519967 -0.27662501
v -0.18859975 0.01519967 0.27662501
v -0.18859975 -0.01519967 -0.27662501
v -0.18859975 -0.01519967 0.27662501
v -0.18859975 -0.20686634 -0.27662501
v -0.18859975 -0.20686634 0.27662501
v 0.23800637 0.01519967 -0.17111492
v 0.23800637 0.01519967 0.17111492
v 0.23800637 -0.01519967 -0.17111492
v 0.23800637 -0.01519967 0.17111492
v -0.27306691 0.20686634 0.29429612
v -0.27306691 0.20686634 -0.29429612
v -0.27306691 -0.20686634 0.29429612
v -0.27306691 -0.20686634 -0.29429612
v 0.34008637 -0.10833333 0.36652592
v 0.34008637 -0.10833333 -0.36652592
v 0.34008637 0.10833333 0.36652592
v 0.34008637 0.10833333 -0.36652592
v 0.09906495 0.20686634 -0.38905254
v 0.09906495 0.20686634 0.38905254
v 0.09906495 -0.20686634 -0.38905254
v 0.09906495 -0.20686634 0.38905254
v 0.31736639 0.20686634 0.10662944
v 0.31736639 0.20686634 -0.10662944
v 0.31736639 0.01519967 0.10662944
v 0.31736639 0.01519967 -0.10662944
v 0.31736639 -0.01519967 0.10662944
v 0.31736639 -0.01519967 -0.10662944
v 0.31736639 -0.20686634 0.10662944
v 0.31736639 -0.20686634 -0.10662944
v -0.28124097 0.20686634 -0.18164466
v -0.28124097 0.20686634 0.18164466
v -0.28124097 0.01519967 -0.18164466
v -0.28124097 0.01519967 0.18164466
v -0.28124097 -0.01519967 -0.18164466
v -0.28124097 -0.01519967 0.18164466
v -0.28124097 -0.20686634 -0.18164466
v -0.28124097 -0.20686634 0.18164466
v 0.19200319 0.20686634 0.35257700
v 0.19200319 0.20686634 -0.35257700
v 0.19200319 -0.20686634 0.35257700
v 0.19200319 -0.20686634 -0.35257700
v -0.28868032 0.01519967 -0.05090213
v -0.28868032 0.01519967 0.05090213
v -0.28868032 -0.01519967 -0.05090213
v -0.28868032 -0.01519967 0.05090213
v -0.27786943 0.01519967 0.09335916
v -0.27786943 0.01519967 -0.09335916
v -0.27786943 -0.01519967 0.09335916
v -0.27786943 -0.01519967 -0.09335916
v 0.49240386 -0.10833333 -0.08682409
v 0.49240386 -0.10833333 0.08682409
v 0.49240386 0.10833333 -0.08682409
v 0.49240386 0.10833333 0.08682409
v -0.29304254 0.01519967 -0.00730802
v -0.29304254 0.01519967 0.00730802
v -0.29304254 -0.01519967 -0.00730802
v -0.29304254 -0.01519967 0.00730802
v 0.05983555 0.20686634 0.39698297
v 0.05983555 0.20686634 -0.39698297
v 0.05983555 -0.20686634 0.39698297
v 0.05983555 -0.20686634 -0.39698297
v -0.34768060 0.20686634 -0.20073350
v -0.34768060 0.20686634 0.20073350
v -0.34768060 -0.20686634 -0.20073350
v -0.34768060 -0.20686634 0.20073350
v -0.35793340 -0.10833333 0.34911841
v -0.35793340 -0.10833333 -0.34911841
v -0.35793340 0.10833333 0.34911841
v -0.35793340 0.10833333 -0.34911841
v 0.08261446 0.20686634 0.32444739
v 0.08261446 0.20686634 -0.32444739
v 0.08261446 0.01519967 0.32444739
v 0.08261446 0.01519967 -0.32444739
v 0.08261446 -0.01519967 0.32444739
v 0.08261446 -0.01519967 -0.32444739
v 0.08261446 -0.20686634 0.32444739
v 0.08261446 -0.20686634 -0.32444739
v -0.33469626 0.20686634 0.00834680
v -0.33469626 0.20686634 -0.00834680
v -0.33469626 0.01519967 0.00834680
v -0.33469626 0.01519967 -0.00834680
v -0.33469626 -0.01519967 0.00834680
v -0.33469626 -0.01519967 -0.00834680
v -0.33469626 -0.20686634 0.00834680
v -0.33469626 -0.20686634 -0.00834680
v -0.49611962 -0.10833333 -0.06217185
v -0.49611962 -0.10833333 0.06217185
v -0.49611962 0.10833333 -0.06217185
v -0.49611962 0.10833333 0.06217185
v 0.46543688 -0.10833333 -0.18267052
v 0.46543688 -0.10833333 0.18267052
v 0.46543688 0.10833333 -0.18267052
v 0.46543688 0.10833333 0.18267052
v -0.16011959 0.20686634 0.29402888
v -0.16011959 0.20686634 -0.29402888
v -0.16011959 0.01519967 0.29402888
v -0.16011959 0.01519967 -0.29402888
v -0.16011959 -0.01519967 0.29402888
v -0.16011959 -0.01519967 -0.29402888
v -0.16011959 -0.20686634 0.29402888
v -0.16011959 -0.20686634 -0.29402888
v 0.26719305 0.01519967 -0.12056209
v 0.26719305 0.01519967 0.12056209
v 0.26719305 -0.01519967 -0.12056209
v 0.26719305 -0.01519967 0.12056209
v 0.40134221 0.20686634 -0.01000885
v 0.40134221 0.20686634 0.01000885
v 0.40134221 -0.20686634 -0.01000885
v 0.40134221 -0.20686634 0.01000885
v -0.29085872 0.01519967 0.03644933
v -0.29085872 0.01519967 -0.03644933
v -0.29085872 -0.01519967 0.03644933
v -0.29085872 -0.01519967 -0.03644933
v -0.33386415 0.20686634 0.02501966
v -0.33386415 0.20686634 -0.02501966
v -0.33386415 0.01519967 0.02501966
v -0.33386415 0.01519967 -0.02501966
v -0.33386415 -0.01519967 0.02501966
v -0.33386415 -0.01519967 -0.02501966
v -0.33386415 -0.20686634 0.02501966
v -0.33386415 -0.20686634 -0.02501966
v 0.32228690 0.20686634 -0.09067748
v 0.32228690 0.20686634 0.09067748
v 0.32228690 0.01519967 -0.09067748
v 0.32228690 0.01519967 0.09067748
v 0.32228690 -0.01519967 -0.09067748
v 0.32228690 -0.01519967 0.09067748
v 0.32228690 -0.20686634 -0.09067748
v 0.32228690 -0.20686634 0.09067748
v -0.29792938 0.20686634 -0.15273948
v -0.29792938 0.20686634 0.15273948
v -0.29792938 0.01519967 -0.15273948
v -0.29792938 0.01519967 0.15273948
v -0.29792938 -0.01519967 -0.15273948
v -0.29792938 -0.01519967 0.15273948
v -0.29792938 -0.20686634 -0.15273948
v -0.29792938 -0.20686634 0.15273948
v -0.38646185 0.20686634 0.10873351
v -0.38646185 0.20686634 -0.10873351
v -0.38646185 -0.20686634 0.10873351
v -0.38646185 -0.20686634 -0.10873351
v -0.40596902 -0.10833333 0.29187185
v -0.40596902 -0.10833333 -0.29187185
v -0.40596902 0.10833333 0.29187185
v -0.40596902 0.10833333 -0.29187185
v -0.21520549 0.20686634 0.25647193
v -0.21520549 0.20686634 -0.25647193
v -0.21520549 0.01519967 0.25647193
v -0.21520549 0.01519967 -0.25647193
v -0.21520549 -0.01519967 0.25647193
v -0.21520549 -0.01519967 -0.25647193
v -0.21520549 -0.20686634 0.25647193
v -0.21520549 -0.20686634 -0.25647193
v 0.49860188 -0.10833333 -0.03736505
v 0.49860188 -0.10833333 0.03736505
v 0.49860188 0.10833333 -0.03736505
v 0.49860188 0.10833333 0.03736505
v -0.37489060 -0.10833333 -0.33084291
v -0.37489060 -0.10833333 0.33084291
v -0.37489060 0.10833333 -0.33084291
v -0.37489060 0.10833333 0.33084291
v -0.13730979 0.20686634 0.37725556
v -0.13730979 0.20686634 -0.37725556
v -0.13730979 -0.20686634 0.37725556
v -0.13730979 -0.20686634 -0.37725556
v -0.14019234 0.01519967 0.25743631
v -0.14019234 0.01519967 -0.25743631
v -0.14019234 -0.01519967 0.25743631
v -0.14019234 -0.01519967 -0.25743631
v 0.14737758 -0.10833333 0.47778639
v 0.14737758 -0.10833333 -0.47778639
v 0.14737758 0.10833333 0.47778639
v 0.14737758 0.10833333 -0.47778639
v 0.20215392 0.20686634 0.26688021
v 0.20215392 0.20686634 -0.26688021
v 0.20215392 0.01519967 0.26688021
v 0.20215392 0.01519967 -0.26688021
v 0.20215392 -0.01519967 0.26688021
v 0.20215392 -0.01519967 -0.26688021
v 0.20215392 -0.20686634 0.26688021
v 0.20215392 -0.20686634 -0.26688021
v 0.27183712 0.20686634 -0.19543758
v 0.27183712 0.20686634 0.19543758
v 0.27183712 0.01519967 -0.19543758
v 0.27183712 0.01519967 0.19543758
v 0.27183712 -0.01519967 -0.19543758
v 0.27183712 -0.01519967 0.19543758
v 0.27183712 -0.20686634 -0.19543758
v 0.27183712 -0.20686634 0.19543758
v -0.03333535 0.20686634 -0.33313665
v -0.03333535 0.20686634 0.33313665
v -0.03333535 0.01519967 -0.33313665
v -0.03333535 0.01519967 0.33313665
v -0.03333535 -0.01519967 -0.33313665
v -0.03333535 -0.01519967 0.33313665
v -0.03333535 -0.20686634 -0.33313665
v -0.03333535 -0.20686634 0.33313665
v -0.01461151 0.01519967 -0.29276928
v -0.01461151 0.01519967 0.29276928
v -0.01461151 -0.01519967 -0.29276928
v -0.01461151 -0.01519967 0.29276928
v -0.28217757 0.01519967 -0.07939246
v -0.28217757 0.01519967 0.07939246
v -0.28217757 -0.01519967 -0.07939246
v -0.28217757 -0.01519967 0.07939246
v -0.18842268 0.01519967 0.22455342
v -0.18842268 0.01519967 -0.22455342
v -0.18842268 -0.01519967 0.22455342
v -0.18842268 -0.01519967 -0.22455342
v 0.11833447 0.20686634 -0.38363093
v 0.11833447 0.20686634 0.38363093
v 0.11833447 -0.20686634 -0.38363093
v 0.11833447 -0.20686634 0.38363093
v -0.48746392 -0.10833333 0.11126047
v -0.48746392 -0.10833333 -0.11126047
v -0.48746392 0.10833333 0.11126047
v -0.48746392 0.10833333 -0.11126047
v 0.19938153 0.01519967 0.21488218
v 0.19938153 0.01519967 -0.21488218
v 0.19938153 -0.01519967 0.21488218
v 0.19938153 -0.01519967 -0.21488218
v 0.32640618 0.20686634 -0.07450008
v 0.32640618 0.20686634 0.07450008
v 0.32640618 0.01519967 -0.07450008
v 0.32640618 0.01519967 0.07450008
v 0.32640618 -0.01519967 -0.07450008
v 0.32640618 -0.01519967 0.07450008
v 0.32640618 -0.20686634 -0.07450008
v 0.32640618 -0.20686634 0.07450008
v 0.35725418 0.20686634 0.18315352
v 0.35725418 0.20686634 -0.18315352
v 0.35725418 -0.20686634 0.18315352
v 0.35725418 -0.20686634 -0.18315352
v -0.32596630 0.20686634 0.23435383
v -0.32596630 0.20686634 -0.23435383
v -0.32596630 -0.20686634 0.23435383
v -0.32596630 -0.20686634 -0.23435383
v 0.33220202 0.20686634 -0.04163031
v 0.33220202 0.20686634 0.04163031
v 0.33220202 0.01519967 -0.04163031
v 0.33220202 0.01519967 0.04163031
v 0.33220202 -0.01519967 -0.04163031
v 0.33220202 -0.01519967 0.04163031
v 0.33220202 -0.20686634 -0.04163031
v 0.33220202 -0.20686634 0.04163031
v 0.25102699 0.20686634 0.22153263
v 0.25102699 0.20686634 -0.22153263
v 0.25102699 0.01519967 0.22153263
v 0.25102699 0.01519967 -0.22153263
v 0.25102699 -0.01519967 0.22153263
v 0.25102699 -0.01519967 -0.22153263
v 0.25102699 -0.20686634 0.22153263
v 0.25102699 -0.20686634 -0.22153263
v 0.09907307 -0.10833333 -0.49008623
v 0.09907307 -0.10833333 0.49008623
v 0.09907307 0.10833333 -0.49008623
v 0.09907307 0.10833333 0.49008623
v -0.43301269 -0.10833333 0.25000000
v -0.43301269 -0.10833333 -0.25000000
v -0.43301269 0.10833333 0.25000000
v -0.43301269 0.10833333 -0.25000000
v 0.28739691 0.20686634 -0.28031904
v 0.28739691 0.20686634 0.28031904
v 0.28739691 -0.20686634 -0.28031904
v 0.28739691 -0.20686634 0.28031904
v 0.33724269 0.20686634 -0.21781443
v 0.33724269 0.20686634 0.21781443
v 0.33724269 -0.20686634 -0.21781443
v 0.33724269 -0.20686634 0.21781443
v -0.42001298 -0.10833333 0.27127314
v -0.42001298 -0.10833333 -0.27127314
v -0.42001298 0.10833333 0.27127314
v -0.42001298 0.10833333 -0.27127314
v -0.20984466 0.01519967 -0.20467672
v -0.20984466 0.01519967 0.20467672
v -0.20984466 -0.01519967 -0.20467672
v -0.20984466 -0.01519967 0.20467672
v -0.22615442 0.20686634 0.33170760
v -0.22615442 0.20686634 -0.33170760
v -0.22615442 -0.20686634 0.33170760
v -0.22615442 -0.20686634 -0.33170760
v 0.28578418 0.01519967 -0.06522838
v 0.28578418 0.01519967 0.06522838
v 0.28578418 -0.01519967 -0.06522838
v 0.28578418 -0.01519967 0.06522838
v 0.28166002 -0.10833333 -0.41311941
v 0.28166002 -0.10833333 0.41311941
v 0.28166002 0.10833333 -0.41311941
v 0.28166002 0.10833333 0.41311941
v -0.48131213 -0.10833333 -0.13542023
v -0.48131213 -0.10833333 0.13542023
v -0.48131213 0.10833333 -0.13542023
v -0.48131213 0.10833333 0.13542023
v 0.24240755 0.20686634 -0.32002240
v 0.24240755 0.20686634 0.32002240
v 0.24240755 -0.20686634 -0.32002240
v 0.24240755 -0.20686634 0.32002240
v -0.30190220 -0.10833333 -0.39856625
v -0.30190220 -0.10833333 0.39856625
v -0.30190220 0.10833333 -0.39856625
v -0.30190220 0.10833333 0.39856625
v -0.39536780 0.20686634 0.06971401
v -0.39536780 0.20686634 -0.06971401
v -0.39536780 -0.20686634 0.06971401
v -0.39536780 -0.20686634 -0.06971401
v 0.24623989 0.01519967 0.15903857
v 0.24623989 0.01519967 -0.15903857
v 0.24623989 -0.01519967 0.15903857
v 0.24623989 -0.01519967 -0.15903857
v 0.37371510 0.20686634 -0.14667237
v 0.37371510 0.20686634 0.14667237
v 0.37371510 -0.20686634 -0.14667237
v 0.37371510 -0.20686634 0.14667237
v 0.32139382 -0.10833333 0.38302219
v 0.32139382 -0.10833333 -0.38302219
v 0.32139382 0.10833333 0.38302219
v 0.32139382 0.10833333 -0.38302219
v -0.25386122 0.01519967 -0.14656684
v -0.25386122 0.01519967 0.14656684
v -0.25386122 -0.01519967 -0.14656684
v -0.25386122 -0.01519967 0.14656684
v 0.39091575 -0.10833333 0.31174490
v 0.39091575 -0.10833333 -0.31174490
v 0.39091575 0.10833333 0.31174490
v 0.39091575 0.10833333 -0.31174490
v -0.03997320 0.20686634 -0.39947203
v -0.03997320 0.20686634 0.39947203
v -0.03997320 -0.20686634 -0.39947203
v -0.03997320 -0.20686634 0.39947203
v -0.40034440 0.20686634 0.03000167
v -0.40034440 0.20686634 -0.03000167
v -0.40034440 -0.20686634 0.03000167
v -0.40034440 -0.20686634 -0.03000167
v -0.15594375 0.20686634 -0.36994228
v -0.15594375 0.20686634 0.36994228
v -0.15594375 -0.20686634 -0.36994228
v -0.15594375 -0.20686634 0.36994228
v -0.02492294 -0.10833333 -0.49937847
v -0.02492294 -0.10833333 0.49937847
v -0.02492294 0.10833333 -0.49937847
v -0.02492294 0.10833333 0.49937847
v 0.45575291 -0.10833333 -0.20564355
v 0.45575291 -0.10833333 0.20564355
v 0.45575291 0.10833333 -0.20564355
v 0.45575291 0.10833333 0.20564355
v 0.09868413 0.20686634 0.31992608
v 0.09868413 0.20686634 -0.31992608
v 0.09868413 0.01519967 0.31992608
v 0.09868413 0.01519967 -0.31992608
v 0.09868413 -0.01519967 0.31992608
v 0.09868413 -0.01519967 -0.31992608
v 0.09868413 -0.20686634 0.31992608
v 0.09868413 -0.20686634 -0.31992608
v -0.32971394 0.20686634 -0.05813747
v -0.32971394 0.20686634 0.05813747
v -0.32971394 0.01519967 -0.05813747
v -0.32971394 0.01519967 0.05813747
v -0.32971394 -0.01519967 -0.05813747
v -0.32971394 -0.01519967 0.05813747
v -0.32971394 -0.20686634 -0.05813747
v -0.32971394 -0.20686634 0.05813747
v 0.32971394 0.20686634 -0.05813747
v 0.32971394 0.20686634 0.05813747
v 0.32971394 0.01519967 -0.05813747
v 0.32971394 0.01519967 0.05813747
v 0.32971394 -0.01519967 -0.05813747
v 0.32971394 -0.01519967 0.05813747
v 0.32971394 -0.20686634 -0.05813747
v 0.32971394 -0.20686634 0.05813747
v -0.09868413 0.20686634 0.31992608
v -0.09868413 0.20686634 -0.31992608
v -0.09868413 0.01519967 0.31992608
v -0.09868413 0.01519967 -0.31992608
v -0.09868413 -0.01519967 0.31992608
v -0.09868413 -0.01519967 -0.31992608
v -0.09868413 -0.20686634 0.31992608
v -0.09868413 -0.20686634 -0.31992608
v -0.45575291 -0.10833333 -0.20564355
v -0.45575291 -0.10833333 0.20564355
v -0.45575291 0.10833333 -0.20564355
v -0.45575291 0.10833333 0.20564355
v 0.02492294 -0.10833333 -0.49937847
v 0.02492294 -0.10833333 0.49937847
v 0.02492294 0.10833333 -0.49937847
v 0.02492294 0.10833333 0.49937847
v 0.15594375 0.20686634 -0.36994228
v 0.15594375 0.20686634 0.36994228
v 0.15594375 -0.20686634 -0.36994228
v 0.15594375 -0.20686634 0.36994228
v 0.40034440 0.20686634 0.03000167
v 0.40034440 0.20686634 -0.03000167
v 0.40034440 -0.20686634 0.03000167
v 0.40034440 -0.20686634 -0.03000167
v 0.03997320 0.20686634 -0.39947203
v 0.03997320 0.20686634 0.39947203
v 0.03997320 -0.20686634 -0.39947203
v 0.03997320 -0.20686634 0.39947203
v -0.39091575 -0.10833333 0.31174490
v -0.39091575 -0.10833333 -0.31174490
v -0.39091575 0.10833333 0.31174490
v -0.39091575 0.10833333 -0.31174490
v 0.25386122 0.01519967 -0.14656684
v 0.25386122 0.01519967 0.14656684
v 0.25386122 -0.01519967 -0.14656684
v 0.25386122 -0.01519967 0.14656684
v -0.32139382 -0.10833333 0.38302219
v -0.32139382 -0.10833333 -0.38302219
v -0.32139382 0.10833333 0.38302219
v -0.32139382 0.10833333 -0.38302219
v -0.37371510 0.20686634 -0.14667237
v -0.37371510 0.20686634 0.14667237
v -0.37371510 -0.20686634 -0.14667237
v -0.37371510 -0.20686634 0.14667237
v -0.24623989 0.01519967 0.15903857
v -0.24623989 0.01519967 -0.15903857
v -0.24623989 -0.01519967 0.15903857
v -0.24623989 -0.01519967 -0.15903857
v 0.39536780 0.20686634 0.06971401
v 0.39536780 0.20686634 -0.06971401
v 0.39536780 -0.20686634 0.06971401
v 0.39536780 -0.20686634 -0.06971401
v 0.30190220 -0.10833333 -0.39856625
v 0.30190220 -0.10833333 0.39856625
v 0.30190220 0.10833333 -0.39856625
v 0.30190220 0.10833333 0.39856625
v -0.24240755 0.20686634 -0.32002240
v -0.24240755 0.20686634 0.32002240
v -0.24240755 -0.20686634 -0.32002240
v -0.24240755 -0.20686634 0.32002240
v 0.48131213 -0.10833333 -0.13542023
v 0.48131213 -0.10833333 0.13542023
v 0.48131213 0.10833333 -0.13542023
v 0.48131213 0.10833333 0.13542023
v -0.28166002 -0.10833333 -0.41311941
v -0.28166002 -0.10833333 0.41311941
v -0.28166002 0.10833333 -0.41311941
v -0.28166002 0.10833333 0.41311941
v -0.28578418 0.01519967 -0.06522838
v -0.28578418 0.01519967 0.06522838
v -0.28578418 -0.01519967 -0.06522838
v -0.28578418 -0.01519967 0.06522838
v 0.22615442 0.20686634 0.33170760
v 0.22615442 0.20686634 -0.33170760
v 0.22615442 -0.20686634 0.33170760
v 0.22615442 -0.20686634 -0.33170760
v 0.20984466 0.01519967 -0.20467672
v 0.20984466 0.01519967 0.20467672
v 0.20984466 -0.01519967 -0.20467672
v 0.20984466 -0.01519967 0.20467672
v 0.42001298 -0.10833333 0.27127314
v 0.42001298 -0.10833333 -0.27127314
v 0.42001298 0.10833333 0.27127314
v 0.42001298 0.10833333 -0.27127314
v -0.33724269 0.20686634 -0.21781443
v -0.33724269 0.20686634 0.21781443
v -0.33724269 -0.20686634 -0.21781443
v -0.33724269 -0.20686634 0.21781443
v -0.28739691 0.20686634 -0.28031904
v -0.28739691 0.20686634 0.28031904
v -0.28739691 -0.20686634 -0.28031904
v -0.28739691 -0.20686634 0.28031904
v 0.43301269 -0.10833333 0.25000000
v 0.43301269 -0.10833333 -0.25000000
v 0.43301269 0.10833333 0.25000000
v 0.43301269 0.10833333 -0.25000000
v -0.09907307 -0.10833333 -0.49008623
v -0.09907307 -0.10833333 0.49008623
v -0.09907307 0.10833333 -0.49008623
v -0.09907307 0.10833333 0.49008623
v -0.25102699 0.20686634 0.22153263
v -0.25102699 0.20686634 -0.22153263
v -0.25102699 0.01519967 0.22153263
v -0.25102699 0.01519967 -0.22153263
v -0.25102699 -0.01519967 0.22153263
v -0.25102699 -0.01519967 -0.22153263
v -0.25102699 -0.20686634 0.22153263
v -0.25102699 -0.20686634 -0.22153263
v -0.33220202 0.20686634 -0.04163031
v -0.33220202 0.20686634 0.04163031
v -0.33220202 0.01519967 -0.04163031
v -0.33220202 0.01519967 0.04163031
v -0.33220202 -0.01519967 -0.04163031
v -0.33220202 -0.01519967 0.04163031
v -0.33220202 -0.20686634 -0.04163031
v -0.33220202 -0.20686634 0.04163031
v 0.32596630 0.20686634 0.23435383
v 0.32596630 0.20686634 -0.23435383
v 0.32596630 -0.20686634 0.23435383
v 0.32596630 -0.20686634 -0.23435383
v -0.35725418 0.20686634 0.18315352
v -0.35725418 0.20686634 -0.18315352
v -0.35725418 -0.20686634 0.18315352
v -0.35725418 -0.20686634 -0.18315352
v -0.32640618 0.20686634 -0.07450008
v -0.32640618 0.20686634 0.07450008
v -0.32640618 0.01519967 -0.07450008
v -0.32640618 0.01519967 0.07450008
v -0.32640618 -0.01519967 -0.07450008
v -0.32640618 -0.01519967 0.07450008
v -0.32640618 -0.20686634 -0.07450008
v -0.32640618 -0.20686634 0.07450008
v -0.19938153 0.01519967 0.21488218
v -0.19938153 0.01519967 -0.21488218
v -0.19938153 -0.01519967 0.21488218
v -0.19938153 -0.01519967 -0.21488218
v 0.48746392 -0.10833333 0.11126047
v 0.48746392 -0.10833333 -0.11126047
v 0.48746392 0.10833333 0.11126047
v 0.48746392 0.10833333 -0.11126047
v -0.11833447 0.20686634 -0.38363093
v -0.11833447 0.20686634 0.38363093
v -0.11833447 -0.20686634 -0.38363093
v -0.11833447 -0.20686634 0.38363093
v 0.18842268 0.01519967 0.22455342
v 0.18842268 0.01519967 -0.22455342
v 0.18842268 -0.01519967 0.22455342
v 0.18842268 -0.01519967 -0.22455342
v 0.28217757 0.01519967 -0.07939246
v 0.28217757 0.01519967 0.07939246
v 0.28217757 -0.01519967 -0.07939246
v 0.28217757 -0.01519967 0.07939246
v 0.01461151 0.01519967 -0.29276928
v 0.01461151 0.01519967 0.29276928
v 0.01461151 -0.01519967 -0.29276928
v 0.01461151 -0.01519967 0.29276928
v 0.03333535 0.20686634 -0.33313665
v 0.03333535 0.20686634 0.33313665
v 0.03333535 0.01519967 -0.33313665
v 0.03333535 0.01519967 0.33313665
v 0.03333535 -0.01519967 -0.33313665
v 0.03333535 -0.01519967 0.33313665
v 0.03333535 -0.20686634 -0.33313665
v 0.03333535 -0.20686634 0.33313665
v -0.27183712 0.20686634 -0.19543758
v -0.27183712 0.20686634 0.19543758
v -0.27183712 0.01519967 -0.19543758
v -0.27183712 0.01519967 0.19543758
v -0.27183712 -0.01519967 -0.19543758
v -0.27183712 -0.01519967 0.19543758
v -0.27183712 -0.20686634 -0.19543758
v -0.27183712 -0.20686634 0.19543758
v -0.20215392 0.20686634 0.26688021
v -0.20215392 0.20686634 -0.26688021
v -0.20215392 0.01519967 0.26688021
v -0.20215392 0.01519967 -0.26688021
v -0.20215392 -0.01519967 0.26688021
v -0.20215392 -0.01519967 -0.26688021
v -0.20215392 -0.20686634 0.26688021
v -0.20215392 -0.20686634 -0.26688021
v -0.14737758 -0.10833333 0.47778639
v -0.14737758 -0.10833333 -0.47778639
v -0.14737758 0.10833333 0.47778639
v -0.14737758 0.10833333 -0.47778639
v 0.14019234 0.01519967 0.25743631
v 0.14019234 0.01519967 -0.25743631
v 0.14019234 -0.01519967 0.25743631
v 0.14019234 -0.01519967 -0.25743631
v 0.13730979 0.20686634 0.37725556
v 0.13730979 0.20686634 -0.37725556
v 0.13730979 -0.20686634 0.37725556
v 0.13730979 -0.20686634 -0.37725556
v 0.37489060 -0.10833333 -0.33084291
v 0.37489060 -0.10833333 0.33084291
v 0.37489060 0.10833333 -0.33084291
v 0.37489060 0.10833333 0.33084291
v -0.49860188 -0.10833333 -0.03736505
v -0.49860188 -0.10833333 0.03736505
v -0.49860188 0.10833333 -0.03736505
v -0.49860188 0.10833333 0.03736505
v 0.21520549 0.20686634 0.25647193
v 0.21520549 0.20686634 -0.25647193
v 0.21520549 0.01519967 0.25647193
v 0.21520549 0.01519967 -0.25647193
v 0.21520549 -0.01519967 0.25647193
v 0.21520549 -0.01519967 -0.25647193
v 0.21520549 -0.20686634 0.25647193
v 0.21520549 -0.20686634 -0.25647193
v 0.40596902 -0.10833333 0.29187185
v 0.40596902 -0.10833333 -0.29187185
v 0.40596902 0.10833333 0.29187185
v 0.40596902 0.10833333 -0.29187185
v 0.38646185 0.20686634 0.10873351
v 0.38646185 0.20686634 -0.10873351
v 0.38646185 -0.20686634 0.10873351
v 0.38646185 -0.20686634 -0.10873351
v 0.29792938 0.20686634 -0.15273948
v 0.29792938 0.20686634 0.15273948
v 0.29792938 0.01519967 -0.15273948
v 0.29792938 0.01519967 0.15273948
v 0.29792938 -0.01519967 -0.15273948
v 0.29792938 -0.01519967 0.15273948
v 0.29792938 -0.20686634 -0.15273948
v 0.29792938 -0.20686634 0.15273948
v -0.32228690 0.20686634 -0.09067748
v -0.32228690 0.20686634 0.09067748
v -0.32228690 0.01519967 -0.09067748
v -0.32228690 0.01519967 0.09067748
v -0.32228690 -0.01519967 -0.09067748
v -0.32228690 -0.01519967 0.09067748
v -0.32228690 -0.20686634 -0.09067748
v -0.32228690 -0.20686634 0.09067748
v 0.33386415 0.20686634 0.02501966
v 0.33386415 0.20686634 -0.02501966
v 0.33386415 0.01519967 0.02501966
v 0.33386415 0.01519967 -0.02501966
v 0.33386415 -0.01519967 0.02501966
v 0.33386415 -0.01519967 -0.02501966
v 0.33386415 -0.20686634 0.02501966
v 0.33386415 -0.20686634 -0.02501966
v 0.29085872 0.01519967 0.03644933
v 0.29085872 0.01519967 -0.03644933
v 0.29085872 -0.01519967 0.03644933
v 0.29085872 -0.01519967 -0.03644933
v -0.40134221 0.20686634 -0.01000885
v -0.40134221 0.20686634 0.01000885
v -0.40134221 -0.20686634 -0.01000885
v -0.40134221 -0.20686634 0.01000885
v -0.26719305 0.01519967 -0.12056209
v -0.26719305 0.01519967 0.12056209
v -0.26719305 -0.01519967 -0.12056209
v -0.26719305 -0.01519967 0.12056209
v 0.16011959 0.20686634 0.29402888
v 0.16011959 0.20686634 -0.29402888
v 0.16011959 0.01519967 0.29402888
v 0.16011959 0.01519967 -0.29402888
v 0.16011959 -0.01519967 0.29402888
v 0.16011959 -0.01519967 -0.29402888
v 0.16011959 -0.20686634 0.29402888
v 0.16011959 -0.20686634 -0.29402888
v -0.46543688 -0.10833333 -0.18267052
v -0.46543688 -0.10833333 0.18267052
v -0.46543688 0.10833333 -0.18267052
v -0.46543688 0.10833333 0.18267052
v 0.49611962 -0.10833333 -0.06217185
v 0.49611962 -0.10833333 0.06217185
v 0.49611962 0.10833333 -0.06217185
v 0.49611962 0.10833333 0.06217185
v 0.33469626 0.20686634 0.00834680
v 0.33469626 0.20686634 -0.00834680
v 0.33469626 0.01519967 0.00834680
v 0.33469626 0.01519967 -0.00834680
v 0.33469626 -0.01519967 0.00834680
v 0.33469626 -0.01519967 -0.00834680
v 0.33469626 -0.20686634 0.00834680
v 0.33469626 -0.20686634 -0.00834680
v -0.08261446 0.20686634 0.32444739
v -0.08261446 0.20686634 -0.32444739
v -0.08261446 0.01519967 0.32444739
v -0.08261446 0.01519967 -0.32444739
v -0.08261446 -0.01519967 0.32444739
v -0.08261446 -0.01519967 -0.32444739
v -0.08261446 -0.20686634 0.32444739
v -0.08261446 -0.20686634 -0.32444739
v 0.35793340 -0.10833333 0.34911841
v 0.35793340 -0.10833333 -0.34911841
v 0.35793340 0.10833333 0.34911841
v 0.35793340 0.10833333 -0.34911841
v 0.34768060 0.20686634 -0.20073350
v 0.34768060 0.20686634 0.20073350
v 0.34768060 -0.20686634 -0.20073350
v 0.34768060 -0.20686634 0.20073350
v -0.05983555 0.20686634 0.39698297
v -0.05983555 0.20686634 -0.39698297
v -0.05983555 -0.20686634 0.39698297
v -0.05983555 -0.20686634 -0.39698297
v 0.29304254 0.01519967 -0.00730802
v 0.29304254 0.01519967 0.00730802
v 0.29304254 -0.01519967 -0.00730802
v 0.29304254 -0.01519967 0.00730802
v -0.49240386 -0.10833333 -0.08682409
v -0.49240386 -0.10833333 0.08682409
v -0.49240386 0.10833333 -0.08682409
v -0.49240386 0.10833333 0.08682409
v 0.27786943 0.01519967 0.09335916
v 0.27786943 0.01519967 -0.09335916
v 0.27786943 -0.01519967 0.09335916
v 0.27786943 -0.01519967 -0.09335916
v 0.28868032 0.01519967 -0.05090213
v 0.28868032 0.01519967 0.05090213
v 0.28868032 -0.01519967 -0.05090213
v 0.28868032 -0.01519967 0.05090213
v -0.19200319 0.20686634 0.35257700
v -0.19200319 0.20686634 -0.35257700
v -0.19200319 -0.20686634 0.35257700
v -0.19200319 -0.20686634 -0.35257700
v 0.28124097 0.20686634 -0.18164466
v 0.28124097 0.20686634 0.18164466
v 0.28124097 0.01519967 -0.18164466
v 0.28124097 0.01519967 0.18164466
v 0.28124097 -0.01519967 -0.18164466
v 0.28124097 -0.01519967 0.18164466
v 0.28124097 -0.20686634 -0.18164466
v 0.28124097 -0.20686634 0.18164466
v -0.31736639 0.20686634 0.10662944
v -0.31736639 0.20686634 -0.10662944
v -0.31736639 0.01519967 0.10662944
v -0.31736639 0.01519967 -0.10662944
v -0.31736639 -0.01519967 0.10662944
v -0.31736639 -0.01519967 -0.10662944
v -0.31736639 -0.20686634 0.10662944
v -0.31736639 -0.20686634 -0.10662944
v -0.09906495 0.20686634 -0.38905254
v -0.09906495 0.20686634 0.38905254
v -0.09906495 -0.20686634 -0.38905254
v -0.09906495 -0.20686634 0.38905254
v -0.34008637 -0.10833333 0.36652592
v -0.34008637 -0.10833333 -0.36652592
v -0.34008637 0.10833333 0.36652592
v -0.34008637 0.10833333 -0.36652592
v 0.27306691 0.20686634 0.29429612
v 0.27306691 0.20686634 -0.29429612
v 0.27306691 -0.20686634 0.29429612
v 0.27306691 -0.20686634 -0.29429612
v -0.23800637 0.01519967 -0.17111492
v -0.23800637 0.01519967 0.17111492
v -0.23800637 -0.01519967 -0.17111492
v -0.23800637 -0.01519967 0.17111492
v 0.18859975 0.20686634 -0.27662501
v 0.18859975 0.20686634 0.27662501
v 0.18859975 0.01519967 -0.27662501
v 0.18859975 0.01519967 0.27662501
v 0.18859975 -0.01519967 -0.27662501
v 0.18859975 -0.01519967 0.27662501
v 0.18859975 -0.20686634 -0.27662501
v 0.18859975 -0.20686634 0.27662501
v 0.05808330 0.01519967 -0.28732154
v 0.05808330 0.01519967 0.28732154
v 0.05808330 -0.01519967 -0.28732154
v 0.05808330 -0.01519967 0.28732154
v 0.49984458 -0.10833333 0.01246535
v 0.49984458 -0.10833333 -0.01246535
v 0.49984458 0.10833333 0.01246535
v 0.49984458 0.10833333 -0.01246535
v 0.12337869 -0.10833333 -0.48453864
v 0.12337869 -0.10833333 0.48453864
v 0.12337869 0.10833333 -0.48453864
v 0.12337869 0.10833333 0.48453864
v -0.31387952 0.20686634 -0.25031057
v -0.31387952 0.20686634 0.25031057
v -0.31387952 -0.20686634 -0.25031057
v -0.31387952 -0.20686634 0.25031057
v 0.26071760 -0.10833333 0.42664543
v 0.26071760 -0.10833333 -0.42664543
v 0.26071760 0.10833333 0.42664543
v 0.26071760 0.10833333 -0.42664543
v 0.17101008 -0.10833333 -0.46984631
v 0.17101008 -0.10833333 0.46984631
v 0.17101008 0.10833333 -0.46984631
v 0.17101008 0.10833333 0.46984631
v 0.07452113 -0.10833333 0.49441540
v 0.07452113 -0.10833333 -0.49441540
v 0.07452113 0.10833333 0.49441540
v 0.07452113 0.10833333 -0.49441540
v 0.06633939 0.20686634 0.32816207
v 0.06633939 0.20686634 -0.32816207
v 0.06633939 0.01519967 0.32816207
v 0.06633939 0.01519967 -0.32816207
v 0.06633939 -0.01519967 0.32816207
v 0.06633939 -0.01519967 -0.32816207
v 0.06633939 -0.20686634 0.32816207
v 0.06633939 -0.20686634 -0.32816207
v 0.17699540 0.01519967 -0.23366636
v 0.17699540 0.01519967 0.23366636
v 0.17699540 -0.01519967 -0.23366636
v 0.17699540 -0.01519967 0.23366636
v -0.19421738 -0.10833333 -0.46073812
v -0.19421738 -0.10833333 0.46073812
v -0.19421738 0.10833333 -0.46073812
v -0.19421738 0.10833333 0.46073812
v -0.39140138 0.20686634 0.08933481
v -0.39140138 0.20686634 -0.08933481
v -0.39140138 -0.20686634 0.08933481
v -0.39140138 -0.20686634 -0.08933481
v 0.04978392 -0.10833333 -0.49751538
v 0.04978392 -0.10833333 0.49751538
v 0.04978392 0.10833333 -0.49751538
v 0.04978392 0.10833333 0.49751538
v -0.16512807 0.01519967 -0.24219839
v -0.16512807 0.01519967 0.24219839
v -0.16512807 -0.01519967 -0.24219839
v -0.16512807 -0.01519967 0.24219839
v 0.38056153 0.20686634 0.12786187
v 0.38056153 0.20686634 -0.12786187
v 0.38056153 -0.20686634 0.12786187
v 0.38056153 -0.20686634 -0.12786187
v -0.29231399 0.01519967 -0.02190590
v -0.29231399 0.01519967 0.02190590
v -0.29231399 -0.01519967 -0.02190590
v -0.29231399 -0.01519967 0.02190590
v 0.11386331 0.01519967 -0.27011570
v 0.11386331 0.01519967 0.27011570
v 0.11386331 -0.01519967 -0.27011570
v 0.11386331 -0.01519967 0.27011570
v -0.04368931 0.01519967 0.28985959
v -0.04368931 0.01519967 -0.28985959
v -0.04368931 -0.01519967 0.28985959
v -0.04368931 -0.01519967 -0.28985959
v -0.10025762 0.01519967 -0.27545553
v -0.10025762 0.01519967 0.27545553
v -0.10025762 -0.01519967 -0.27545553
v -0.10025762 -0.01519967 0.27545553
v 0.11450846 0.20686634 0.31460941
v 0.11450846 0.20686634 -0.31460941
v 0.11450846 0.01519967 0.31460941
v 0.11450846 0.01519967 -0.31460941
v 0.11450846 -0.01519967 0.31460941
v 0.11450846 -0.01519967 -0.31460941
v 0.11450846 -0.20686634 0.31460941
v 0.11450846 -0.20686634 -0.31460941
v -0.36593953 0.20686634 0.16511819
v -0.36593953 0.20686634 -0.16511819
v -0.36593953 -0.20686634 0.16511819
v -0.36593953 -0.20686634 -0.16511819
v 0.07954913 0.20686634 -0.39350691
v 0.07954913 0.20686634 0.39350691
v 0.07954913 -0.20686634 -0.39350691
v 0.07954913 -0.20686634 0.39350691
v 0.22918113 0.01519967 -0.18276584
v 0.22918113 0.01519967 0.18276584
v 0.22918113 -0.01519967 -0.18276584
v 0.22918113 -0.01519967 0.18276584
v -0.15285021 0.01519967 0.25012830
v -0.15285021 0.01519967 -0.25012830
v -0.15285021 -0.01519967 0.25012830
v -0.15285021 -0.01519967 -0.25012830
v 0.25805801 0.20686634 0.30754155
v 0.25805801 0.20686634 -0.30754155
v 0.25805801 -0.20686634 0.30754155
v 0.25805801 -0.20686634 -0.30754155
v 0.01668842 0.20686634 -0.33438414
v 0.01668842 0.20686634 0.33438414
v 0.01668842 0.01519967 -0.33438414
v 0.01668842 0.01519967 0.33438414
v 0.01668842 -0.01519967 -0.33438414
v 0.01668842 -0.01519967 0.33438414
v 0.01668842 -0.20686634 -0.33438414
v 0.01668842 -0.20686634 0.33438414
v 0.14526442 0.20686634 -0.30164468
v 0.14526442 0.20686634 0.30164468
v 0.14526442 0.01519967 -0.30164468
v 0.14526442 0.01519967 0.30164468
v 0.14526442 -0.01519967 -0.30164468
v 0.14526442 -0.01519967 0.30164468
v 0.14526442 -0.20686634 -0.30164468
v 0.14526442 -0.20686634 0.30164468
v -0.44493589 -0.10833333 -0.22810532
v -0.44493589 -0.10833333 0.22810532
v -0.44493589 0.10833333 -0.22810532
v -0.44493589 0.10833333 0.22810532
v 0.21694188 -0.10833333 0.45048442
v 0.21694188 -0.10833333 -0.45048442
v 0.21694188 0.10833333 0.45048442
v 0.21694188 0.10833333 -0.45048442
v 0.22772206 0.20686634 -0.24542600
v 0.22772206 0.20686634 0.24542600
v 0.22772206 0.01519967 -0.24542600
v 0.22772206 0.01519967 0.24542600
v 0.22772206 -0.01519967 -0.24542600
v 0.22772206 -0.01519967 0.24542600
v 0.22772206 -0.20686634 -0.24542600
v 0.22772206 -0.20686634 0.24542600
v -0.26085138 0.01519967 -0.13373071
v -0.26085138 0.01519967 0.13373071
v -0.26085138 -0.01519967 -0.13373071
v -0.26085138 -0.01519967 0.13373071
v -0.47396368 -0.10833333 0.15924333
v -0.47396368 -0.10833333 -0.15924333
v -0.47396368 0.10833333 0.15924333
v -0.47396368 0.10833333 -0.15924333
v -0.20933902 0.20686634 -0.34256810
v -0.20933902 0.20686634 0.34256810
v -0.20933902 -0.20686634 -0.34256810
v -0.20933902 -0.20686634 0.34256810
v -0.23967245 0.20686634 0.23376992
v -0.23967245 0.20686634 -0.23376992
v -0.23967245 0.01519967 0.23376992
v -0.23967245 0.01519967 -0.23376992
v -0.23967245 -0.01519967 0.23376992
v -0.23967245 -0.01519967 -0.23376992
v -0.23967245 -0.20686634 0.23376992
v -0.23967245 -0.20686634 -0.23376992
v 0.21978611 0.01519967 -0.19396240
v 0.21978611 0.01519967 0.19396240
v 0.21978611 -0.01519967 -0.19396240
v 0.21978611 -0.01519967 0.19396240
v -0.02918669 0.01519967 0.29167703
v -0.02918669 0.01519967 -0.29167703
v -0.02918669 -0.01519967 0.29167703
v -0.02918669 -0.01519967 -0.29167703
v 0.31165683 0.20686634 -0.12231629
v 0.31165683 0.20686634 0.12231629
v 0.31165683 0.01519967 -0.12231629
v 0.31165683 0.01519967 0.12231629
v 0.31165683 -0.01519967 -0.12231629
v 0.31165683 -0.01519967 0.12231629
v 0.31165683 -0.20686634 -0.12231629
v 0.31165683 -0.20686634 0.12231629
v 0.04989940 0.20686634 -0.33106089
v 0.04989940 0.20686634 0.33106089
v 0.04989940 0.01519967 -0.33106089
v 0.04989940 0.01519967 0.33106089
v 0.04989940 -0.01519967 -0.33106089
v 0.04989940 -0.01519967 0.33106089
v 0.04989940 -0.20686634 -0.33106089
v 0.04989940 -0.20686634 0.33106089
v -0.08640266 0.01519967 0.28011054
v -0.08640266 0.01519967 -0.28011054
v -0.08640266 -0.01519967 0.28011054
v -0.08640266 -0.01519967 -0.28011054
v -0.13004810 0.20686634 -0.30851054
v -0.13004810 0.20686634 0.30851054
v -0.13004810 0.01519967 -0.30851054
v -0.13004810 0.01519967 0.30851054
v -0.13004810 -0.01519967 -0.30851054
v -0.13004810 -0.01519967 0.30851054
v -0.13004810 -0.20686634 -0.30851054
v -0.13004810 -0.20686634 0.30851054
v -0.07233290 0.01519967 -0.28406918
v -0.07233290 0.01519967 0.28406918
v -0.07233290 -0.01519967 -0.28406918
v -0.07233290 -0.01519967 0.28406918
v 0.30101240 0.20686634 -0.26564503
v 0.30101240 0.20686634 0.26564503
v 0.30101240 -0.20686634 -0.26564503
v 0.30101240 -0.20686634 0.26564503
v 0.17419000 0.20686634 -0.36170927
v 0.17419000 0.20686634 0.36170927
v 0.17419000 -0.20686634 -0.36170927
v 0.17419000 -0.20686634 0.36170927
v 0.23912698 -0.10833333 -0.43911079
v 0.23912698 -0.10833333 0.43911079
v 0.23912698 0.10833333 -0.43911079
v 0.23912698 0.10833333 0.43911079
v 0.39835131 0.20686634 -0.04991989
v 0.39835131 0.20686634 0.04991989
v 0.39835131 -0.20686634 -0.04991989
v 0.39835131 -0.20686634 0.04991989
v 0.02001148 0.20686634 0.40096793
v 0.02001148 0.20686634 -0.40096793
v 0.02001148 -0.20686634 0.40096793
v 0.02001148 -0.20686634 -0.40096793
v -0.17457668 0.20686634 -0.28568208
v -0.17457668 0.20686634 0.28568208
v -0.17457668 0.01519967 -0.28568208
v -0.17457668 0.01519967 0.28568208
v -0.17457668 -0.01519967 -0.28568208
v -0.17457668 -0.01519967 0.28568208
v -0.17457668 -0.20686634 -0.28568208
v -0.17457668 -0.20686634 0.28568208
v -0.27287042 0.01519967 0.10709375
v -0.27287042 0.01519967 -0.10709375
v -0.27287042 -0.01519967 0.10709375
v -0.27287042 -0.01519967 -0.10709375
v 0.26175743 0.20686634 -0.20874459
v 0.26175743 0.20686634 0.20874459
v 0.26175743 0.01519967 -0.20874459
v 0.26175743 0.01519967 0.20874459
v 0.26175743 -0.01519967 -0.20874459
v 0.26175743 -0.01519967 0.20874459
v 0.26175743 -0.20686634 -0.20874459
v 0.26175743 -0.20686634 0.20874459
v 0.30517247 0.20686634 -0.13769905
v 0.30517247 0.20686634 0.13769905
v 0.30517247 0.01519967 -0.13769905
v 0.30517247 0.01519967 0.13769905
v 0.30517247 -0.01519967 -0.13769905
v 0.30517247 -0.01519967 0.13769905
v 0.30517247 -0.20686634 -0.13769905
v 0.30517247 -0.20686634 0.13769905
v -0.12718593 0.01519967 -0.26410431
v -0.12718593 0.01519967 0.26410431
v -0.12718593 -0.01519967 -0.26410431
v -0.12718593 -0.01519967 0.26410431
f 10 9 485
f 486 7 11
f 14 10 487
f 10 485 487
f 11 12 488
f 488 486 11
f 1017 1018 1019
f 1019 1018 1020
f 649 509 511
f 512 510 652
f 510 650 652
f 651 649 511
f 653 513 515
f 516 514 656
f 514 654 656
f 655 653 515
f 149 1162 1164
f 151 149 1164
f 1163 1161 152
f 1161 150 152
f 153 1166 1168
f 155 153 1168
f 1167 1165 156
f 1165 154 156
f 90 101 103
f 92 90 103
f 104 102 91
f 102 89 91
f 1214 325 909
f 1215 328 916
f 57 961 963
f 59 57 963
f 964 962 60
f 962 58 60
f 102 636 89
f 103 637 92
f 686 524 430
f 429 685 431
f 688 430 432
f 686 430 688
f 687 521 431
f 431 685 687
f 158 77 160
f 160 77 79
f 80 157 159
f 78 157 80
f 105 950 250
f 105 250 252
f 107 105 252
f 251 249 108
f 249 106 108
f 109 254 256
f 111 109 256
f 112 951 255
f 255 253 112
f 253 110 112
f 462 1005 1007
f 1008 1006 463
f 1006 461 463
f 464 1007 229
f 464 462 1007
f 465 1010 232
f 466 1009 1011
f 1012 1010 467
f 1010 465 467
f 468 466 1011
f 1006 729 461
f 1011 732 468
f 157 624 1054
f 157 1054 159
f 159 1054 1056
f 160 621 1055
f 1055 158 160
f 1053 158 1055
f 114 42 44
f 43 41 115
f 41 113 115
f 116 44 906
f 116 114 44
f 117 45 907
f 118 46 48
f 47 45 119
f 45 117 119
f 120 118 48
f 365 401 403
f 367 365 403
f 366 365 367
f 404 402 368
f 402 366 368
f 368 366 367
f 369 405 407
f 371 369 407
f 370 369 371
f 408 406 372
f 406 370 372
f 372 370 371
f 194 949 106
f 249 194 106
f 950 193 250
f 193 950 755
f 951 196 255
f 196 951 754
f 195 952 111
f 256 195 111
f 651 511 569
f 654 514 572
f 22 874 876
f 24 22 876
f 875 873 23
f 873 21 23
f 26 878 880
f 28 26 880
f 879 877 27
f 877 25 27
f 613 950 105
f 616 951 112
f 873 518 21
f 880 519 28
f 990 194 249
f 194 990 756
f 991 195 256
f 195 991 753
f 954 953 955
f 956 954 955
f 615 952 233
f 614 949 236
f 921 337 923
f 923 337 339
f 340 922 924
f 338 922 340
f 1114 998 604
f 1115 999 601
f 733 506 508
f 735 733 508
f 507 505 736
f 505 734 736
f 601 999 301
f 601 301 603
f 1000 1116 302
f 302 1116 602
f 997 1113 303
f 303 1113 603
f 603 301 303
f 604 998 304
f 304 602 604
f 302 602 304
f 962 312 58
f 963 313 59
f 41 1098 113
f 48 1099 120
f 753 273 755
f 753 991 273
f 274 196 754
f 992 196 274
f 275 193 755
f 989 193 275
f 755 273 275
f 276 754 756
f 756 990 276
f 274 754 276
f 602 709 604
f 710 1115 601
f 711 1114 604
f 604 709 711
f 712 601 603
f 710 601 712
f 1049 229 231
f 1049 464 229
f 230 1008 1050
f 1008 463 1050
f 231 1009 1051
f 1009 466 1051
f 1051 1049 231
f 232 230 1052
f 1052 465 232
f 230 1050 1052
f 837 992 274
f 273 838 275
f 839 274 276
f 837 274 839
f 840 989 275
f 275 838 840
f 5 625 15
f 625 615 233
f 626 17 6
f 234 626 236
f 627 4 15
f 627 233 235
f 15 625 627
f 625 233 627
f 628 6 16
f 628 614 236
f 626 6 628
f 236 626 628
f 998 549 304
f 999 552 301
f 521 742 431
f 524 743 430
f 754 951 257
f 754 257 756
f 951 616 257
f 257 616 234
f 952 195 258
f 258 195 753
f 233 952 258
f 233 258 235
f 949 194 259
f 259 194 756
f 236 949 259
f 259 234 236
f 756 257 259
f 257 234 259
f 755 950 260
f 260 753 755
f 950 613 260
f 260 613 235
f 258 753 260
f 235 258 260
f 842 912 37
f 38 841 843
f 844 842 39
f 842 37 39
f 843 913 40
f 40 38 843
f 522 741 317
f 523 744 324
f 1173 486 488
f 1175 1173 488
f 487 485 1176
f 485 1174 1176
f 85 1025 49
f 522 1025 432
f 1025 85 688
f 432 1025 688
f 521 1026 50
f 1026 521 687
f 524 1027 55
f 1027 524 686
f 88 1028 56
f 523 1028 429
f 1028 88 685
f 429 1028 685
f 512 652 966
f 570 512 966
f 965 651 569
f 965 569 571
f 968 654 572
f 572 570 968
f 570 966 968
f 513 653 967
f 571 513 967
f 967 965 571
f 557 523 429
f 744 523 557
f 430 558 432
f 430 743 558
f 559 429 431
f 431 742 559
f 557 429 559
f 560 522 432
f 741 522 560
f 432 558 560
f 846 497 634
f 845 498 1036
f 848 499 1033
f 847 500 639
f 870 238 719
f 510 237 650
f 869 237 510
f 515 240 655
f 872 240 515
f 871 239 718
f 69 1 2
f 1 69 16
f 16 69 628
f 69 614 628
f 613 70 235
f 70 4 627
f 235 70 627
f 616 71 234
f 71 17 626
f 234 71 626
f 20 72 5
f 72 20 19
f 5 72 625
f 72 615 625
f 525 649 651
f 652 650 528
f 650 526 528
f 527 651 965
f 527 525 651
f 530 654 968
f 529 653 655
f 656 654 532
f 654 530 532
f 531 529 655
f 922 442 924
f 922 679 442
f 1018 441 1020
f 1018 680 441
f 444 1017 1019
f 1019 677 444
f 442 1017 444
f 924 442 444
f 443 921 923
f 923 678 443
f 1020 441 443
f 441 921 443
f 354 87 445
f 354 445 356
f 87 1027 445
f 445 1027 686
f 685 88 446
f 685 446 687
f 688 85 447
f 447 686 688
f 445 686 447
f 356 445 447
f 355 86 448
f 448 353 355
f 86 1026 448
f 448 1026 687
f 687 446 448
f 446 353 448
f 717 142 719
f 141 871 718
f 144 870 719
f 719 142 144
f 143 718 720
f 141 718 143
f 806 570 572
f 961 311 806
f 805 962 964
f 569 511 805
f 963 961 808
f 572 514 808
f 961 806 808
f 808 806 572
f 571 569 807
f 964 314 807
f 807 805 964
f 569 805 807
f 251 108 1081
f 1081 108 1173
f 1081 1173 1175
f 1083 1081 1175
f 254 109 1084
f 1084 109 1176
f 1176 1174 1084
f 1174 1082 1084
f 366 901 365
f 365 902 401
f 901 902 365
f 372 903 408
f 371 904 372
f 904 903 372
f 114 698 42
f 225 698 114
f 698 1097 42
f 1097 698 668
f 1098 697 113
f 1099 700 120
f 119 699 47
f 228 699 119
f 699 1100 47
f 1100 699 665
f 410 510 512
f 410 869 510
f 409 870 310
f 409 310 312
f 509 238 409
f 238 870 409
f 412 512 570
f 311 309 412
f 806 412 570
f 311 412 806
f 412 410 512
f 309 410 412
f 511 509 411
f 411 312 962
f 805 411 962
f 511 411 805
f 509 409 411
f 411 409 312
f 414 514 516
f 414 313 963
f 808 414 963
f 514 414 808
f 413 513 571
f 413 314 316
f 807 413 571
f 314 413 807
f 416 871 315
f 315 313 416
f 516 239 416
f 239 871 416
f 416 414 516
f 313 414 416
f 515 513 415
f 415 872 515
f 513 413 415
f 415 413 316
f 222 954 956
f 224 222 956
f 955 953 223
f 953 221 223
f 434 149 151
f 152 150 435
f 150 433 435
f 436 434 151
f 438 153 155
f 156 154 439
f 154 437 439
f 440 438 155
f 1117 3 9
f 2 1 1118
f 1119 9 10
f 1119 1117 9
f 8 2 1120
f 2 1118 1120
f 1121 13 19
f 1122 12 11
f 19 20 1123
f 1123 1121 19
f 18 12 1124
f 12 1122 1124
f 801 505 507
f 1050 463 801
f 802 1049 1051
f 1052 1050 803
f 803 801 507
f 1050 801 803
f 508 506 804
f 1051 466 804
f 506 802 804
f 804 802 1051
f 1078 96 38
f 1078 38 40
f 1080 1078 40
f 1079 97 39
f 39 37 1079
f 37 1077 1079
f 107 252 281
f 1082 107 281
f 282 251 1081
f 282 1081 1083
f 283 254 1084
f 1084 1082 283
f 1082 281 283
f 110 253 284
f 1083 110 284
f 284 282 1083
f 142 377 144
f 144 377 379
f 380 141 143
f 378 141 380
f 24 876 146
f 25 877 147
f 106 949 478
f 949 614 478
f 477 105 107
f 477 613 105
f 70 613 477
f 108 106 480
f 1173 480 486
f 108 480 1173
f 106 478 480
f 479 107 1082
f 1174 479 1082
f 479 477 107
f 482 110 1083
f 1175 482 1083
f 481 109 111
f 1176 481 487
f 109 481 1176
f 112 110 484
f 484 616 112
f 71 616 484
f 110 482 484
f 111 952 483
f 952 615 483
f 483 481 111
f 250 193 934
f 193 989 934
f 933 249 251
f 933 990 249
f 252 250 936
f 250 934 936
f 935 251 282
f 935 933 251
f 938 254 283
f 937 253 255
f 256 254 940
f 940 991 256
f 254 938 940
f 255 196 939
f 196 992 939
f 939 937 255
f 161 750 163
f 749 519 162
f 752 518 163
f 163 750 752
f 751 162 164
f 749 162 751
f 1169 733 735
f 1169 536 733
f 736 734 1172
f 1172 537 736
f 734 1170 1172
f 1171 1169 735
f 350 742 318
f 742 350 559
f 351 743 323
f 743 351 558
f 594 293 295
f 294 472 593
f 295 473 596
f 596 594 295
f 296 294 595
f 294 593 595
f 702 605 607
f 702 319 605
f 704 702 607
f 608 606 703
f 703 322 608
f 606 701 703
f 518 945 21
f 945 518 752
f 22 946 874
f 946 517 874
f 517 946 164
f 164 946 751
f 27 947 879
f 947 520 879
f 520 947 161
f 161 947 750
f 519 948 28
f 948 519 749
f 190 52 126
f 125 189 191
f 192 190 128
f 190 126 128
f 191 53 127
f 127 125 191
f 558 546 560
f 558 351 546
f 545 744 557
f 352 744 545
f 548 741 560
f 349 741 548
f 560 546 548
f 547 557 559
f 559 350 547
f 545 557 547
f 634 497 358
f 357 633 635
f 636 360 89
f 636 634 360
f 634 358 360
f 90 359 101
f 359 635 101
f 359 357 635
f 91 362 104
f 362 638 104
f 637 361 92
f 361 637 639
f 640 638 364
f 638 362 364
f 639 500 363
f 363 361 639
f 1089 94 96
f 1089 845 94
f 633 498 1089
f 498 845 1089
f 1090 634 636
f 1090 846 634
f 635 633 1091
f 1091 96 1078
f 633 1089 1091
f 1091 1089 96
f 1092 636 102
f 95 93 1092
f 1092 1090 636
f 93 1090 1092
f 1093 637 103
f 1093 98 100
f 1094 638 640
f 1094 97 1079
f 639 637 1095
f 1095 847 639
f 637 1093 1095
f 1095 1093 100
f 99 97 1096
f 1096 848 99
f 640 499 1096
f 499 848 1096
f 1096 1094 640
f 97 1094 1096
f 813 1117 1119
f 1120 1118 816
f 1118 814 816
f 815 813 1119
f 817 1121 1123
f 1124 1122 820
f 1122 818 820
f 819 817 1123
f 1149 905 907
f 1150 606 608
f 906 44 1150
f 607 605 1151
f 907 45 1151
f 605 1149 1151
f 1151 1149 907
f 908 906 1152
f 1152 1150 608
f 906 1150 1152
f 822 50 52
f 822 521 50
f 742 521 822
f 318 742 822
f 821 522 317
f 821 317 319
f 49 1025 821
f 1025 522 821
f 320 318 824
f 824 52 190
f 824 822 52
f 318 822 824
f 51 49 823
f 823 319 702
f 49 821 823
f 823 821 319
f 826 54 56
f 826 322 703
f 825 321 323
f 825 53 191
f 828 523 324
f 324 322 828
f 56 1028 828
f 1028 523 828
f 828 826 56
f 322 826 828
f 55 53 827
f 827 524 55
f 743 524 827
f 323 743 827
f 53 825 827
f 827 825 323
f 665 917 667
f 699 228 917
f 665 699 917
f 918 1099 666
f 700 1099 918
f 919 1098 667
f 697 1098 919
f 667 917 919
f 920 666 668
f 698 225 920
f 668 698 920
f 918 666 920
f 89 360 1013
f 1014 90 92
f 91 89 1015
f 89 1013 1015
f 92 361 1016
f 1016 1014 92
f 218 1086 1088
f 1085 204 217
f 1088 205 220
f 220 218 1088
f 1087 1085 219
f 1085 217 219
f 152 435 493
f 153 438 496
f 1221 678 923
f 339 1221 923
f 525 1221 649
f 678 1221 525
f 444 1222 924
f 677 1222 444
f 441 1223 921
f 680 1223 441
f 1224 679 922
f 338 1224 922
f 532 1224 656
f 679 1224 532
f 3 4 173
f 4 70 173
f 173 70 477
f 173 477 479
f 174 2 8
f 174 69 2
f 614 69 174
f 478 614 174
f 9 3 175
f 9 175 485
f 485 175 1174
f 175 479 1174
f 3 173 175
f 175 173 479
f 176 8 7
f 486 176 7
f 480 176 486
f 480 478 176
f 176 174 8
f 478 174 176
f 177 13 14
f 487 177 14
f 481 177 487
f 177 481 483
f 178 12 18
f 12 178 488
f 488 178 1175
f 178 482 1175
f 19 13 179
f 179 72 19
f 615 72 179
f 483 615 179
f 13 177 179
f 179 177 483
f 18 17 180
f 17 71 180
f 180 71 484
f 484 482 180
f 180 178 18
f 482 178 180
f 858 462 464
f 998 1114 858
f 858 1114 462
f 463 461 859
f 463 859 801
f 801 859 505
f 461 857 859
f 860 464 1049
f 802 860 1049
f 860 858 464
f 861 465 1052
f 803 861 1052
f 862 466 468
f 466 862 804
f 804 862 508
f 467 465 863
f 999 1115 863
f 863 1115 467
f 465 861 863
f 864 862 468
f 1074 403 397
f 1074 397 399
f 367 403 1074
f 1076 1074 399
f 1075 406 400
f 400 398 1075
f 370 406 1075
f 398 1073 1075
f 137 326 910
f 137 730 1032
f 138 729 1006
f 138 325 1031
f 139 732 1011
f 139 328 1030
f 140 327 915
f 140 731 1029
f 709 732 573
f 709 573 711
f 732 139 573
f 573 139 1030
f 1029 731 574
f 1029 574 1031
f 1032 730 575
f 575 1030 1032
f 573 1030 575
f 711 573 575
f 712 729 576
f 576 710 712
f 729 138 576
f 576 138 1031
f 1031 574 576
f 574 710 576
f 729 582 461
f 1113 582 603
f 603 582 712
f 582 729 712
f 461 582 857
f 582 1113 857
f 462 581 1005
f 581 730 1005
f 1114 581 462
f 581 1114 711
f 730 581 575
f 575 581 711
f 467 584 1012
f 584 731 1012
f 1115 584 467
f 584 1115 710
f 731 584 574
f 574 584 710
f 732 583 468
f 1116 583 602
f 602 583 709
f 583 732 709
f 468 583 864
f 583 1116 864
f 1106 294 296
f 1170 535 1106
f 293 471 1105
f 1105 1169 1171
f 296 474 1108
f 1172 1170 1108
f 1108 1106 296
f 1170 1106 1108
f 295 293 1107
f 1171 538 1107
f 293 1105 1107
f 1107 1105 1171
f 649 706 509
f 706 238 509
f 1221 706 649
f 706 1221 339
f 924 705 340
f 237 705 650
f 705 237 340
f 650 705 526
f 1222 705 924
f 705 1222 526
f 921 708 337
f 240 708 655
f 708 240 337
f 655 708 531
f 1223 708 921
f 708 1223 531
f 656 707 516
f 707 239 516
f 1224 707 656
f 707 1224 338
f 143 598 380
f 142 599 377
f 443 393 1020
f 678 393 443
f 1020 394 1019
f 394 677 1019
f 393 394 1020
f 1017 395 1018
f 395 680 1018
f 442 396 1017
f 679 396 442
f 396 395 1017
f 213 1014 1016
f 215 213 1016
f 1015 1013 216
f 1013 214 216
f 917 228 1154
f 917 1154 919
f 227 700 1153
f 1153 700 918
f 226 697 1156
f 1156 697 919
f 919 1154 1156
f 920 225 1155
f 1155 918 920
f 1153 918 1155
f 765 402 404
f 765 73 402
f 590 73 765
f 403 401 768
f 403 768 397
f 401 766 768
f 767 404 1073
f 398 767 1073
f 767 765 404
f 770 405 1076
f 399 770 1076
f 769 406 408
f 406 769 400
f 407 405 772
f 772 76 407
f 591 76 772
f 405 770 772
f 771 769 408
f 1 1225 1118
f 1118 1225 814
f 1226 4 3
f 4 1226 15
f 1117 1226 3
f 17 1227 6
f 1227 17 18
f 1124 1227 18
f 20 1228 1123
f 1123 1228 819
f 1057 589 503
f 1060 592 502
f 797 989 840
f 990 798 276
f 276 798 839
f 798 990 933
f 991 799 273
f 273 799 838
f 799 991 940
f 800 992 837
f 737 948 749
f 750 738 752
f 739 749 751
f 737 749 739
f 740 945 752
f 752 738 740
f 397 768 330
f 329 398 400
f 399 397 332
f 397 330 332
f 400 769 331
f 331 329 400
f 758 85 49
f 758 49 51
f 757 86 1161
f 757 1161 1163
f 1026 86 757
f 50 1026 757
f 1164 1162 760
f 760 51 189
f 1164 760 125
f 125 760 189
f 760 758 51
f 1162 758 760
f 52 50 759
f 52 759 126
f 50 757 759
f 759 757 1163
f 762 53 55
f 53 762 127
f 761 1165 1167
f 761 54 192
f 1165 761 128
f 128 761 192
f 764 87 1168
f 1168 1166 764
f 1027 87 764
f 55 1027 764
f 764 762 55
f 1166 762 764
f 763 88 56
f 56 54 763
f 54 761 763
f 763 761 1167
f 1120 816 121
f 121 816 213
f 121 213 215
f 123 121 215
f 1121 817 124
f 124 817 216
f 216 214 124
f 214 122 124
f 942 1000 302
f 551 1000 942
f 849 551 942
f 849 942 851
f 301 941 303
f 301 552 941
f 944 302 304
f 304 549 944
f 942 302 944
f 851 942 944
f 943 997 303
f 550 997 943
f 852 550 943
f 943 850 852
f 303 941 943
f 941 850 943
f 973 469 471
f 21 945 973
f 974 22 24
f 23 21 975
f 975 471 293
f 23 975 594
f 594 975 293
f 21 973 975
f 975 973 471
f 472 470 976
f 472 976 593
f 976 974 24
f 470 974 976
f 977 473 475
f 473 977 596
f 978 26 28
f 978 474 296
f 26 978 595
f 595 978 296
f 27 25 979
f 25 977 979
f 979 977 475
f 476 474 980
f 28 948 980
f 980 978 28
f 474 978 980
f 1258 168 218
f 1258 218 220
f 1259 169 219
f 219 217 1259
f 217 1257 1259
f 1260 1258 220
f 554 946 22
f 946 554 751
f 751 554 739
f 974 554 22
f 553 945 740
f 973 553 469
f 945 553 973
f 556 948 737
f 980 556 476
f 948 556 980
f 555 947 27
f 947 555 750
f 750 555 738
f 979 555 27
f 85 745 447
f 447 745 356
f 745 85 758
f 1162 745 758
f 86 746 1161
f 1161 746 150
f 746 86 355
f 87 747 1168
f 1168 747 155
f 747 87 354
f 88 748 446
f 446 748 353
f 748 88 763
f 1167 748 763
f 669 20 5
f 1228 20 669
f 6 670 16
f 6 1227 670
f 671 5 15
f 15 1226 671
f 669 5 671
f 672 1 16
f 1225 1 672
f 16 670 672
f 909 325 62
f 62 1006 1008
f 325 138 62
f 62 138 1006
f 61 910 912
f 1005 730 61
f 61 137 910
f 730 137 61
f 911 909 64
f 64 1008 230
f 909 62 64
f 64 62 1008
f 1007 1005 63
f 63 912 842
f 63 61 912
f 1005 61 63
f 66 1010 1012
f 66 913 843
f 65 914 916
f 65 1009 231
f 915 913 68
f 1012 731 68
f 68 140 915
f 731 140 68
f 913 66 68
f 68 66 1012
f 916 328 67
f 1011 1009 67
f 328 139 67
f 67 139 1011
f 67 65 916
f 1009 65 67
f 457 847 1034
f 500 847 457
f 1033 458 1035
f 1033 499 458
f 459 1034 1036
f 1036 498 459
f 457 1034 459
f 460 846 1035
f 497 846 460
f 1035 458 460
f 245 494 496
f 493 435 246
f 496 438 247
f 247 245 496
f 495 493 248
f 493 246 248
f 721 715 585
f 721 585 723
f 723 585 587
f 724 714 588
f 588 722 724
f 586 722 588
f 458 1021 460
f 1022 500 457
f 1023 497 460
f 460 1021 1023
f 1024 457 459
f 1022 457 1024
f 198 518 873
f 518 198 163
f 598 197 380
f 599 200 377
f 199 519 880
f 519 199 162
f 629 520 161
f 377 629 379
f 200 520 629
f 377 200 629
f 162 630 164
f 630 600 378
f 162 199 630
f 199 600 630
f 631 161 163
f 631 597 379
f 163 198 631
f 198 597 631
f 629 161 631
f 379 629 631
f 632 517 164
f 632 378 380
f 197 517 632
f 380 197 632
f 164 630 632
f 630 378 632
f 1002 190 192
f 701 320 1002
f 320 824 1002
f 1002 824 190
f 189 51 1001
f 1001 702 704
f 51 823 1001
f 1001 823 702
f 192 54 1004
f 703 701 1004
f 54 826 1004
f 1004 826 703
f 1004 1002 192
f 701 1002 1004
f 191 189 1003
f 704 321 1003
f 321 825 1003
f 1003 825 191
f 189 1001 1003
f 1003 1001 704
f 113 697 982
f 697 226 982
f 982 226 881
f 982 881 883
f 981 114 116
f 981 225 114
f 115 113 984
f 984 883 489
f 113 982 984
f 984 982 883
f 884 882 983
f 983 981 116
f 882 981 983
f 986 885 887
f 985 118 120
f 985 886 492
f 119 117 988
f 988 228 119
f 117 986 988
f 988 986 887
f 120 700 987
f 700 227 987
f 987 227 888
f 888 886 987
f 987 985 120
f 886 985 987
f 353 993 355
f 994 747 354
f 995 746 355
f 355 993 995
f 996 354 356
f 994 354 996
f 1109 1232 453
f 453 1258 1260
f 454 1110 1112
f 1257 167 454
f 1111 1109 455
f 1260 170 455
f 1109 453 455
f 455 453 1260
f 1112 1233 456
f 1259 1257 456
f 456 454 1112
f 1257 454 456
f 1154 577 1156
f 577 1060 502
f 501 578 503
f 578 227 1153
f 579 502 504
f 579 226 1156
f 577 502 579
f 1156 577 579
f 580 1153 1155
f 580 1057 503
f 503 578 580
f 578 1153 580
f 151 1164 561
f 561 1164 125
f 561 125 127
f 759 1163 562
f 126 759 562
f 762 1166 563
f 127 762 563
f 563 561 127
f 154 1165 564
f 564 1165 128
f 128 126 564
f 126 562 564
f 714 181 588
f 434 182 149
f 713 182 434
f 439 183 156
f 716 183 439
f 715 184 585
f 502 957 504
f 502 592 957
f 592 75 957
f 958 1059 501
f 591 1059 958
f 959 1058 504
f 590 1058 959
f 504 957 959
f 960 501 503
f 503 589 960
f 589 74 960
f 958 501 960
f 621 450 1055
f 797 450 202
f 622 449 201
f 798 449 839
f 623 452 208
f 799 452 838
f 624 451 1054
f 800 451 207
f 670 1062 672
f 1038 1061 1040
f 1061 1228 669
f 1064 1037 1039
f 1064 1225 672
f 1062 1037 1064
f 672 1062 1064
f 1063 669 671
f 1040 1061 1063
f 1061 669 1063
f 404 368 341
f 1073 404 341
f 368 367 342
f 342 367 1074
f 342 1074 1076
f 341 368 342
f 369 370 343
f 343 370 1075
f 1075 1073 343
f 1073 341 343
f 405 369 344
f 1076 405 344
f 344 342 1076
f 341 342 344
f 344 369 343
f 343 341 344
f 666 1134 668
f 1134 352 545
f 1133 1100 665
f 546 1133 548
f 1136 1097 668
f 1136 545 547
f 668 1134 1136
f 1134 545 1136
f 1135 665 667
f 1135 349 548
f 1133 665 1135
f 548 1133 1135
f 306 498 633
f 357 306 633
f 498 306 459
f 459 306 1024
f 497 305 358
f 305 497 1023
f 500 308 363
f 308 500 1022
f 307 499 640
f 364 307 640
f 499 307 458
f 458 307 1021
f 350 777 547
f 777 1097 1136
f 547 777 1136
f 778 1098 41
f 1098 778 667
f 667 778 1135
f 778 349 1135
f 779 1099 48
f 1099 779 666
f 666 779 1134
f 779 352 1134
f 351 780 546
f 780 1100 1133
f 546 780 1133
f 1225 682 814
f 682 1225 1064
f 1039 682 1064
f 813 681 1117
f 681 1226 1117
f 1226 681 671
f 671 681 1063
f 820 684 1124
f 684 1227 1124
f 1227 684 670
f 670 684 1062
f 1228 683 819
f 683 1228 1061
f 1038 683 1061
f 30 318 320
f 30 350 318
f 777 350 30
f 317 741 29
f 741 349 29
f 606 32 701
f 32 320 701
f 32 30 320
f 319 31 605
f 319 317 31
f 605 31 1149
f 317 29 31
f 322 34 608
f 34 322 324
f 608 34 1152
f 607 33 704
f 33 321 704
f 324 744 36
f 744 352 36
f 36 34 324
f 323 321 35
f 35 351 323
f 780 351 35
f 321 33 35
f 870 1070 310
f 1070 870 144
f 379 1070 144
f 597 1070 379
f 869 1069 720
f 720 1069 143
f 1069 869 410
f 309 1069 410
f 598 1069 309
f 1069 598 143
f 872 1072 717
f 717 1072 142
f 1072 872 415
f 316 1072 415
f 599 1072 316
f 1072 599 142
f 871 1071 315
f 1071 871 141
f 378 1071 141
f 600 1071 378
f 902 617 401
f 617 902 856
f 401 617 766
f 617 74 766
f 402 618 366
f 618 901 366
f 73 618 402
f 618 73 855
f 407 619 371
f 619 904 371
f 76 619 407
f 619 76 854
f 903 620 408
f 620 903 853
f 408 620 771
f 620 75 771
f 77 266 79
f 77 1159 266
f 722 265 724
f 722 1160 265
f 268 721 723
f 723 1157 268
f 79 266 268
f 266 721 268
f 267 78 80
f 80 1158 267
f 265 78 267
f 724 265 267
f 489 883 725
f 725 329 331
f 726 490 492
f 491 489 727
f 489 725 727
f 727 725 331
f 492 886 728
f 332 330 728
f 728 726 492
f 330 726 728
f 1102 306 357
f 306 1102 1024
f 1103 307 364
f 307 1103 1021
f 677 394 925
f 394 393 926
f 925 394 926
f 954 927 953
f 953 928 221
f 925 926 928
f 927 928 953
f 927 925 928
f 956 929 224
f 955 930 956
f 930 929 956
f 395 396 931
f 680 395 932
f 929 930 932
f 932 395 931
f 931 929 932
f 310 1070 1177
f 1070 597 1177
f 1178 309 311
f 1178 598 309
f 197 598 1178
f 312 1179 58
f 312 310 1179
f 310 1177 1179
f 57 1180 961
f 1180 311 961
f 1180 1178 311
f 60 1181 964
f 1181 314 964
f 313 1182 59
f 1182 313 315
f 316 314 1183
f 1183 599 316
f 200 599 1183
f 314 1181 1183
f 315 1071 1184
f 1071 600 1184
f 1184 1182 315
f 261 623 1053
f 838 261 840
f 452 623 261
f 838 452 261
f 1054 262 1056
f 262 800 837
f 1054 451 262
f 451 800 262
f 263 1053 1055
f 263 797 840
f 1055 450 263
f 450 797 263
f 261 1053 263
f 840 261 263
f 264 622 1056
f 264 837 839
f 449 622 264
f 839 449 264
f 1056 262 264
f 262 837 264
f 1034 242 1036
f 241 848 1033
f 244 845 1036
f 1036 242 244
f 243 1033 1035
f 241 1033 243
f 436 151 790
f 494 436 790
f 790 151 561
f 790 561 563
f 1163 152 789
f 789 152 493
f 789 493 495
f 562 1163 789
f 1166 153 792
f 792 153 496
f 496 494 792
f 563 1166 792
f 494 790 792
f 792 790 563
f 437 154 791
f 495 437 791
f 791 154 564
f 564 562 791
f 791 789 495
f 562 789 791
f 1198 622 201
f 1198 201 203
f 1197 621 165
f 1197 165 167
f 450 621 1197
f 202 450 1197
f 168 166 1200
f 1200 203 1086
f 218 1200 1086
f 168 1200 218
f 166 1198 1200
f 1200 1198 203
f 204 202 1199
f 204 1199 217
f 1199 167 1257
f 217 1199 1257
f 1199 1197 167
f 202 1197 1199
f 1202 205 207
f 205 1202 220
f 1202 170 1260
f 220 1202 1260
f 1201 169 171
f 1201 206 1087
f 219 1201 1087
f 169 1201 219
f 1204 624 172
f 172 170 1204
f 451 624 1204
f 207 451 1204
f 170 1202 1204
f 1204 1202 207
f 1203 623 208
f 208 206 1203
f 1203 1201 171
f 206 1201 1203
f 898 965 967
f 898 527 965
f 966 652 897
f 652 528 897
f 897 528 222
f 897 222 224
f 967 653 900
f 653 529 900
f 900 529 223
f 223 221 900
f 900 898 967
f 221 898 900
f 968 966 899
f 899 530 968
f 966 897 899
f 899 897 224
f 566 1157 723
f 713 566 587
f 587 566 723
f 565 714 724
f 565 1158 1230
f 267 565 724
f 1158 565 267
f 568 715 721
f 568 1159 1235
f 266 568 721
f 1159 568 266
f 567 1160 722
f 716 567 586
f 586 567 722
f 181 714 829
f 433 181 829
f 830 713 434
f 830 434 436
f 566 713 830
f 435 433 831
f 435 831 246
f 433 829 831
f 832 436 494
f 245 832 494
f 832 830 436
f 833 437 495
f 248 833 495
f 834 438 440
f 438 834 247
f 835 716 439
f 439 437 835
f 567 716 835
f 437 833 835
f 184 715 836
f 440 184 836
f 836 834 440
f 1021 541 1023
f 1021 1103 541
f 1037 542 1039
f 542 308 1022
f 1037 1104 542
f 1104 308 542
f 543 1038 1040
f 543 305 1023
f 1040 1101 543
f 1101 305 543
f 541 1038 543
f 1023 541 543
f 544 1022 1024
f 1024 1102 544
f 1039 542 544
f 542 1022 544
f 1185 813 815
f 814 682 1186
f 1187 815 122
f 214 1187 122
f 1187 1185 815
f 816 814 1188
f 816 1188 213
f 213 1188 1014
f 814 1186 1188
f 1189 817 819
f 817 1189 216
f 216 1189 1015
f 1190 818 123
f 215 1190 123
f 819 683 1191
f 1191 1189 819
f 820 818 1192
f 818 1190 1192
f 328 1215 1217
f 1030 328 1217
f 1030 1217 1032
f 327 140 1218
f 1218 140 1029
f 326 137 1219
f 1219 137 1032
f 1032 1217 1219
f 325 1214 1220
f 1031 325 1220
f 1220 1029 1031
f 1218 1029 1220
f 1216 327 1137
f 242 1216 1137
f 242 1137 244
f 1137 327 1218
f 1217 1215 1138
f 1217 1138 1219
f 1220 1214 1139
f 1139 1218 1220
f 244 1137 1139
f 1137 1218 1139
f 1213 326 1140
f 243 1213 1140
f 1140 241 243
f 1140 326 1219
f 1138 241 1140
f 1219 1138 1140
f 850 609 852
f 850 272 609
f 612 849 851
f 851 269 612
f 610 849 612
f 852 609 611
f 657 933 935
f 657 798 933
f 201 449 657
f 449 798 657
f 658 202 204
f 934 989 658
f 989 797 658
f 658 797 202
f 203 201 659
f 201 657 659
f 659 657 935
f 660 204 1085
f 936 934 660
f 660 658 204
f 934 658 660
f 661 205 1088
f 661 937 939
f 662 206 208
f 207 205 663
f 939 992 663
f 992 800 663
f 663 800 207
f 205 661 663
f 663 661 939
f 940 938 664
f 664 799 940
f 208 452 664
f 452 799 664
f 664 662 208
f 938 662 664
f 1237 906 908
f 1237 116 906
f 983 116 1237
f 905 43 1238
f 43 115 1238
f 908 46 1239
f 46 118 1239
f 1239 1237 908
f 907 905 1240
f 1240 117 907
f 986 117 1240
f 905 1238 1240
f 326 1213 1125
f 910 326 1125
f 1125 1213 93
f 1125 93 95
f 1126 1214 909
f 1126 909 911
f 912 910 1127
f 912 1127 37
f 1127 95 1077
f 37 1127 1077
f 910 1125 1127
f 1127 1125 95
f 96 94 1128
f 1128 911 841
f 96 1128 38
f 38 1128 841
f 1128 1126 911
f 94 1126 1128
f 1129 97 99
f 1129 914 844
f 97 1129 39
f 39 1129 844
f 1130 913 915
f 913 1130 40
f 1130 98 1080
f 40 1130 1080
f 1131 1215 916
f 916 914 1131
f 914 1129 1131
f 1131 1129 99
f 327 1216 1132
f 915 327 1132
f 1132 1216 100
f 100 98 1132
f 1132 1130 915
f 98 1130 1132
f 286 1230 1232
f 286 565 1230
f 714 565 286
f 829 714 286
f 1229 1157 285
f 1157 566 285
f 285 566 830
f 285 830 832
f 288 1232 1109
f 831 829 288
f 288 286 1232
f 829 286 288
f 1231 1229 287
f 287 832 245
f 1229 285 287
f 287 285 832
f 290 1234 1236
f 290 833 248
f 289 1233 1112
f 289 834 836
f 1236 1160 292
f 1160 567 292
f 292 567 835
f 835 833 292
f 292 290 1236
f 833 290 292
f 1235 1233 291
f 291 568 1235
f 715 568 291
f 836 715 291
f 1233 289 291
f 291 289 836
f 382 1229 1231
f 381 166 168
f 1230 1158 381
f 167 165 384
f 384 1231 1110
f 454 384 1110
f 167 384 454
f 165 382 384
f 384 382 1231
f 1232 1230 383
f 383 168 1258
f 1232 383 453
f 453 383 1258
f 383 381 168
f 1230 381 383
f 386 1233 1235
f 386 169 1259
f 1233 386 456
f 456 386 1259
f 385 170 172
f 385 1234 1111
f 455 385 1111
f 170 385 455
f 171 169 388
f 1235 1159 388
f 169 386 388
f 388 386 1235
f 1236 1234 387
f 387 385 172
f 1234 385 387
f 1206 282 284
f 1206 935 282
f 659 935 1206
f 281 252 1205
f 252 936 1205
f 284 253 1208
f 253 937 1208
f 1208 1206 284
f 283 281 1207
f 1207 938 283
f 662 938 1207
f 281 1205 1207
f 957 75 373
f 957 373 959
f 75 620 373
f 373 620 853
f 76 591 374
f 854 76 374
f 854 374 856
f 374 591 958
f 73 590 375
f 855 73 375
f 375 853 855
f 375 590 959
f 373 853 375
f 959 373 375
f 960 74 376
f 376 958 960
f 74 617 376
f 376 617 856
f 856 374 376
f 374 958 376
f 549 998 1141
f 1141 998 858
f 1141 858 860
f 1113 997 1142
f 857 1113 1142
f 506 1143 802
f 1143 860 802
f 1143 1141 860
f 505 1144 734
f 859 1144 505
f 859 857 1144
f 857 1142 1144
f 508 1145 735
f 862 1145 508
f 1145 862 864
f 507 1146 803
f 1146 861 803
f 1116 1000 1147
f 864 1116 1147
f 1147 1145 864
f 552 999 1148
f 1148 999 863
f 863 861 1148
f 861 1146 1148
f 417 41 43
f 417 778 41
f 349 778 417
f 29 349 417
f 42 1097 418
f 1097 777 418
f 418 777 30
f 418 30 32
f 419 43 905
f 1149 419 905
f 31 419 1149
f 31 29 419
f 419 417 43
f 29 417 419
f 44 42 420
f 44 420 1150
f 1150 420 606
f 420 32 606
f 42 418 420
f 420 418 32
f 421 45 47
f 45 421 1151
f 1151 421 607
f 421 33 607
f 422 46 908
f 1152 422 908
f 34 422 1152
f 422 34 36
f 47 1100 423
f 1100 780 423
f 423 780 35
f 35 33 423
f 423 421 47
f 33 421 423
f 48 46 424
f 424 779 48
f 352 779 424
f 36 352 424
f 46 422 424
f 424 422 36
f 101 635 210
f 210 1078 1080
f 635 1091 210
f 210 1091 1078
f 209 102 104
f 1077 95 209
f 209 1092 102
f 95 1092 209
f 103 101 212
f 1080 98 212
f 212 1093 103
f 98 1093 212
f 101 210 212
f 212 210 1080
f 104 638 211
f 1079 1077 211
f 638 1094 211
f 211 1094 1079
f 211 209 104
f 1077 209 211
f 225 425 1155
f 1057 425 882
f 425 225 981
f 882 425 981
f 1155 425 580
f 425 1057 580
f 226 426 881
f 1058 426 504
f 504 426 579
f 426 226 579
f 227 427 888
f 1059 427 501
f 501 427 578
f 427 227 578
f 228 428 1154
f 1060 428 887
f 428 228 988
f 887 428 988
f 1154 428 577
f 428 1060 577
f 1110 1231 1065
f 1065 245 247
f 1231 287 1065
f 1065 287 245
f 1066 1109 1111
f 246 831 1066
f 1066 288 1109
f 831 288 1066
f 1112 1110 1067
f 247 834 1067
f 1067 289 1112
f 834 289 1067
f 1110 1065 1067
f 1067 1065 247
f 1111 1234 1068
f 248 246 1068
f 1234 290 1068
f 1068 290 248
f 1068 1066 1111
f 246 1066 1068
f 130 549 1141
f 130 1141 1143
f 997 550 129
f 129 550 533
f 129 533 535
f 1142 997 129
f 733 132 506
f 536 132 733
f 536 534 132
f 132 1143 506
f 534 130 132
f 132 130 1143
f 734 131 1170
f 131 535 1170
f 1144 131 734
f 1144 1142 131
f 131 129 535
f 1142 129 131
f 735 134 1171
f 134 538 1171
f 1145 134 735
f 134 1145 1147
f 736 133 507
f 537 133 736
f 133 537 539
f 133 1146 507
f 1000 551 136
f 136 551 540
f 540 538 136
f 1147 1000 136
f 538 134 136
f 136 134 1147
f 135 552 1148
f 1148 1146 135
f 135 133 539
f 1146 133 135
f 585 694 587
f 585 184 694
f 693 716 586
f 993 693 995
f 183 716 693
f 993 183 693
f 696 713 587
f 696 994 996
f 182 713 696
f 996 182 696
f 587 694 696
f 694 994 696
f 695 586 588
f 588 181 695
f 693 586 695
f 995 693 695
f 358 305 1042
f 305 1101 1042
f 1042 1101 1185
f 1042 1185 1187
f 1041 357 359
f 1041 1102 357
f 360 358 1044
f 360 1044 1013
f 1013 1044 214
f 1044 1187 214
f 358 1042 1044
f 1044 1042 1187
f 1043 359 90
f 1014 1043 90
f 1188 1043 1014
f 1188 1186 1043
f 1043 1041 359
f 1186 1041 1043
f 1046 362 91
f 1015 1046 91
f 1189 1046 1015
f 1046 1189 1191
f 1045 361 363
f 361 1045 1016
f 1016 1045 215
f 1045 1190 215
f 364 362 1048
f 1048 1103 364
f 362 1046 1048
f 1048 1046 1191
f 363 308 1047
f 308 1104 1047
f 1047 1104 1192
f 1192 1190 1047
f 1047 1045 363
f 1190 1045 1047
f 390 57 59
f 146 876 390
f 389 145 147
f 58 1179 389
f 148 146 392
f 59 1182 392
f 392 390 59
f 146 390 392
f 60 58 391
f 147 877 391
f 58 389 391
f 391 389 147
f 74 589 642
f 766 74 642
f 641 590 765
f 641 765 767
f 1058 590 641
f 768 766 644
f 768 644 330
f 330 644 726
f 766 642 644
f 643 767 398
f 329 643 398
f 643 641 767
f 646 770 399
f 332 646 399
f 645 769 771
f 769 645 331
f 331 645 727
f 648 591 772
f 772 770 648
f 1059 591 648
f 770 646 648
f 75 592 647
f 771 75 647
f 647 645 771
f 270 773 470
f 470 773 974
f 554 773 739
f 773 554 974
f 553 774 469
f 269 774 612
f 556 775 476
f 272 775 609
f 271 776 475
f 475 776 979
f 555 776 738
f 776 555 979
f 782 882 884
f 589 1057 782
f 782 1057 882
f 642 589 782
f 881 426 781
f 426 1058 781
f 781 1058 641
f 781 641 643
f 784 884 490
f 726 784 490
f 644 784 726
f 644 642 784
f 784 782 884
f 642 782 784
f 883 881 783
f 883 783 725
f 725 783 329
f 783 643 329
f 881 781 783
f 783 781 643
f 786 886 888
f 886 786 728
f 728 786 332
f 786 646 332
f 785 885 491
f 727 785 491
f 645 785 727
f 785 645 647
f 888 427 788
f 427 1059 788
f 788 1059 648
f 648 646 788
f 788 786 888
f 646 786 788
f 887 885 787
f 592 1060 787
f 787 1060 887
f 647 592 787
f 885 785 787
f 787 785 647
f 690 24 146
f 690 146 148
f 976 24 690
f 593 976 690
f 875 23 689
f 145 875 689
f 689 23 594
f 689 594 596
f 878 26 692
f 148 878 692
f 692 26 595
f 595 593 692
f 692 690 148
f 593 690 692
f 691 25 147
f 147 145 691
f 977 25 691
f 596 977 691
f 145 689 691
f 691 689 596
f 1063 346 1040
f 346 681 813
f 681 346 1063
f 346 1101 1040
f 1185 346 813
f 1101 346 1185
f 345 682 1039
f 544 345 1039
f 1102 345 544
f 682 345 1186
f 345 1102 1041
f 1186 345 1041
f 348 683 1038
f 541 348 1038
f 1103 348 541
f 683 348 1191
f 348 1103 1048
f 1191 348 1048
f 1062 347 1037
f 347 684 820
f 684 347 1062
f 347 1104 1037
f 1192 347 820
f 1104 347 1192
f 903 904 278
f 853 903 278
f 853 278 855
f 904 619 277
f 277 619 854
f 278 904 277
f 901 618 280
f 280 618 855
f 855 278 280
f 278 277 280
f 902 901 279
f 856 902 279
f 279 854 856
f 277 854 279
f 279 901 280
f 280 277 279
f 865 556 737
f 609 865 611
f 775 556 865
f 609 775 865
f 738 866 740
f 866 271 610
f 738 776 866
f 776 271 866
f 867 737 739
f 867 270 611
f 739 773 867
f 773 270 867
f 865 737 867
f 611 865 867
f 868 553 740
f 868 610 612
f 774 553 868
f 612 774 868
f 740 866 868
f 866 610 868
f 622 82 1056
f 1056 82 159
f 82 622 1198
f 166 82 1198
f 621 81 165
f 81 621 160
f 79 81 160
f 165 81 382
f 624 84 172
f 84 624 157
f 78 84 157
f 172 84 387
f 623 83 1053
f 1053 83 158
f 83 623 1203
f 171 83 1203
f 159 969 80
f 969 1158 80
f 381 969 166
f 1158 969 381
f 969 82 166
f 82 969 159
f 970 1157 1229
f 268 970 79
f 1157 970 268
f 382 970 1229
f 970 81 79
f 81 970 382
f 971 1160 1236
f 265 971 78
f 1160 971 265
f 387 971 1236
f 971 84 78
f 84 971 387
f 158 972 77
f 972 1159 77
f 388 972 171
f 1159 972 388
f 972 83 171
f 83 972 158
f 229 1007 186
f 186 842 844
f 1007 63 186
f 186 63 842
f 185 230 232
f 841 911 185
f 185 64 230
f 911 64 185
f 231 229 188
f 844 914 188
f 188 65 231
f 914 65 188
f 229 186 188
f 188 186 844
f 232 1010 187
f 843 841 187
f 1010 66 187
f 187 66 843
f 187 185 232
f 841 185 187
f 845 674 94
f 674 845 244
f 1214 674 1139
f 1139 674 244
f 674 1214 1126
f 94 674 1126
f 1213 673 93
f 846 673 1035
f 93 673 1090
f 673 846 1090
f 673 1213 243
f 1035 673 243
f 1216 676 100
f 847 676 1034
f 100 676 1095
f 676 847 1095
f 676 1216 242
f 1034 676 242
f 848 675 99
f 675 848 241
f 1215 675 1138
f 1138 675 241
f 675 1215 1131
f 99 675 1131
f 490 884 333
f 884 983 333
f 333 983 1237
f 333 1237 1239
f 334 489 491
f 115 984 334
f 334 984 489
f 1238 115 334
f 492 490 335
f 118 985 335
f 335 985 492
f 1239 118 335
f 490 333 335
f 335 333 1239
f 491 885 336
f 885 986 336
f 336 986 1240
f 1240 1238 336
f 336 334 491
f 1238 334 336
f 718 793 720
f 718 239 793
f 793 707 338
f 239 707 793
f 337 794 339
f 794 872 717
f 240 872 794
f 337 240 794
f 795 338 340
f 795 869 720
f 237 869 795
f 340 237 795
f 793 338 795
f 720 793 795
f 796 717 719
f 719 238 796
f 796 706 339
f 238 706 796
f 339 794 796
f 794 717 796
f 890 678 525
f 890 525 527
f 393 678 890
f 926 393 890
f 1222 677 889
f 526 1222 889
f 889 677 925
f 889 925 927
f 928 892 221
f 928 926 892
f 892 527 898
f 221 892 898
f 892 890 527
f 926 890 892
f 528 526 891
f 222 891 954
f 528 891 222
f 891 927 954
f 526 889 891
f 891 889 927
f 894 529 531
f 223 894 955
f 529 894 223
f 894 930 955
f 929 893 224
f 893 929 931
f 893 530 899
f 224 893 899
f 1223 680 896
f 531 1223 896
f 896 680 932
f 932 930 896
f 896 894 531
f 930 894 896
f 895 679 532
f 532 530 895
f 396 679 895
f 931 396 895
f 530 893 895
f 895 893 931
f 1241 534 536
f 1241 269 534
f 469 774 1241
f 774 269 1241
f 1242 470 472
f 1242 270 470
f 471 469 1243
f 1243 536 1169
f 471 1243 1105
f 1105 1243 1169
f 1243 1241 536
f 469 1241 1243
f 535 533 1244
f 1244 472 294
f 1106 1244 294
f 535 1244 1106
f 533 1242 1244
f 1244 1242 472
f 1245 538 540
f 1245 473 295
f 1107 1245 295
f 538 1245 1107
f 1246 474 476
f 1246 537 1172
f 474 1246 1108
f 1108 1246 1172
f 475 473 1247
f 1247 271 475
f 1247 1245 540
f 473 1245 1247
f 539 537 1248
f 1248 272 539
f 476 775 1248
f 775 272 1248
f 537 1246 1248
f 1248 1246 476
f 1086 203 1193
f 203 659 1193
f 1193 659 1206
f 1193 1206 1208
f 1194 1085 1087
f 1194 660 1085
f 936 660 1194
f 1205 936 1194
f 1088 1086 1195
f 1195 661 1088
f 937 661 1195
f 1208 937 1195
f 1086 1193 1195
f 1195 1193 1208
f 1087 206 1196
f 206 662 1196
f 1196 662 1207
f 1207 1205 1196
f 1196 1194 1087
f 1205 1194 1196
f 809 10 14
f 809 1119 10
f 815 1119 809
f 122 815 809
f 7 8 810
f 8 1120 810
f 810 1120 121
f 810 121 123
f 14 13 811
f 13 1121 811
f 811 1121 124
f 124 122 811
f 811 809 14
f 122 809 811
f 11 7 812
f 812 1122 11
f 818 1122 812
f 123 818 812
f 7 810 812
f 812 810 123
f 550 1210 533
f 1210 550 852
f 611 1210 852
f 270 1210 611
f 533 1210 1242
f 1210 270 1242
f 269 1209 534
f 1209 269 851
f 549 1209 944
f 944 1209 851
f 1209 549 130
f 534 1209 130
f 272 1212 539
f 1212 272 850
f 552 1212 941
f 941 1212 850
f 1212 552 135
f 539 1212 135
f 551 1211 540
f 1211 551 849
f 610 1211 849
f 271 1211 610
f 540 1211 1247
f 1211 271 1247
f 1249 873 875
f 1249 198 873
f 597 198 1249
f 1177 597 1249
f 874 517 1250
f 517 197 1250
f 1250 197 1178
f 1250 1178 1180
f 1251 875 145
f 1179 1177 1251
f 389 1251 145
f 1179 1251 389
f 1251 1249 875
f 1177 1249 1251
f 876 874 1252
f 1252 1180 57
f 876 1252 390
f 390 1252 57
f 874 1250 1252
f 1252 1250 1180
f 1253 877 879
f 1253 1181 60
f 877 1253 391
f 391 1253 60
f 1254 878 148
f 1254 1182 1184
f 392 1254 148
f 1182 1254 392
f 879 520 1255
f 520 200 1255
f 1255 200 1183
f 1183 1181 1255
f 1255 1253 879
f 1181 1253 1255
f 880 878 1256
f 1256 199 880
f 600 199 1256
f 1184 600 1256
f 878 1254 1256
f 1256 1254 1184
f 150 297 433
f 746 297 150
f 297 746 995
f 297 181 433
f 695 297 995
f 181 297 695
f 149 298 1162
f 298 745 1162
f 745 298 356
f 356 298 996
f 182 298 149
f 298 182 996
f 156 299 1167
f 299 748 1167
f 748 299 353
f 353 299 993
f 183 299 156
f 299 183 993
f 155 300 440
f 747 300 155
f 300 747 994
f 300 184 440
f 694 300 994
f 184 300 694