# https://github.com/mikedh/trimesh
v -0.12473904 0.21605437 -0.16283923
v -0.12473904 0.21605437 0.00000000
v -0.12473904 -0.21605437 -0.16283923
v -0.12473904 -0.21605437 0.00000000
v 0.08070223 -0.10119740 0.16701463
v 0.08070223 -0.10119740 -0.16701463
v 0.08070223 0.10119740 0.16701463
v 0.08070223 0.10119740 -0.16701463
v -0.49008626 -0.09907307 0.00417538
v -0.49008626 -0.09907307 0.16283926
v -0.49008626 0.09907307 0.00417538
v -0.49008626 0.09907307 0.16283926
v -0.07022519 0.10872987 0.16701463
v -0.07022519 0.10872987 -0.16701463
v -0.07022519 -0.10872987 0.16701463
v -0.07022519 -0.10872987 -0.16701463
v 0.18791279 0.15767755 -0.16701463
v 0.18791279 -0.15767755 -0.16701463
v 0.11661810 0.05616032 0.16701463
v 0.11661810 0.05616032 -0.16701463
v 0.11661810 -0.05616032 0.16701463
v 0.11661810 -0.05616032 -0.16701463
v -0.24947809 -0.00000000 -0.16283923
v -0.24947809 0.00000000 0.00000000
v -0.05151822 0.11417609 -0.16283923
v -0.05151822 0.11417609 0.16283926
v -0.05151822 -0.11417609 -0.16283923
v -0.05151822 -0.11417609 0.16283926
v 0.36652595 -0.34008640 0.00417538
v 0.36652595 -0.34008640 0.16283926
v 0.36652595 0.34008640 0.00417538
v 0.36652595 0.34008640 0.16283926
v -0.03505659 -0.12459855 0.16701463
v -0.03505659 -0.12459855 -0.16701463
v -0.03505659 0.12459855 0.16701463
v -0.03505659 0.12459855 -0.16701463
v -0.18267050 0.46543688 0.00417538
v -0.18267050 0.46543688 0.16283926
v -0.18267050 -0.46543688 0.00417538
v -0.18267050 -0.46543688 0.16283926
v 0.22810532 -0.44493592 0.00417538
v 0.22810532 -0.44493592 0.16283926
v 0.22810532 0.44493592 0.00417538
v 0.22810532 0.44493592 0.16283926
v -0.11190972 0.21828797 -0.16701463
v -0.11190972 -0.21828797 -0.16701463
v -0.23440461 0.07230425 -0.16701463
v -0.23440461 -0.07230425 -0.16701463
v -0.23771730 0.06053026 -0.16701463
v -0.23771730 -0.06053026 -0.16701463
v 0.05323549 -0.11798197 0.16701463
v 0.05323549 -0.11798197 -0.16701463
v 0.05323549 0.11798197 0.16701463
v 0.05323549 0.11798197 -0.16701463
v 0.09182278 0.08519910 -0.16283923
v 0.09182278 0.08519910 0.16283926
v 0.09182278 -0.08519910 -0.16283923
v 0.09182278 -0.08519910 0.16283926
v -0.10688403 0.06531548 -0.16283923
v -0.10688403 0.06531548 0.16283926
v -0.10688403 -0.06531548 -0.16283923
v -0.10688403 -0.06531548 0.16283926
v 0.12463851 -0.01247196 -0.16283923
v 0.12463851 -0.01247196 0.16283926
v 0.12463851 0.01247196 -0.16283923
v 0.12463851 0.01247196 0.16283926
v -0.19111131 0.16036142 -0.16283923
v -0.19111131 0.16036142 0.00000000
v -0.19111131 -0.16036142 -0.16283923
v -0.19111131 -0.16036142 0.00000000
v -0.10260712 0.22740074 -0.16283923
v -0.10260712 0.22740074 0.00000000
v -0.10260712 -0.22740074 -0.16283923
v -0.10260712 -0.22740074 0.00000000
v -0.12943633 -0.00000000 0.16701463
v -0.12943633 0.00000000 -0.16701463
v -0.06263048 -0.10847917 -0.16283923
v -0.06263048 -0.10847917 0.16283926
v -0.06263048 0.10847917 -0.16283923
v -0.06263048 0.10847917 0.16283926
v -0.18288037 -0.16968818 -0.16283923
v -0.18288037 -0.16968818 0.00000000
v -0.18288037 0.16968818 -0.16283923
v -0.18288037 0.16968818 0.00000000
v 0.24499778 0.01222733 -0.16701463
v 0.24499778 -0.01222733 -0.16701463
v -0.12686993 -0.02564731 0.16701463
v -0.12686993 -0.02564731 -0.16701463
v -0.12686993 0.02564731 0.16701463
v -0.12686993 0.02564731 -0.16701463
v 0.07312030 0.10170414 -0.16283923
v 0.07312030 0.10170414 0.16283926
v 0.07312030 -0.10170414 -0.16283923
v 0.07312030 -0.10170414 0.16283926
v -0.41311938 0.28166002 0.00417538
v -0.41311938 0.28166002 0.16283926
v -0.41311938 -0.28166002 0.00417538
v -0.41311938 -0.28166002 0.16283926
v -0.46592277 -0.16958202 0.16701463
v -0.46592277 -0.16958202 0.00000000
v -0.46592277 0.16958202 0.16701463
v -0.46592277 0.16958202 0.00000000
v -0.24530271 -0.00000000 -0.16701463
v -0.12879312 -0.01288770 0.16701463
v -0.12879312 -0.01288770 -0.16701463
v -0.12879312 0.01288770 0.16701463
v -0.12879312 0.01288770 -0.16701463
v -0.13542023 -0.48131216 0.00417538
v -0.13542023 -0.48131216 0.16283926
v -0.13542023 0.48131216 0.00417538
v -0.13542023 0.48131216 0.16283926
v 0.24916798 0.01243546 -0.16283923
v 0.24916798 0.01243546 0.00000000
v 0.24916798 -0.01243546 -0.16283923
v 0.24916798 -0.01243546 0.00000000
v -0.49937847 0.02492294 0.00417538
v -0.49937847 0.02492294 0.16283926
v -0.49937847 -0.02492294 0.00417538
v -0.49937847 -0.02492294 0.16283926
v 0.43911079 0.23912700 0.00417538
v 0.43911079 0.23912700 0.16283926
v 0.43911079 -0.23912700 0.00417538
v 0.43911079 -0.23912700 0.16283926
v -0.47778642 -0.14737760 0.00417538
v -0.47778642 -0.14737760 0.16283926
v -0.47778642 0.14737760 0.00417538
v -0.47778642 0.14737760 0.16283926
v 0.48453864 0.12337870 0.00417538
v 0.48453864 0.12337870 0.16283926
v 0.48453864 -0.12337870 0.00417538
v 0.48453864 -0.12337870 0.16283926
v -0.24669163 -0.03718278 -0.16283923
v -0.24669163 -0.03718278 0.00000000
v -0.24669163 0.03718278 -0.16283923
v -0.24669163 0.03718278 0.00000000
v -0.12163036 0.04426983 0.16701463
v -0.12163036 0.04426983 -0.16701463
v -0.12163036 -0.04426983 0.16701463
v -0.12163036 -0.04426983 -0.16701463
v -0.49520829 0.02471482 0.16701463
v -0.49520829 0.02471482 0.00000000
v -0.49520829 -0.02471482 0.16701463
v -0.49520829 -0.02471482 0.00000000
v -0.07812564 0.23252916 -0.16701463
v -0.07812564 -0.23252916 -0.16701463
v 0.13308807 -0.20606065 -0.16701463
v 0.13308807 0.20606065 -0.16701463
v -0.11126047 0.48746398 0.00417538
v -0.11126047 0.48746398 0.16283926
v -0.11126047 -0.48746398 0.00417538
v -0.11126047 -0.48746398 0.16283926
v -0.34620303 -0.35494444 0.16701463
v -0.34620303 -0.35494444 0.00000000
v -0.34620303 0.35494444 0.16701463
v -0.34620303 0.35494444 0.00000000
v -0.20564355 -0.45575291 0.00417538
v -0.20564355 -0.45575291 0.16283926
v -0.20564355 0.45575291 0.00417538
v -0.20564355 0.45575291 0.16283926
v -0.27127314 0.42001295 0.00417538
v -0.27127314 0.42001295 0.16283926
v -0.27127314 -0.42001295 0.00417538
v -0.27127314 -0.42001295 0.16283926
v -0.07555764 0.10509427 0.16701463
v -0.07555764 0.10509427 -0.16701463
v -0.07555764 -0.10509427 0.16701463
v -0.07555764 -0.10509427 -0.16701463
v -0.12526096 -0.00000000 -0.16283923
v -0.12526096 -0.00000000 0.16283926
v -0.10088985 -0.22359486 -0.16701463
v -0.10088985 0.22359486 -0.16701463
v 0.04576297 -0.11660215 -0.16283923
v 0.04576297 -0.11660215 0.16283926
v 0.04576297 0.11660215 -0.16283923
v 0.04576297 0.11660215 0.16283926
v -0.25000000 0.43301269 0.00417538
v -0.25000000 0.43301269 0.16283926
v -0.25000000 -0.43301269 0.00417538
v -0.25000000 -0.43301269 0.16283926
v -0.49028671 0.07389883 0.16701463
v -0.49028671 0.07389883 0.00000000
v -0.49028671 -0.07389883 0.16701463
v -0.49028671 -0.07389883 0.00000000
v 0.42308268 -0.25854042 0.16701463
v 0.42308268 -0.25854042 0.00000000
v 0.42308268 0.25854042 0.16701463
v 0.42308268 0.25854042 0.00000000
v 0.06756876 -0.24015364 -0.16283923
v 0.06756876 -0.24015364 0.00000000
v 0.06756876 0.24015364 -0.16283923
v 0.06756876 0.24015364 0.00000000
v -0.15294375 0.19178540 -0.16701463
v -0.15294375 -0.19178540 -0.16701463
v 0.12368584 -0.03815203 0.16701463
v 0.12368584 -0.03815203 -0.16701463
v 0.12368584 0.03815203 0.16701463
v 0.12368584 0.03815203 -0.16701463
v 0.09984958 -0.07563312 -0.16283923
v 0.09984958 -0.07563312 0.16283926
v 0.09984958 0.07563312 -0.16283923
v 0.09984958 0.07563312 0.16283926
v -0.11542501 0.04865571 -0.16283923
v -0.11542501 0.04865571 0.16283926
v -0.11542501 -0.04865571 -0.16283923
v -0.11542501 -0.04865571 0.16283926
v -0.11927250 0.05027757 0.16701463
v -0.11927250 0.05027757 -0.16701463
v -0.11927250 -0.05027757 0.16701463
v -0.11927250 -0.05027757 -0.16701463
v 0.20267862 -0.13818394 -0.16701463
v 0.20267862 0.13818394 -0.16701463
v -0.22477199 -0.10824449 -0.16283923
v -0.22477199 -0.10824449 0.00000000
v -0.22477199 0.10824449 -0.16283923
v -0.22477199 0.10824449 0.00000000
v 0.11000688 0.05990655 -0.16283923
v 0.11000688 0.05990655 0.16283926
v 0.11000688 -0.05990655 -0.16283923
v 0.11000688 -0.05990655 0.16283926
v 0.30914161 -0.38765129 0.16701463
v 0.30914161 -0.38765129 0.00000000
v 0.30914161 0.38765129 0.16701463
v 0.30914161 0.38765129 0.00000000
v 0.34911844 -0.35793343 0.00417538
v 0.34911844 -0.35793343 0.16283926
v 0.34911844 0.35793343 0.00417538
v 0.34911844 0.35793343 0.16283926
v -0.20392628 0.45194706 0.16701463
v -0.20392628 0.45194706 0.00000000
v -0.20392628 -0.45194706 0.16701463
v -0.20392628 -0.45194706 0.00000000
v -0.11285622 0.05434870 -0.16283923
v -0.11285622 0.05434870 0.16283926
v -0.11285622 -0.05434870 -0.16283923
v -0.11285622 -0.05434870 0.16283926
v -0.24176355 -0.06156056 -0.16283923
v -0.24176355 -0.06156056 0.00000000
v -0.24176355 0.06156056 -0.16283923
v -0.24176355 0.06156056 0.00000000
v 0.00621966 0.24940056 -0.16283923
v 0.00621966 0.24940056 0.00000000
v 0.00621966 -0.24940056 -0.16283923
v 0.00621966 -0.24940056 0.00000000
v -0.11969597 0.03692132 -0.16283923
v -0.11969597 0.03692132 0.16283926
v -0.11969597 -0.03692132 -0.16283923
v -0.11969597 -0.03692132 0.16283926
v 0.33084291 0.37489060 0.00417538
v 0.33084291 0.37489060 0.16283926
v 0.33084291 -0.37489060 0.00417538
v 0.33084291 -0.37489060 0.16283926
v 0.00322694 -0.12939610 0.16701463
v 0.00322694 -0.12939610 -0.16701463
v 0.00322694 0.12939610 0.16701463
v 0.00322694 0.12939610 -0.16701463
v 0.11033136 0.48339328 0.16701463
v 0.11033136 0.48339328 0.00000000
v 0.11033136 -0.48339328 0.16701463
v 0.11033136 -0.48339328 0.00000000
v -0.15924333 0.47396368 0.00417538
v -0.15924333 0.47396368 0.16283926
v -0.15924333 -0.47396368 0.00417538
v -0.15924333 -0.47396368 0.16283926
v 0.11770680 -0.04284177 -0.16283923
v 0.11770680 -0.04284177 0.16283926
v 0.11770680 0.04284177 -0.16283923
v 0.11770680 0.04284177 0.16283926
v -0.28943449 0.40257886 0.16701463
v -0.28943449 0.40257886 0.00000000
v -0.28943449 -0.40257886 0.16701463
v -0.28943449 -0.40257886 0.00000000
v -0.06795987 0.10522246 -0.16283923
v -0.06795987 0.10522246 0.16283926
v -0.06795987 -0.10522246 -0.16283923
v -0.06795987 -0.10522246 0.16283926
v 0.22620049 -0.44122037 0.16701463
v 0.22620049 -0.44122037 0.00000000
v 0.22620049 0.44122037 0.16701463
v 0.22620049 0.44122037 0.00000000
v -0.06165267 -0.49197668 0.16701463
v -0.06165267 -0.49197668 0.00000000
v -0.06165267 0.49197668 0.16701463
v -0.06165267 0.49197668 0.00000000
v -0.11381456 -0.22200350 -0.16283923
v -0.11381456 -0.22200350 0.00000000
v -0.11381456 0.22200350 -0.16283923
v -0.11381456 0.22200350 0.00000000
v 0.00312284 -0.12522203 -0.16283923
v 0.00312284 -0.12522203 0.16283926
v 0.00312284 0.12522203 -0.16283923
v 0.00312284 0.12522203 0.16283926
v 0.03102103 -0.24754193 -0.16283923
v 0.03102103 -0.24754193 0.00000000
v 0.03102103 0.24754193 -0.16283923
v 0.03102103 0.24754193 0.00000000
v 0.00611557 0.24522647 -0.16701463
v 0.00611557 -0.24522647 -0.16701463
v -0.12386190 -0.01866918 -0.16283923
v -0.12386190 -0.01866918 0.16283926
v -0.12386190 0.01866918 -0.16283923
v -0.12386190 0.01866918 0.16283926
v 0.15554704 -0.19504982 -0.16283923
v 0.15554704 -0.19504982 0.00000000
v 0.15554704 0.19504982 -0.16283923
v 0.15554704 0.19504982 0.00000000
v -0.43544391 0.23713012 0.16701463
v -0.43544391 0.23713012 0.00000000
v -0.43544391 -0.23713012 0.16701463
v -0.43544391 -0.23713012 0.00000000
v -0.39856625 0.30190220 0.00417538
v -0.39856625 0.30190220 0.16283926
v -0.39856625 -0.30190220 0.00417538
v -0.39856625 -0.30190220 0.16283926
v 0.03989394 -0.11873829 -0.16283923
v 0.03989394 -0.11873829 0.16283926
v 0.03989394 0.11873829 -0.16283923
v 0.03989394 0.11873829 0.16283926
v 0.23443271 0.08532653 -0.16283923
v 0.23443271 0.08532653 0.00000000
v 0.23443271 -0.08532653 -0.16283923
v 0.23443271 -0.08532653 0.00000000
v 0.48049238 -0.12234841 0.16701463
v 0.48049238 -0.12234841 0.00000000
v 0.48049238 0.12234841 0.16701463
v 0.48049238 0.12234841 0.00000000
v 0.20931458 -0.12790947 -0.16701463
v 0.20931458 0.12790947 -0.16701463
v -0.02787319 0.12212040 -0.16283923
v -0.02787319 0.12212040 0.16283926
v -0.02787319 -0.12212040 -0.16283923
v -0.02787319 -0.12212040 0.16283926
v 0.08746181 -0.08967017 -0.16283923
v 0.08746181 -0.08967017 0.16283926
v 0.08746181 0.08967017 -0.16283923
v 0.08746181 0.08967017 0.16283926
v -0.21909705 0.11931389 -0.16283923
v -0.21909705 0.11931389 0.00000000
v -0.21909705 -0.11931389 -0.16283923
v -0.21909705 -0.11931389 0.00000000
v 0.10349547 0.07056201 -0.16283923
v 0.10349547 0.07056201 0.16283926
v 0.10349547 -0.07056201 -0.16283923
v 0.10349547 -0.07056201 0.16283926
v 0.08564618 -0.09704893 0.16701463
v 0.08564618 -0.09704893 -0.16701463
v 0.08564618 0.09704893 0.16701463
v 0.08564618 0.09704893 -0.16701463
v -0.50000000 -0.00000000 0.00417538
v -0.50000000 -0.00000000 0.16283926
v 0.10317791 0.07815423 0.16701463
v 0.10317791 0.07815423 -0.16701463
v 0.10317791 -0.07815423 0.16701463
v 0.10317791 -0.07815423 -0.16701463
v 0.02247638 -0.12746990 0.16701463
v 0.02247638 -0.12746990 -0.16701463
v 0.02247638 0.12746990 0.16701463
v 0.02247638 0.12746990 -0.16701463
v 0.11044684 0.06749266 0.16701463
v 0.11044684 0.06749266 -0.16701463
v 0.11044684 -0.06749266 0.16701463
v 0.11044684 -0.06749266 -0.16701463
v 0.08682410 -0.49240389 0.00417538
v 0.08682410 -0.49240389 0.16283926
v 0.08682410 0.49240389 0.00417538
v 0.08682410 0.49240389 0.16283926
v -0.01557541 -0.12428884 -0.16283923
v -0.01557541 -0.12428884 0.16283926
v -0.01557541 0.12428884 -0.16283923
v -0.01557541 0.12428884 0.16283926
v -0.22604063 0.09528411 -0.16701463
v -0.22604063 -0.09528411 -0.16701463
v -0.22988811 -0.09690598 -0.16283923
v -0.22988811 -0.09690598 0.00000000
v -0.22988811 0.09690598 -0.16283923
v -0.22988811 0.09690598 0.00000000
v 0.24256289 0.03656047 -0.16701463
v 0.24256289 -0.03656047 -0.16701463
v -0.24453156 0.04943312 -0.16283923
v -0.24453156 0.04943312 0.00000000
v -0.24453156 -0.04943312 -0.16283923
v -0.24453156 -0.04943312 0.00000000
v -0.09595546 0.08051620 -0.16283923
v -0.09595546 0.08051620 0.16283926
v -0.09595546 -0.08051620 -0.16283923
v -0.09595546 -0.08051620 0.16283926
v 0.04332141 -0.24568796 -0.16283923
v 0.04332141 -0.24568796 0.00000000
v 0.04332141 0.24568796 -0.16283923
v 0.04332141 0.24568796 0.00000000
v 0.23839447 -0.07353496 -0.16283923
v 0.23839447 -0.07353496 0.00000000
v 0.23839447 0.07353496 -0.16283923
v 0.23839447 0.07353496 0.00000000
v 0.13535340 -0.20956805 -0.16283923
v 0.13535340 -0.20956805 0.00000000
v 0.13535340 0.20956805 -0.16283923
v 0.13535340 0.20956805 0.00000000
v 0.44672257 -0.21513025 0.16701463
v 0.44672257 -0.21513025 0.00000000
v 0.44672257 0.21513025 0.16701463
v 0.44672257 0.21513025 0.00000000
v 0.17981961 -0.16684823 -0.16701463
v 0.17981961 0.16684823 -0.16701463
v -0.48599368 0.09824575 0.16701463
v -0.48599368 0.09824575 0.00000000
v -0.48599368 -0.09824575 0.16701463
v -0.48599368 -0.09824575 0.00000000
v -0.09114458 -0.23223260 -0.16283923
v -0.09114458 -0.23223260 0.00000000
v -0.09114458 0.23223260 -0.16283923
v -0.09114458 0.23223260 0.00000000
v -0.26900780 -0.41650555 0.16701463
v -0.26900780 -0.41650555 0.00000000
v -0.26900780 0.41650555 0.16701463
v -0.26900780 0.41650555 0.00000000
v -0.18114509 0.46155015 0.16701463
v -0.18114509 0.46155015 0.00000000
v -0.18114509 -0.46155015 0.16701463
v -0.18114509 -0.46155015 0.00000000
v -0.09488355 -0.08803906 0.16701463
v -0.09488355 -0.08803906 -0.16701463
v -0.09488355 0.08803906 0.16701463
v -0.09488355 0.08803906 -0.16701463
v -0.17419480 -0.17859308 -0.16283923
v -0.17419480 -0.17859308 0.00000000
v -0.17419480 0.17859308 -0.16283923
v -0.17419480 0.17859308 0.00000000
v -0.49582464 0.00000000 0.16701463
v -0.49582464 -0.00000000 0.00000000
v -0.05458499 0.23915246 -0.16701463
v -0.05458499 -0.23915246 -0.16701463
v -0.04122374 -0.12269624 0.16701463
v -0.04122374 -0.12269624 -0.16701463
v -0.04122374 0.12269624 0.16701463
v -0.04122374 0.12269624 -0.16701463
v 0.24791232 0.42939672 0.16701463
v 0.24791232 0.42939672 0.00000000
v 0.24791232 -0.42939672 0.16701463
v 0.24791232 -0.42939672 0.00000000
v 0.13428938 0.47729284 0.16701463
v 0.13428938 0.47729284 0.00000000
v 0.13428938 -0.47729284 0.16701463
v 0.13428938 -0.47729284 0.00000000
v 0.07945544 0.23648709 -0.16283923
v 0.07945544 0.23648709 0.00000000
v 0.07945544 -0.23648709 -0.16283923
v 0.07945544 -0.23648709 0.00000000
v 0.32808015 -0.37175998 0.16701463
v 0.32808015 -0.37175998 0.00000000
v 0.32808015 0.37175998 0.16701463
v 0.32808015 0.37175998 0.00000000
v -0.40966955 0.27930796 0.16701463
v -0.40966955 0.27930796 0.00000000
v -0.40966955 -0.27930796 0.16701463
v -0.40966955 -0.27930796 0.00000000
v -0.07809894 0.09793296 -0.16283923
v -0.07809894 0.09793296 0.16283926
v -0.07809894 -0.09793296 -0.16283923
v -0.07809894 -0.09793296 0.16283926
v -0.22101010 -0.10643286 -0.16701463
v -0.22101010 0.10643286 -0.16701463
v -0.03705302 -0.49443823 0.16701463
v -0.03705302 -0.49443823 0.00000000
v -0.03705302 0.49443823 0.16701463
v -0.03705302 0.49443823 0.00000000
v -0.06217185 0.49611962 0.00417538
v -0.06217185 0.49611962 0.16283926
v -0.06217185 -0.49611962 0.00417538
v -0.06217185 -0.49611962 0.16283926
v 0.38302222 -0.32139382 0.00417538
v 0.38302222 -0.32139382 0.16283926
v 0.38302222 0.32139382 0.00417538
v 0.38302222 0.32139382 0.16283926
v 0.19553879 -0.14811486 -0.16701463
v 0.19553879 0.14811486 -0.16701463
v -0.01236125 0.49567053 0.16701463
v -0.01236125 0.49567053 0.00000000
v -0.01236125 -0.49567053 0.16701463
v -0.01236125 -0.49567053 0.00000000
v -0.14319392 0.19917060 -0.16701463
v -0.14319392 -0.19917060 -0.16701463
v 0.15791354 0.47000572 0.16701463
v 0.15791354 0.47000572 0.00000000
v 0.15791354 -0.47000572 0.16701463
v 0.15791354 -0.47000572 0.00000000
v 0.05551410 0.24322315 -0.16283923
v 0.05551410 0.24322315 0.00000000
v 0.05551410 -0.24322315 -0.16283923
v 0.05551410 -0.24322315 0.00000000
v 0.03050185 0.24339898 -0.16701463
v 0.03050185 -0.24339898 -0.16701463
v -0.12277735 0.02481998 -0.16283923
v -0.12277735 0.02481998 0.16283926
v -0.12277735 -0.02481998 -0.16283923
v -0.12277735 -0.02481998 0.16283926
v 0.16507611 -0.18705399 -0.16283923
v 0.16507611 -0.18705399 0.00000000
v 0.16507611 0.18705399 -0.16283923
v 0.16507611 0.18705399 0.00000000
v -0.39523795 -0.29938111 0.16701463
v -0.39523795 -0.29938111 0.00000000
v -0.39523795 0.29938111 0.16701463
v -0.39523795 0.29938111 0.00000000
v -0.12138756 0.03090907 -0.16283923
v -0.12138756 0.03090907 0.16283926
v -0.12138756 -0.03090907 -0.16283923
v -0.12138756 -0.03090907 0.16283926
v -0.09915398 0.08320007 0.16701463
v -0.09915398 0.08320007 -0.16701463
v -0.09915398 -0.08320007 0.16701463
v -0.09915398 -0.08320007 -0.16701463
v -0.46984634 -0.17101008 0.00417538
v -0.46984634 -0.17101008 0.16283926
v -0.46984634 0.17101008 0.00417538
v -0.46984634 0.17101008 0.16283926
v -0.01246535 0.49984461 0.00417538
v -0.01246535 0.49984461 0.16283926
v -0.01246535 -0.49984461 0.00417538
v -0.01246535 -0.49984461 0.16283926
v -0.05714539 -0.11146620 -0.16283923
v -0.05714539 -0.11146620 0.16283926
v -0.05714539 0.11146620 -0.16283923
v -0.05714539 0.11146620 0.16283926
v -0.49336079 -0.04936819 0.16701463
v -0.49336079 -0.04936819 0.00000000
v -0.49336079 0.04936819 0.16701463
v -0.49336079 0.04936819 0.00000000
v 0.24823838 0.02484000 -0.16283923
v 0.24823838 0.02484000 0.00000000
v 0.24823838 -0.02484000 -0.16283923
v 0.24823838 -0.02484000 0.00000000
v 0.36346519 0.33724642 0.16701463
v 0.36346519 0.33724642 0.00000000
v 0.36346519 -0.33724642 0.16701463
v 0.36346519 -0.33724642 0.00000000
v 0.03392574 0.12057924 -0.16283923
v 0.03392574 0.12057924 0.16283926
v 0.03392574 -0.12057924 -0.16283923
v 0.03392574 -0.12057924 0.16283926
v 0.17127939 -0.17560409 -0.16701463
v 0.17127939 0.17560409 -0.16701463
v -0.29187185 0.40596899 0.00417538
v -0.29187185 0.40596899 0.16283926
v -0.29187185 -0.40596899 0.00417538
v -0.29187185 -0.40596899 0.16283926
v 0.04728840 0.12048888 0.16701463
v 0.04728840 0.12048888 -0.16701463
v 0.04728840 -0.12048888 0.16701463
v 0.04728840 -0.12048888 -0.16701463
v -0.47379655 0.14614688 0.16701463
v -0.47379655 0.14614688 0.00000000
v -0.47379655 -0.14614688 0.16701463
v -0.47379655 -0.14614688 0.00000000
v 0.08288340 -0.09391832 -0.16283923
v 0.08288340 -0.09391832 0.16283926
v 0.08288340 0.09391832 -0.16283923
v 0.08288340 0.09391832 0.16283926
v 0.12799063 0.01929148 0.16701463
v 0.12799063 0.01929148 -0.16701463
v 0.12799063 -0.01929148 0.16701463
v 0.12799063 -0.01929148 -0.16701463
v 0.12510526 0.00624374 -0.16283923
v 0.12510526 0.00624374 0.16283926
v 0.12510526 -0.00624374 -0.16283923
v 0.12510526 -0.00624374 0.16283926
v 0.01864352 0.24878049 -0.16283923
v 0.01864352 0.24878049 0.00000000
v 0.01864352 -0.24878049 -0.16283923
v 0.01864352 -0.24878049 0.00000000
v 0.24043897 -0.04860579 -0.16701463
v 0.24043897 0.04860579 -0.16701463
v 0.46073812 -0.19421741 0.00417538
v 0.46073812 -0.19421741 0.16283926
v 0.46073812 0.19421741 0.00417538
v 0.46073812 0.19421741 0.16283926
v -0.01609459 -0.12843180 0.16701463
v -0.01609459 -0.12843180 -0.16701463
v -0.01609459 0.12843180 0.16701463
v -0.01609459 0.12843180 -0.16701463
v -0.00936076 -0.12491070 -0.16283923
v -0.00936076 -0.12491070 0.16283926
v -0.00936076 0.12491070 -0.16283923
v -0.00936076 0.12491070 0.16283926
v 0.45689061 -0.19259556 0.16701463
v 0.45689061 -0.19259556 0.00000000
v 0.45689061 0.19259556 0.16701463
v 0.45689061 0.19259556 0.00000000
v 0.08961915 0.22834586 -0.16701463
v 0.08961915 -0.22834586 -0.16701463
v 0.20612846 -0.14053601 -0.16283923
v 0.20612846 -0.14053601 0.00000000
v 0.20612846 0.14053601 -0.16283923
v 0.20612846 0.14053601 0.00000000
v 0.37982371 -0.31870994 0.16701463
v 0.37982371 -0.31870994 0.00000000
v 0.37982371 0.31870994 0.16701463
v 0.37982371 0.31870994 0.00000000
v -0.21287738 0.13008666 -0.16283923
v -0.21287738 0.13008666 0.00000000
v -0.21287738 -0.13008666 -0.16283923
v -0.21287738 -0.13008666 0.00000000
v -0.03736505 -0.49860191 0.00417538
v -0.03736505 -0.49860191 0.16283926
v -0.03736505 0.49860191 0.00417538
v -0.03736505 0.49860191 0.16283926
v 0.12927543 0.00645187 0.16701463
v 0.12927543 0.00645187 -0.16701463
v 0.12927543 -0.00645187 0.16701463
v 0.12927543 -0.00645187 -0.16701463
v 0.05905023 -0.11518174 0.16701463
v 0.05905023 -0.11518174 -0.16701463
v 0.05905023 0.11518174 0.16701463
v 0.05905023 0.11518174 -0.16701463
v -0.06643791 0.23613434 -0.16701463
v -0.06643791 -0.23613434 -0.16701463
v 0.14563125 0.20256074 -0.16283923
v 0.14563125 0.20256074 0.00000000
v 0.14563125 -0.20256074 -0.16283923
v 0.14563125 -0.20256074 0.00000000
v 0.21543014 -0.11731701 -0.16701463
v 0.21543014 0.11731701 -0.16701463
v 0.02880229 -0.12619109 0.16701463
v 0.02880229 -0.12619109 -0.16701463
v 0.02880229 0.12619109 0.16701463
v 0.02880229 0.12619109 -0.16701463
v 0.12265135 0.21243837 -0.16701463
v 0.12265135 -0.21243837 -0.16701463
v 0.06471816 -0.11209515 0.16701463
v 0.06471816 -0.11209515 -0.16701463
v 0.06471816 0.11209515 0.16701463
v 0.06471816 0.11209515 -0.16701463
v 0.42664546 0.26071763 0.00417538
v 0.42664546 0.26071763 0.16283926
v 0.42664546 -0.26071763 0.00417538
v 0.42664546 -0.26071763 0.16283926
v 0.11367378 0.06190344 0.16701463
v 0.11367378 0.06190344 -0.16701463
v 0.11367378 -0.06190344 0.16701463
v 0.11367378 -0.06190344 -0.16701463
v -0.10694531 0.07291408 0.16701463
v -0.10694531 0.07291408 -0.16701463
v -0.10694531 -0.07291408 0.16701463
v -0.10694531 -0.07291408 -0.16701463
v -0.24408375 -0.02442426 -0.16701463
v -0.24408375 0.02442426 -0.16701463
v -0.23050915 -0.08389847 -0.16701463
v -0.23050915 0.08389847 -0.16701463
v -0.31174490 0.39091575 0.00417538
v -0.31174490 0.39091575 0.16283926
v -0.31174490 -0.39091575 0.00417538
v -0.31174490 -0.39091575 0.16283926
v -0.09037720 -0.09265918 0.16701463
v -0.09037720 -0.09265918 -0.16701463
v -0.09037720 0.09265918 0.16701463
v -0.09037720 0.09265918 -0.16701463
v -0.16231333 -0.18392336 -0.16701463
v -0.16231333 0.18392336 -0.16701463
v 0.49441540 0.07452113 0.00417538
v 0.49441540 0.07452113 0.16283926
v 0.49441540 -0.07452113 0.00417538
v 0.49441540 -0.07452113 0.16283926
v 0.49751541 -0.04978392 0.00417538
v 0.49751541 -0.04978392 0.16283926
v 0.49751541 0.04978392 0.00417538
v 0.49751541 0.04978392 0.16283926
v 0.00967279 -0.12907439 0.16701463
v 0.00967279 -0.12907439 -0.16701463
v 0.00967279 0.12907439 0.16701463
v 0.00967279 0.12907439 -0.16701463
v -0.04259637 0.24157602 -0.16701463
v -0.04259637 -0.24157602 -0.16701463
v 0.45048442 -0.21694188 0.00417538
v 0.45048442 -0.21694188 0.16283926
v 0.45048442 0.21694188 0.00417538
v 0.45048442 0.21694188 0.16283926
v 0.12543380 -0.03193937 0.16701463
v 0.12543380 -0.03193937 -0.16701463
v 0.12543380 0.03193937 0.16701463
v 0.12543380 0.03193937 -0.16701463
v 0.02175134 0.12335797 -0.16283923
v 0.02175134 0.12335797 0.16283926
v 0.02175134 -0.12335797 -0.16283923
v 0.02175134 -0.12335797 0.16283926
v 0.08609904 0.48829198 0.16701463
v 0.08609904 0.48829198 0.00000000
v 0.08609904 -0.48829198 0.16701463
v 0.08609904 -0.48829198 0.00000000
v 0.19886708 0.15063597 -0.16283923
v 0.19886708 0.15063597 0.00000000
v 0.19886708 -0.15063597 -0.16283923
v 0.19886708 -0.15063597 0.00000000
v -0.01833149 -0.24461681 -0.16701463
v -0.01833149 0.24461681 -0.16701463
v 0.01833149 -0.24461681 -0.16701463
v 0.01833149 0.24461681 -0.16701463
v -0.19886708 0.15063597 -0.16283923
v -0.19886708 0.15063597 0.00000000
v -0.19886708 -0.15063597 -0.16283923
v -0.19886708 -0.15063597 0.00000000
v -0.08609904 0.48829198 0.16701463
v -0.08609904 0.48829198 0.00000000
v -0.08609904 -0.48829198 0.16701463
v -0.08609904 -0.48829198 0.00000000
v -0.02175134 0.12335797 -0.16283923
v -0.02175134 0.12335797 0.16283926
v -0.02175134 -0.12335797 -0.16283923
v -0.02175134 -0.12335797 0.16283926
v -0.12543380 -0.03193937 0.16701463
v -0.12543380 -0.03193937 -0.16701463
v -0.12543380 0.03193937 0.16701463
v -0.12543380 0.03193937 -0.16701463
v -0.45048442 -0.21694188 0.00417538
v -0.45048442 -0.21694188 0.16283926
v -0.45048442 0.21694188 0.00417538
v -0.45048442 0.21694188 0.16283926
v 0.04259637 0.24157602 -0.16701463
v 0.04259637 -0.24157602 -0.16701463
v -0.00967279 -0.12907439 0.16701463
v -0.00967279 -0.12907439 -0.16701463
v -0.00967279 0.12907439 0.16701463
v -0.00967279 0.12907439 -0.16701463
v -0.49751541 -0.04978392 0.00417538
v -0.49751541 -0.04978392 0.16283926
v -0.49751541 0.04978392 0.00417538
v -0.49751541 0.04978392 0.16283926
v -0.49441540 0.07452113 0.00417538
v -0.49441540 0.07452113 0.16283926
v -0.49441540 -0.07452113 0.00417538
v -0.49441540 -0.07452113 0.16283926
v 0.16231333 -0.18392336 -0.16701463
v 0.16231333 0.18392336 -0.16701463
v 0.09037720 -0.09265918 0.16701463
v 0.09037720 -0.09265918 -0.16701463
v 0.09037720 0.09265918 0.16701463
v 0.09037720 0.09265918 -0.16701463
v 0.31174490 0.39091575 0.00417538
v 0.31174490 0.39091575 0.16283926
v 0.31174490 -0.39091575 0.00417538
v 0.31174490 -0.39091575 0.16283926
v 0.23050915 -0.08389847 -0.16701463
v 0.23050915 0.08389847 -0.16701463
v 0.24408375 -0.02442426 -0.16701463
v 0.24408375 0.02442426 -0.16701463
v 0.10694531 0.07291408 0.16701463
v 0.10694531 0.07291408 -0.16701463
v 0.10694531 -0.07291408 0.16701463
v 0.10694531 -0.07291408 -0.16701463
v -0.11367378 0.06190344 0.16701463
v -0.11367378 0.06190344 -0.16701463
v -0.11367378 -0.06190344 0.16701463
v -0.11367378 -0.06190344 -0.16701463
v -0.42664546 0.26071763 0.00417538
v -0.42664546 0.26071763 0.16283926
v -0.42664546 -0.26071763 0.00417538
v -0.42664546 -0.26071763 0.16283926
v -0.06471816 -0.11209515 0.16701463
v -0.06471816 -0.11209515 -0.16701463
v -0.06471816 0.11209515 0.16701463
v -0.06471816 0.11209515 -0.16701463
v -0.12265135 0.21243837 -0.16701463
v -0.12265135 -0.21243837 -0.16701463
v -0.02880229 -0.12619109 0.16701463
v -0.02880229 -0.12619109 -0.16701463
v -0.02880229 0.12619109 0.16701463
v -0.02880229 0.12619109 -0.16701463
v -0.21543014 -0.11731701 -0.16701463
v -0.21543014 0.11731701 -0.16701463
v -0.14563125 0.20256074 -0.16283923
v -0.14563125 0.20256074 0.00000000
v -0.14563125 -0.20256074 -0.16283923
v -0.14563125 -0.20256074 0.00000000
v 0.06643791 0.23613434 -0.16701463
v 0.06643791 -0.23613434 -0.16701463
v -0.05905023 -0.11518174 0.16701463
v -0.05905023 -0.11518174 -0.16701463
v -0.05905023 0.11518174 0.16701463
v -0.05905023 0.11518174 -0.16701463
v -0.12927543 0.00645187 0.16701463
v -0.12927543 0.00645187 -0.16701463
v -0.12927543 -0.00645187 0.16701463
v -0.12927543 -0.00645187 -0.16701463
v 0.03736505 -0.49860191 0.00417538
v 0.03736505 -0.49860191 0.16283926
v 0.03736505 0.49860191 0.00417538
v 0.03736505 0.49860191 0.16283926
v 0.21287738 0.13008666 -0.16283923
v 0.21287738 0.13008666 0.00000000
v 0.21287738 -0.13008666 -0.16283923
v 0.21287738 -0.13008666 0.00000000
v -0.37982371 -0.31870994 0.16701463
v -0.37982371 -0.31870994 0.00000000
v -0.37982371 0.31870994 0.16701463
v -0.37982371 0.31870994 0.00000000
v -0.20612846 -0.14053601 -0.16283923
v -0.20612846 -0.14053601 0.00000000
v -0.20612846 0.14053601 -0.16283923
v -0.20612846 0.14053601 0.00000000
v -0.08961915 0.22834586 -0.16701463
v -0.08961915 -0.22834586 -0.16701463
v -0.45689061 -0.19259556 0.16701463
v -0.45689061 -0.19259556 0.00000000
v -0.45689061 0.19259556 0.16701463
v -0.45689061 0.19259556 0.00000000
v 0.00936076 -0.12491070 -0.16283923
v 0.00936076 -0.12491070 0.16283926
v 0.00936076 0.12491070 -0.16283923
v 0.00936076 0.12491070 0.16283926
v 0.01609459 -0.12843180 0.16701463
v 0.01609459 -0.12843180 -0.16701463
v 0.01609459 0.12843180 0.16701463
v 0.01609459 0.12843180 -0.16701463
v -0.46073812 -0.19421741 0.00417538
v -0.46073812 -0.19421741 0.16283926
v -0.46073812 0.19421741 0.00417538
v -0.46073812 0.19421741 0.16283926
v -0.24043897 -0.04860579 -0.16701463
v -0.24043897 0.04860579 -0.16701463
v -0.01864352 0.24878049 -0.16283923
v -0.01864352 0.24878049 0.00000000
v -0.01864352 -0.24878049 -0.16283923
v -0.01864352 -0.24878049 0.00000000
v -0.12510526 0.00624374 -0.16283923
v -0.12510526 0.00624374 0.16283926
v -0.12510526 -0.00624374 -0.16283923
v -0.12510526 -0.00624374 0.16283926
v -0.12799063 0.01929148 0.16701463
v -0.12799063 0.01929148 -0.16701463
v -0.12799063 -0.01929148 0.16701463
v -0.12799063 -0.01929148 -0.16701463
v -0.08288340 -0.09391832 -0.16283923
v -0.08288340 -0.09391832 0.16283926
v -0.08288340 0.09391832 -0.16283923
v -0.08288340 0.09391832 0.16283926
v 0.47379655 0.14614688 0.16701463
v 0.47379655 0.14614688 0.00000000
v 0.47379655 -0.14614688 0.16701463
v 0.47379655 -0.14614688 0.00000000
v -0.04728840 0.12048888 0.16701463
v -0.04728840 0.12048888 -0.16701463
v -0.04728840 -0.12048888 0.16701463
v -0.04728840 -0.12048888 -0.16701463
v 0.29187185 0.40596899 0.00417538
v 0.29187185 0.40596899 0.16283926
v 0.29187185 -0.40596899 0.00417538
v 0.29187185 -0.40596899 0.16283926
v -0.17127939 -0.17560409 -0.16701463
v -0.17127939 0.17560409 -0.16701463
v -0.03392574 0.12057924 -0.16283923
v -0.03392574 0.12057924 0.16283926
v -0.03392574 -0.12057924 -0.16283923
v -0.03392574 -0.12057924 0.16283926
v -0.36346519 0.33724642 0.16701463
v -0.36346519 0.33724642 0.00000000
v -0.36346519 -0.33724642 0.16701463
v -0.36346519 -0.33724642 0.00000000
v -0.24823838 0.02484000 -0.16283923
v -0.24823838 0.02484000 0.00000000
v -0.24823838 -0.02484000 -0.16283923
v -0.24823838 -0.02484000 0.00000000
v 0.49336079 -0.04936819 0.16701463
v 0.49336079 -0.04936819 0.00000000
v 0.49336079 0.04936819 0.16701463
v 0.49336079 0.04936819 0.00000000
v 0.05714539 -0.11146620 -0.16283923
v 0.05714539 -0.11146620 0.16283926
v 0.05714539 0.11146620 -0.16283923
v 0.05714539 0.11146620 0.16283926
v 0.01246535 0.49984461 0.00417538
v 0.01246535 0.49984461 0.16283926
v 0.01246535 -0.49984461 0.00417538
v 0.01246535 -0.49984461 0.16283926
v 0.46984634 -0.17101008 0.00417538
v 0.46984634 -0.17101008 0.16283926
v 0.46984634 0.17101008 0.00417538
v 0.46984634 0.17101008 0.16283926
v 0.09915398 0.08320007 0.16701463
v 0.09915398 0.08320007 -0.16701463
v 0.09915398 -0.08320007 0.16701463
v 0.09915398 -0.08320007 -0.16701463
v 0.12138756 0.03090907 -0.16283923
v 0.12138756 0.03090907 0.16283926
v 0.12138756 -0.03090907 -0.16283923
v 0.12138756 -0.03090907 0.16283926
v 0.39523795 -0.29938111 0.16701463
v 0.39523795 -0.29938111 0.00000000
v 0.39523795 0.29938111 0.16701463
v 0.39523795 0.29938111 0.00000000
v -0.16507611 -0.18705399 -0.16283923
v -0.16507611 -0.18705399 0.00000000
v -0.16507611 0.18705399 -0.16283923
v -0.16507611 0.18705399 0.00000000
v 0.12277735 0.02481998 -0.16283923
v 0.12277735 0.02481998 0.16283926
v 0.12277735 -0.02481998 -0.16283923
v 0.12277735 -0.02481998 0.16283926
v -0.03050185 0.24339898 -0.16701463
v -0.03050185 -0.24339898 -0.16701463
v -0.05551410 0.24322315 -0.16283923
v -0.05551410 0.24322315 0.00000000
v -0.05551410 -0.24322315 -0.16283923
v -0.05551410 -0.24322315 0.00000000
v -0.15791354 0.47000572 0.16701463
v -0.15791354 0.47000572 0.00000000
v -0.15791354 -0.47000572 0.16701463
v -0.15791354 -0.47000572 0.00000000
v 0.14319392 0.19917060 -0.16701463
v 0.14319392 -0.19917060 -0.16701463
v 0.01236125 0.49567053 0.16701463
v 0.01236125 0.49567053 0.00000000
v 0.01236125 -0.49567053 0.16701463
v 0.01236125 -0.49567053 0.00000000
v -0.19553879 -0.14811486 -0.16701463
v -0.19553879 0.14811486 -0.16701463
v -0.38302222 -0.32139382 0.00417538
v -0.38302222 -0.32139382 0.16283926
v -0.38302222 0.32139382 0.00417538
v -0.38302222 0.32139382 0.16283926
v 0.06217185 0.49611962 0.00417538
v 0.06217185 0.49611962 0.16283926
v 0.06217185 -0.49611962 0.00417538
v 0.06217185 -0.49611962 0.16283926
v 0.03705302 -0.49443823 0.16701463
v 0.03705302 -0.49443823 0.00000000
v 0.03705302 0.49443823 0.16701463
v 0.03705302 0.49443823 0.00000000
v 0.22101010 -0.10643286 -0.16701463
v 0.22101010 0.10643286 -0.16701463
v 0.07809894 0.09793296 -0.16283923
v 0.07809894 0.09793296 0.16283926
v 0.07809894 -0.09793296 -0.16283923
v 0.07809894 -0.09793296 0.16283926
v 0.40966955 0.27930796 0.16701463
v 0.40966955 0.27930796 0.00000000
v 0.40966955 -0.27930796 0.16701463
v 0.40966955 -0.27930796 0.00000000
v -0.32808015 -0.37175998 0.16701463
v -0.32808015 -0.37175998 0.00000000
v -0.32808015 0.37175998 0.16701463
v -0.32808015 0.37175998 0.00000000
v -0.07945544 0.23648709 -0.16283923
v -0.07945544 0.23648709 0.00000000
v -0.07945544 -0.23648709 -0.16283923
v -0.07945544 -0.23648709 0.00000000
v -0.13428938 0.47729284 0.16701463
v -0.13428938 0.47729284 0.00000000
v -0.13428938 -0.47729284 0.16701463
v -0.13428938 -0.47729284 0.00000000
v -0.24791232 0.42939672 0.16701463
v -0.24791232 0.42939672 0.00000000
v -0.24791232 -0.42939672 0.16701463
v -0.24791232 -0.42939672 0.00000000
v 0.04122374 -0.12269624 0.16701463
v 0.04122374 -0.12269624 -0.16701463
v 0.04122374 0.12269624 0.16701463
v 0.04122374 0.12269624 -0.16701463
v 0.05458499 0.23915246 -0.16701463
v 0.05458499 -0.23915246 -0.16701463
v 0.49582464 0.00000000 0.16701463
v 0.49582464 -0.00000000 0.00000000
v 0.17419480 -0.17859308 -0.16283923
v 0.17419480 -0.17859308 0.00000000
v 0.17419480 0.17859308 -0.16283923
v 0.17419480 0.17859308 0.00000000
v 0.09488355 -0.08803906 0.16701463
v 0.09488355 -0.08803906 -0.16701463
v 0.09488355 0.08803906 0.16701463
v 0.09488355 0.08803906 -0.16701463
v 0.18114509 0.46155015 0.16701463
v 0.18114509 0.46155015 0.00000000
v 0.18114509 -0.46155015 0.16701463
v 0.18114509 -0.46155015 0.00000000
v 0.26900780 -0.41650555 0.16701463
v 0.26900780 -0.41650555 0.00000000
v 0.26900780 0.41650555 0.16701463
v 0.26900780 0.41650555 0.00000000
v 0.09114458 -0.23223260 -0.16283923
v 0.09114458 -0.23223260 0.00000000
v 0.09114458 0.23223260 -0.16283923
v 0.09114458 0.23223260 0.00000000
v 0.48599368 0.09824575 0.16701463
v 0.48599368 0.09824575 0.00000000
v 0.48599368 -0.09824575 0.16701463
v 0.48599368 -0.09824575 0.00000000
v -0.17981961 -0.16684823 -0.16701463
v -0.17981961 0.16684823 -0.16701463
v -0.44672257 -0.21513025 0.16701463
v -0.44672257 -0.21513025 0.00000000
v -0.44672257 0.21513025 0.16701463
v -0.44672257 0.21513025 0.00000000
v -0.13535340 -0.20956805 -0.16283923
v -0.13535340 -0.20956805 0.00000000
v -0.13535340 0.20956805 -0.16283923
v -0.13535340 0.20956805 0.00000000
v -0.23839447 -0.07353496 -0.16283923
v -0.23839447 -0.07353496 0.00000000
v -0.23839447 0.07353496 -0.16283923
v -0.23839447 0.07353496 0.00000000
v -0.04332141 -0.24568796 -0.16283923
v -0.04332141 -0.24568796 0.00000000
v -0.04332141 0.24568796 -0.16283923
v -0.04332141 0.24568796 0.00000000
v 0.09595546 0.08051620 -0.16283923
v 0.09595546 0.08051620 0.16283926
v 0.09595546 -0.08051620 -0.16283923
v 0.09595546 -0.08051620 0.16283926
v 0.24453156 0.04943312 -0.16283923
v 0.24453156 0.04943312 0.00000000
v 0.24453156 -0.04943312 -0.16283923
v 0.24453156 -0.04943312 0.00000000
v -0.24256289 0.03656047 -0.16701463
v -0.24256289 -0.03656047 -0.16701463
v 0.22988811 -0.09690598 -0.16283923
v 0.22988811 -0.09690598 0.00000000
v 0.22988811 0.09690598 -0.16283923
v 0.22988811 0.09690598 0.00000000
v 0.22604063 0.09528411 -0.16701463
v 0.22604063 -0.09528411 -0.16701463
v 0.01557541 -0.12428884 -0.16283923
v 0.01557541 -0.12428884 0.16283926
v 0.01557541 0.12428884 -0.16283923
v 0.01557541 0.12428884 0.16283926
v -0.08682410 -0.49240389 0.00417538
v -0.08682410 -0.49240389 0.16283926
v -0.08682410 0.49240389 0.00417538
v -0.08682410 0.49240389 0.16283926
v -0.11044684 0.06749266 0.16701463
v -0.11044684 0.06749266 -0.16701463
v -0.11044684 -0.06749266 0.16701463
v -0.11044684 -0.06749266 -0.16701463
v -0.02247638 -0.12746990 0.16701463
v -0.02247638 -0.12746990 -0.16701463
v -0.02247638 0.12746990 0.16701463
v -0.02247638 0.12746990 -0.16701463
v -0.10317791 0.07815423 0.16701463
v -0.10317791 0.07815423 -0.16701463
v -0.10317791 -0.07815423 0.16701463
v -0.10317791 -0.07815423 -0.16701463
v 0.50000000 0.00000000 0.00417538
v 0.50000000 0.00000000 0.16283926
v -0.08564618 -0.09704893 0.16701463
v -0.08564618 -0.09704893 -0.16701463
v -0.08564618 0.09704893 0.16701463
v -0.08564618 0.09704893 -0.16701463
v -0.10349547 0.07056201 -0.16283923
v -0.10349547 0.07056201 0.16283926
v -0.10349547 -0.07056201 -0.16283923
v -0.10349547 -0.07056201 0.16283926
v 0.21909705 0.11931389 -0.16283923
v 0.21909705 0.11931389 0.00000000
v 0.21909705 -0.11931389 -0.16283923
v 0.21909705 -0.11931389 0.00000000
v -0.08746181 -0.08967017 -0.16283923
v -0.08746181 -0.08967017 0.16283926
v -0.08746181 0.08967017 -0.16283923
v -0.08746181 0.08967017 0.16283926
v 0.02787319 0.12212040 -0.16283923
v 0.02787319 0.12212040 0.16283926
v 0.02787319 -0.12212040 -0.16283923
v 0.02787319 -0.12212040 0.16283926
v -0.20931458 -0.12790947 -0.16701463
v -0.20931458 0.12790947 -0.16701463
v -0.48049238 -0.12234841 0.16701463
v -0.48049238 -0.12234841 0.00000000
v -0.48049238 0.12234841 0.16701463
v -0.48049238 0.12234841 0.00000000
v -0.23443271 0.08532653 -0.16283923
v -0.23443271 0.08532653 0.00000000
v -0.23443271 -0.08532653 -0.16283923
v -0.23443271 -0.08532653 0.00000000
v -0.03989394 -0.11873829 -0.16283923
v -0.03989394 -0.11873829 0.16283926
v -0.03989394 0.11873829 -0.16283923
v -0.03989394 0.11873829 0.16283926
v 0.39856625 0.30190220 0.00417538
v 0.39856625 0.30190220 0.16283926
v 0.39856625 -0.30190220 0.00417538
v 0.39856625 -0.30190220 0.16283926
v 0.43544391 0.23713012 0.16701463
v 0.43544391 0.23713012 0.00000000
v 0.43544391 -0.23713012 0.16701463
v 0.43544391 -0.23713012 0.00000000
v -0.15554704 -0.19504982 -0.16283923
v -0.15554704 -0.19504982 0.00000000
v -0.15554704 0.19504982 -0.16283923
v -0.15554704 0.19504982 0.00000000
v 0.12386190 -0.01866918 -0.16283923
v 0.12386190 -0.01866918 0.16283926
v 0.12386190 0.01866918 -0.16283923
v 0.12386190 0.01866918 0.16283926
v -0.00611557 0.24522647 -0.16701463
v -0.00611557 -0.24522647 -0.16701463
v -0.03102103 -0.24754193 -0.16283923
v -0.03102103 -0.24754193 0.00000000
v -0.03102103 0.24754193 -0.16283923
v -0.03102103 0.24754193 0.00000000
v -0.00312284 -0.12522203 -0.16283923
v -0.00312284 -0.12522203 0.16283926
v -0.00312284 0.12522203 -0.16283923
v -0.00312284 0.12522203 0.16283926
v 0.11381456 -0.22200350 -0.16283923
v 0.11381456 -0.22200350 0.00000000
v 0.11381456 0.22200350 -0.16283923
v 0.11381456 0.22200350 0.00000000
v 0.06165267 -0.49197668 0.16701463
v 0.06165267 -0.49197668 0.00000000
v 0.06165267 0.49197668 0.16701463
v 0.06165267 0.49197668 0.00000000
v -0.22620049 -0.44122037 0.16701463
v -0.22620049 -0.44122037 0.00000000
v -0.22620049 0.44122037 0.16701463
v -0.22620049 0.44122037 0.00000000
v 0.06795987 0.10522246 -0.16283923
v 0.06795987 0.10522246 0.16283926
v 0.06795987 -0.10522246 -0.16283923
v 0.06795987 -0.10522246 0.16283926
v 0.28943449 0.40257886 0.16701463
v 0.28943449 0.40257886 0.00000000
v 0.28943449 -0.40257886 0.16701463
v 0.28943449 -0.40257886 0.00000000
v -0.11770680 -0.04284177 -0.16283923
v -0.11770680 -0.04284177 0.16283926
v -0.11770680 0.04284177 -0.16283923
v -0.11770680 0.04284177 0.16283926
v 0.15924333 0.47396368 0.00417538
v 0.15924333 0.47396368 0.16283926
v 0.15924333 -0.47396368 0.00417538
v 0.15924333 -0.47396368 0.16283926
v -0.11033136 0.48339328 0.16701463
v -0.11033136 0.48339328 0.00000000
v -0.11033136 -0.48339328 0.16701463
v -0.11033136 -0.48339328 0.00000000
v -0.00322694 -0.12939610 0.16701463
v -0.00322694 -0.12939610 -0.16701463
v -0.00322694 0.12939610 0.16701463
v -0.00322694 0.12939610 -0.16701463
v -0.33084291 0.37489060 0.00417538
v -0.33084291 0.37489060 0.16283926
v -0.33084291 -0.37489060 0.00417538
v -0.33084291 -0.37489060 0.16283926
v 0.11969597 0.03692132 -0.16283923
v 0.11969597 0.03692132 0.16283926
v 0.11969597 -0.03692132 -0.16283923
v 0.11969597 -0.03692132 0.16283926
v -0.00621966 0.24940056 -0.16283923
v -0.00621966 0.24940056 0.00000000
v -0.00621966 -0.24940056 -0.16283923
v -0.00621966 -0.24940056 0.00000000
v 0.24176355 -0.06156056 -0.16283923
v 0.24176355 -0.06156056 0.00000000
v 0.24176355 0.06156056 -0.16283923
v 0.24176355 0.06156056 0.00000000
v 0.11285622 0.05434870 -0.16283923
v 0.11285622 0.05434870 0.16283926
v 0.11285622 -0.05434870 -0.16283923
v 0.11285622 -0.05434870 0.16283926
v 0.20392628 0.45194706 0.16701463
v 0.20392628 0.45194706 0.00000000
v 0.20392628 -0.45194706 0.16701463
v 0.20392628 -0.45194706 0.00000000
v -0.34911844 -0.35793343 0.00417538
v -0.34911844 -0.35793343 0.16283926
v -0.34911844 0.35793343 0.00417538
v -0.34911844 0.35793343 0.16283926
v -0.30914161 -0.38765129 0.16701463
v -0.30914161 -0.38765129 0.00000000
v -0.30914161 0.38765129 0.16701463
v -0.30914161 0.38765129 0.00000000
v -0.11000688 0.05990655 -0.16283923
v -0.11000688 0.05990655 0.16283926
v -0.11000688 -0.05990655 -0.16283923
v -0.11000688 -0.05990655 0.16283926
v 0.22477199 -0.10824449 -0.16283923
v 0.22477199 -0.10824449 0.00000000
v 0.22477199 0.10824449 -0.16283923
v 0.22477199 0.10824449 0.00000000
v -0.20267862 -0.13818394 -0.16701463
v -0.20267862 0.13818394 -0.16701463
v 0.11927250 0.05027757 0.16701463
v 0.11927250 0.05027757 -0.16701463
v 0.11927250 -0.05027757 0.16701463
v 0.11927250 -0.05027757 -0.16701463
v 0.11542501 0.04865571 -0.16283923
v 0.11542501 0.04865571 0.16283926
v 0.11542501 -0.04865571 -0.16283923
v 0.11542501 -0.04865571 0.16283926
v -0.09984958 -0.07563312 -0.16283923
v -0.09984958 -0.07563312 0.16283926
v -0.09984958 0.07563312 -0.16283923
v -0.09984958 0.07563312 0.16283926
v -0.12368584 -0.03815203 0.16701463
v -0.12368584 -0.03815203 -0.16701463
v -0.12368584 0.03815203 0.16701463
v -0.12368584 0.03815203 -0.16701463
v 0.15294375 0.19178540 -0.16701463
v 0.15294375 -0.19178540 -0.16701463
v -0.06756876 -0.24015364 -0.16283923
v -0.06756876 -0.24015364 0.00000000
v -0.06756876 0.24015364 -0.16283923
v -0.06756876 0.24015364 0.00000000
v -0.42308268 -0.25854042 0.16701463
v -0.42308268 -0.25854042 0.00000000
v -0.42308268 0.25854042 0.16701463
v -0.42308268 0.25854042 0.00000000
v 0.49028671 0.07389883 0.16701463
v 0.49028671 0.07389883 0.00000000
v 0.49028671 -0.07389883 0.16701463
v 0.49028671 -0.07389883 0.00000000
v 0.25000000 0.43301269 0.00417538
v 0.25000000 0.43301269 0.16283926
v 0.25000000 -0.43301269 0.00417538
v 0.25000000 -0.43301269 0.16283926
v -0.04576297 -0.11660215 -0.16283923
v -0.04576297 -0.11660215 0.16283926
v -0.04576297 0.11660215 -0.16283923
v -0.04576297 0.11660215 0.16283926
v 0.10088985 -0.22359486 -0.16701463
v 0.10088985 0.22359486 -0.16701463
v 0.12526096 0.00000000 -0.16283923
v 0.12526096 0.00000000 0.16283926
v 0.07555764 0.10509427 0.16701463
v 0.07555764 0.10509427 -0.16701463
v 0.07555764 -0.10509427 0.16701463
v 0.07555764 -0.10509427 -0.16701463
v 0.27127314 0.42001295 0.00417538
v 0.27127314 0.42001295 0.16283926
v 0.27127314 -0.42001295 0.00417538
v 0.27127314 -0.42001295 0.16283926
v 0.20564355 -0.45575291 0.00417538
v 0.20564355 -0.45575291 0.16283926
v 0.20564355 0.45575291 0.00417538
v 0.20564355 0.45575291 0.16283926
v 0.34620303 -0.35494444 0.16701463
v 0.34620303 -0.35494444 0.00000000
v 0.34620303 0.35494444 0.16701463
v 0.34620303 0.35494444 0.00000000
v 0.11126047 0.48746398 0.00417538
v 0.11126047 0.48746398 0.16283926
v 0.11126047 -0.48746398 0.00417538
v 0.11126047 -0.48746398 0.16283926
v -0.13308807 -0.20606065 -0.16701463
v -0.13308807 0.20606065 -0.16701463
v 0.07812564 0.23252916 -0.16701463
v 0.07812564 -0.23252916 -0.16701463
v 0.49520829 0.02471482 0.16701463
v 0.49520829 0.02471482 0.00000000
v 0.49520829 -0.02471482 0.16701463
v 0.49520829 -0.02471482 0.00000000
v 0.12163036 0.04426983 0.16701463
v 0.12163036 0.04426983 -0.16701463
v 0.12163036 -0.04426983 0.16701463
v 0.12163036 -0.04426983 -0.16701463
v 0.24669163 -0.03718278 -0.16283923
v 0.24669163 -0.03718278 0.00000000
v 0.24669163 0.03718278 -0.16283923
v 0.24669163 0.03718278 0.00000000
v -0.48453864 0.12337870 0.00417538
v -0.48453864 0.12337870 0.16283926
v -0.48453864 -0.12337870 0.00417538
v -0.48453864 -0.12337870 0.16283926
v 0.47778642 -0.14737760 0.00417538
v 0.47778642 -0.14737760 0.16283926
v 0.47778642 0.14737760 0.00417538
v 0.47778642 0.14737760 0.16283926
v -0.43911079 0.23912700 0.00417538
v -0.43911079 0.23912700 0.16283926
v -0.43911079 -0.23912700 0.00417538
v -0.43911079 -0.23912700 0.16283926
v 0.49937847 0.02492294 0.00417538
v 0.49937847 0.02492294 0.16283926
v 0.49937847 -0.02492294 0.00417538
v 0.49937847 -0.02492294 0.16283926
v -0.24916798 0.01243546 -0.16283923
v -0.24916798 0.01243546 0.00000000
v -0.24916798 -0.01243546 -0.16283923
v -0.24916798 -0.01243546 0.00000000
v 0.13542023 -0.48131216 0.00417538
v 0.13542023 -0.48131216 0.16283926
v 0.13542023 0.48131216 0.00417538
v 0.13542023 0.48131216 0.16283926
v 0.12879312 -0.01288770 0.16701463
v 0.12879312 -0.01288770 -0.16701463
v 0.12879312 0.01288770 0.16701463
v 0.12879312 0.01288770 -0.16701463
v 0.24530271 -0.00000000 -0.16701463
v 0.46592277 -0.16958202 0.16701463
v 0.46592277 -0.16958202 0.00000000
v 0.46592277 0.16958202 0.16701463
v 0.46592277 0.16958202 0.00000000
v 0.41311938 0.28166002 0.00417538
v 0.41311938 0.28166002 0.16283926
v 0.41311938 -0.28166002 0.00417538
v 0.41311938 -0.28166002 0.16283926
v -0.07312030 0.10170414 -0.16283923
v -0.07312030 0.10170414 0.16283926
v -0.07312030 -0.10170414 -0.16283923
v -0.07312030 -0.10170414 0.16283926
v 0.12686993 -0.02564731 0.16701463
v 0.12686993 -0.02564731 -0.16701463
v 0.12686993 0.02564731 0.16701463
v 0.12686993 0.02564731 -0.16701463
v -0.24499778 0.01222733 -0.16701463
v -0.24499778 -0.01222733 -0.16701463
v 0.18288037 -0.16968818 -0.16283923
v 0.18288037 -0.16968818 0.00000000
v 0.18288037 0.16968818 -0.16283923
v 0.18288037 0.16968818 0.00000000
v 0.06263048 -0.10847917 -0.16283923
v 0.06263048 -0.10847917 0.16283926
v 0.06263048 0.10847917 -0.16283923
v 0.06263048 0.10847917 0.16283926
v 0.12943633 -0.00000000 0.16701463
v 0.12943633 0.00000000 -0.16701463
v 0.10260712 0.22740074 -0.16283923
v 0.10260712 0.22740074 0.00000000
v 0.10260712 -0.22740074 -0.16283923
v 0.10260712 -0.22740074 0.00000000
v 0.19111131 0.16036142 -0.16283923
v 0.19111131 0.16036142 0.00000000
v 0.19111131 -0.16036142 -0.16283923
v 0.19111131 -0.16036142 0.00000000
v -0.12463851 -0.01247196 -0.16283923
v -0.12463851 -0.01247196 0.16283926
v -0.12463851 0.01247196 -0.16283923
v -0.12463851 0.01247196 0.16283926
v 0.10688403 0.06531548 -0.16283923
v 0.10688403 0.06531548 0.16283926
v 0.10688403 -0.06531548 -0.16283923
v 0.10688403 -0.06531548 0.16283926
v -0.09182278 0.08519910 -0.16283923
v -0.09182278 0.08519910 0.16283926
v -0.09182278 -0.08519910 -0.16283923
v -0.09182278 -0.08519910 0.16283926
v -0.05323549 -0.11798197 0.16701463
v -0.05323549 -0.11798197 -0.16701463
v -0.05323549 0.11798197 0.16701463
v -0.05323549 0.11798197 -0.16701463
v 0.23771730 0.06053026 -0.16701463
v 0.23771730 -0.06053026 -0.16701463
v 0.23440461 0.07230425 -0.16701463
v 0.23440461 -0.07230425 -0.16701463
v 0.11190972 0.21828797 -0.16701463
v 0.11190972 -0.21828797 -0.16701463
v -0.22810532 -0.44493592 0.00417538
v -0.22810532 -0.44493592 0.16283926
v -0.22810532 0.44493592 0.00417538
v -0.22810532 0.44493592 0.16283926
v 0.18267050 0.46543688 0.00417538
v 0.18267050 0.46543688 0.16283926
v 0.18267050 -0.46543688 0.00417538
v 0.18267050 -0.46543688 0.16283926
v 0.03505659 -0.12459855 0.16701463
v 0.03505659 -0.12459855 -0.16701463
v 0.03505659 0.12459855 0.16701463
v 0.03505659 0.12459855 -0.16701463
v -0.36652595 -0.34008640 0.00417538
v -0.36652595 -0.34008640 0.16283926
v -0.36652595 0.34008640 0.00417538
v -0.36652595 0.34008640 0.16283926
v 0.05151822 0.11417609 -0.16283923
v 0.05151822 0.11417609 0.16283926
v 0.05151822 -0.11417609 -0.16283923
v 0.05151822 -0.11417609 0.16283926
v 0.24947809 0.00000000 -0.16283923
v 0.24947809 0.00000000 0.00000000
v -0.11661810 0.05616032 0.16701463
v -0.11661810 0.05616032 -0.16701463
v -0.11661810 -0.05616032 0.16701463
v -0.11661810 -0.05616032 -0.16701463
v -0.18791279 0.15767755 -0.16701463
v -0.18791279 -0.15767755 -0.16701463
v 0.07022519 0.10872987 0.16701463
v 0.07022519 0.10872987 -0.16701463
v 0.07022519 -0.10872987 0.16701463
v 0.07022519 -0.10872987 -0.16701463
v 0.49008626 -0.09907307 0.00417538
v 0.49008626 -0.09907307 0.16283926
v 0.49008626 0.09907307 0.00417538
v 0.49008626 0.09907307 0.16283926
v -0.08070223 -0.10119740 0.16701463
v -0.08070223 -0.10119740 -0.16701463
v -0.08070223 0.10119740 0.16701463
v -0.08070223 0.10119740 -0.16701463
v 0.12473904 0.21605437 -0.16283923
v 0.12473904 0.21605437 0.00000000
v 0.12473904 -0.21605437 -0.16283923
v 0.12473904 -0.21605437 0.00000000
f 69 81 70
f 70 81 82
f 84 67 68
f 83 67 84
f 149 110 111
f 148 110 149
f 108 150 109
f 109 150 151
f 157 39 40
f 156 39 157
f 37 158 38
f 38 158 159
f 171 45 71
f 177 160 161
f 176 160 177
f 162 178 163
f 163 178 179
f 137 207 202
f 138 99 208
f 138 208 205
f 225 29 30
f 224 29 225
f 31 226 32
f 32 226 227
f 37 229 158
f 40 230 157
f 202 207 232
f 233 203 202
f 232 233 202
f 204 205 234
f 205 208 235
f 205 235 234
f 50 48 236
f 226 248 227
f 227 248 249
f 251 224 225
f 250 224 251
f 110 260 111
f 261 37 38
f 260 37 261
f 111 260 261
f 39 262 40
f 263 108 109
f 40 262 263
f 262 108 263
f 166 270 15
f 272 14 79
f 79 80 272
f 165 14 272
f 80 273 272
f 275 15 78
f 275 78 77
f 166 15 275
f 274 275 77
f 3 284 4
f 3 46 284
f 46 170 284
f 284 170 73
f 285 73 74
f 74 231 285
f 4 284 285
f 284 73 285
f 71 45 286
f 71 286 72
f 287 1 2
f 286 1 287
f 72 286 287
f 311 95 96
f 310 95 311
f 97 312 98
f 98 312 313
f 315 173 172
f 314 315 172
f 174 175 316
f 175 317 316
f 333 58 57
f 332 333 57
f 55 56 334
f 56 335 334
f 337 214 215
f 336 214 337
f 212 338 213
f 339 309 213
f 213 338 339
f 341 201 200
f 340 341 200
f 198 199 342
f 199 343 342
f 5 220 344
f 116 348 117
f 348 143 118
f 349 118 119
f 349 140 117
f 117 348 349
f 348 118 349
f 200 351 340
f 199 352 343
f 211 327 359
f 209 371 139
f 373 212 213
f 372 212 373
f 214 374 215
f 214 370 374
f 215 374 375
f 238 378 239
f 379 134 135
f 135 181 379
f 378 134 379
f 239 378 379
f 132 380 133
f 380 50 236
f 381 236 237
f 133 380 381
f 380 236 381
f 292 386 293
f 293 386 387
f 389 294 295
f 388 294 389
f 320 390 321
f 321 390 391
f 393 318 319
f 392 318 393
f 405 181 11
f 181 405 379
f 379 405 239
f 406 182 10
f 182 406 87
f 407 183 133
f 381 407 133
f 73 408 74
f 74 408 409
f 410 171 71
f 411 71 72
f 72 229 411
f 410 71 411
f 179 412 163
f 270 412 15
f 412 270 163
f 13 414 164
f 414 268 164
f 176 415 160
f 415 269 160
f 159 416 38
f 228 416 159
f 417 229 37
f 260 417 37
f 229 417 411
f 418 230 40
f 263 418 40
f 156 419 39
f 419 231 74
f 231 419 156
f 409 419 74
f 81 424 82
f 425 153 82
f 82 424 425
f 427 83 84
f 426 83 427
f 140 428 75
f 142 428 119
f 119 428 349
f 428 140 349
f 141 429 116
f 143 429 24
f 116 429 348
f 429 143 348
f 435 144 36
f 278 436 44
f 277 439 41
f 257 441 191
f 445 190 191
f 191 441 445
f 444 190 445
f 188 446 189
f 189 446 447
f 448 220 251
f 225 448 251
f 220 448 344
f 449 221 303
f 450 222 7
f 346 450 7
f 451 223 248
f 226 451 248
f 310 453 95
f 313 454 98
f 460 371 209
f 372 460 212
f 371 460 372
f 336 461 214
f 461 370 214
f 282 464 467
f 281 463 468
f 29 470 30
f 30 470 471
f 473 31 32
f 472 31 473
f 210 474 353
f 17 475 351
f 165 480 14
f 192 480 165
f 441 483 445
f 485 443 189
f 447 485 189
f 190 486 191
f 487 257 191
f 487 388 389
f 191 486 487
f 486 388 487
f 386 488 387
f 489 188 189
f 489 259 387
f 189 443 489
f 443 259 489
f 488 188 489
f 387 488 489
f 388 490 294
f 493 89 301
f 493 301 300
f 492 493 300
f 494 88 298
f 298 299 494
f 299 495 494
f 302 496 303
f 497 449 303
f 303 496 497
f 305 223 499
f 499 304 305
f 223 451 499
f 498 304 499
f 500 454 313
f 97 501 312
f 455 501 97
f 96 502 311
f 452 502 96
f 503 453 310
f 244 245 504
f 492 90 504
f 505 493 492
f 245 505 504
f 504 505 492
f 494 495 506
f 507 247 246
f 495 87 507
f 506 507 246
f 495 507 506
f 422 508 383
f 421 511 384
f 124 100 512
f 124 512 125
f 125 512 513
f 127 101 515
f 515 126 127
f 514 126 515
f 477 465 516
f 478 462 519
f 77 78 520
f 521 28 27
f 520 521 27
f 78 521 520
f 25 26 522
f 523 80 79
f 26 523 522
f 522 523 79
f 142 524 104
f 143 525 118
f 140 526 117
f 180 526 106
f 527 181 135
f 112 528 113
f 113 528 529
f 530 86 114
f 531 114 115
f 530 114 531
f 227 532 32
f 472 533 31
f 471 534 30
f 224 535 29
f 316 317 536
f 317 537 536
f 539 315 314
f 538 539 314
f 160 542 161
f 160 269 542
f 543 414 161
f 268 414 543
f 161 542 543
f 544 413 162
f 271 413 544
f 545 162 163
f 163 270 545
f 544 162 545
f 53 546 175
f 175 546 317
f 52 549 172
f 172 549 314
f 550 101 127
f 102 551 514
f 514 551 126
f 552 99 138
f 99 552 513
f 513 552 125
f 553 100 124
f 555 333 332
f 5 344 555
f 555 344 333
f 554 555 332
f 334 335 556
f 8 347 556
f 556 347 334
f 335 557 556
f 563 66 65
f 562 563 65
f 63 64 564
f 64 565 564
f 294 566 295
f 566 296 240
f 567 240 241
f 566 240 567
f 295 566 567
f 242 568 243
f 568 491 292
f 569 292 293
f 243 568 569
f 568 292 569
f 571 376 559
f 464 282 578
f 366 367 580
f 367 576 581
f 367 581 580
f 368 579 582
f 583 369 368
f 582 583 368
f 584 398 573
f 586 400 19
f 587 401 574
f 547 588 54
f 210 326 590
f 211 475 592
f 594 534 471
f 29 595 470
f 535 595 29
f 32 596 473
f 532 596 32
f 597 533 472
f 337 307 599
f 599 336 337
f 598 336 599
f 338 600 339
f 339 600 601
f 468 463 602
f 468 602 469
f 463 479 602
f 602 479 518
f 462 280 603
f 603 280 469
f 519 462 603
f 603 518 519
f 469 602 603
f 602 518 603
f 465 283 604
f 604 283 466
f 516 465 604
f 516 604 517
f 467 464 605
f 605 466 467
f 464 476 605
f 605 476 517
f 604 466 605
f 517 604 605
f 563 606 66
f 564 609 63
f 612 278 53
f 436 278 612
f 144 614 36
f 431 615 34
f 34 615 433
f 615 145 433
f 304 616 305
f 616 147 396
f 617 396 397
f 305 616 617
f 616 396 617
f 394 618 395
f 303 221 619
f 619 302 303
f 618 302 619
f 395 618 619
f 620 326 361
f 624 256 356
f 440 256 624
f 147 626 396
f 276 438 628
f 610 276 628
f 146 627 629
f 629 627 611
f 630 436 612
f 120 632 121
f 120 187 632
f 121 632 633
f 635 122 123
f 123 184 635
f 634 122 635
f 19 636 217
f 19 400 636
f 359 637 216
f 359 327 637
f 637 621 20
f 327 621 637
f 360 184 638
f 360 638 219
f 22 639 218
f 639 620 361
f 502 452 640
f 371 646 139
f 47 647 137
f 137 647 207
f 647 370 207
f 370 647 374
f 542 648 543
f 649 268 543
f 543 648 649
f 650 271 544
f 651 544 545
f 650 544 651
f 654 154 422
f 660 662 661
f 661 662 663
f 665 658 659
f 664 658 665
f 667 253 288
f 668 254 291
f 255 296 669
f 122 672 123
f 122 399 672
f 399 585 672
f 672 585 572
f 573 398 673
f 673 572 573
f 123 672 673
f 672 572 673
f 574 401 674
f 574 674 575
f 675 120 121
f 121 400 675
f 400 586 675
f 675 586 575
f 674 120 675
f 575 674 675
f 678 324 196
f 624 356 681
f 623 355 682
f 256 684 356
f 684 256 365
f 685 257 487
f 389 685 487
f 686 258 622
f 354 686 622
f 687 259 362
f 259 687 387
f 387 687 293
f 475 17 688
f 592 475 688
f 592 688 593
f 593 688 689
f 474 210 690
f 690 210 590
f 691 590 591
f 690 590 691
f 297 694 242
f 694 297 253
f 242 694 568
f 694 491 568
f 667 694 253
f 491 694 667
f 490 695 294
f 294 695 566
f 695 296 566
f 296 695 669
f 67 696 68
f 697 503 68
f 453 503 697
f 68 696 697
f 699 69 70
f 698 69 699
f 283 701 466
f 280 702 469
f 702 280 576
f 368 369 704
f 705 329 328
f 369 578 705
f 704 705 328
f 369 705 704
f 330 331 706
f 366 577 706
f 707 367 366
f 331 707 706
f 706 707 366
f 87 406 708
f 87 708 507
f 507 708 247
f 48 50 709
f 709 50 88
f 709 88 494
f 506 709 494
f 710 89 493
f 505 710 493
f 90 711 504
f 504 711 244
f 486 716 388
f 490 716 357
f 716 490 388
f 357 716 625
f 292 717 386
f 491 717 292
f 280 462 718
f 576 280 718
f 576 718 581
f 719 577 366
f 580 719 366
f 719 692 577
f 476 464 720
f 720 578 369
f 720 464 578
f 583 720 369
f 579 721 582
f 118 722 119
f 118 525 722
f 525 183 722
f 723 142 119
f 524 142 723
f 119 722 723
f 724 141 116
f 527 141 724
f 725 116 117
f 117 526 725
f 526 180 725
f 724 116 725
f 11 726 12
f 11 181 726
f 181 527 726
f 726 527 724
f 727 404 12
f 180 404 727
f 725 180 727
f 727 724 725
f 12 726 727
f 726 724 727
f 728 407 9
f 183 407 728
f 722 183 728
f 722 728 723
f 729 9 10
f 10 182 729
f 182 524 729
f 729 524 723
f 728 9 729
f 723 728 729
f 345 730 6
f 302 730 496
f 540 730 345
f 730 540 496
f 333 732 58
f 344 732 333
f 344 448 732
f 733 540 345
f 402 540 733
f 332 733 554
f 733 345 554
f 335 734 557
f 734 346 557
f 334 735 55
f 347 735 334
f 347 731 735
f 731 541 735
f 248 223 736
f 248 736 249
f 222 450 737
f 737 450 249
f 249 736 737
f 221 449 738
f 738 449 250
f 251 220 739
f 739 250 251
f 738 250 739
f 392 741 318
f 742 86 530
f 742 377 561
f 85 743 112
f 112 743 528
f 743 376 528
f 743 85 607
f 341 744 201
f 744 350 201
f 358 186 744
f 358 744 341
f 351 745 340
f 745 211 359
f 475 211 745
f 351 475 745
f 352 746 343
f 326 210 747
f 342 747 198
f 747 353 198
f 747 210 353
f 361 326 747
f 361 747 342
f 95 752 96
f 753 452 96
f 96 752 753
f 754 455 97
f 755 97 98
f 754 97 755
f 15 756 78
f 15 412 756
f 78 756 521
f 757 16 274
f 77 757 274
f 758 13 273
f 80 758 273
f 14 759 79
f 79 759 522
f 286 760 1
f 45 760 286
f 761 46 3
f 757 761 16
f 46 761 757
f 33 762 331
f 331 762 707
f 763 431 34
f 671 431 763
f 36 765 328
f 36 614 765
f 614 430 765
f 328 765 704
f 212 766 338
f 460 766 212
f 767 461 336
f 598 767 336
f 461 767 749
f 480 192 768
f 413 271 771
f 444 772 190
f 488 773 188
f 521 774 28
f 756 774 521
f 170 46 775
f 520 775 77
f 775 46 757
f 775 757 77
f 523 776 80
f 776 758 80
f 522 777 25
f 759 777 522
f 760 45 777
f 759 760 777
f 778 140 75
f 778 75 169
f 106 526 778
f 526 140 778
f 76 103 779
f 780 142 104
f 75 428 780
f 428 142 780
f 781 76 168
f 105 644 781
f 327 211 786
f 786 211 592
f 787 592 593
f 786 592 787
f 590 326 788
f 590 788 591
f 326 620 788
f 789 185 591
f 591 788 789
f 510 790 420
f 500 790 510
f 501 791 312
f 70 791 699
f 791 501 699
f 502 792 311
f 68 793 84
f 503 793 68
f 600 794 601
f 501 455 795
f 795 455 601
f 699 501 795
f 795 698 699
f 601 794 795
f 794 698 795
f 696 796 697
f 797 598 599
f 797 453 697
f 796 598 797
f 697 796 797
f 798 171 410
f 798 144 435
f 170 799 73
f 73 799 408
f 799 145 408
f 99 800 208
f 100 801 512
f 802 101 136
f 206 802 136
f 101 802 515
f 102 803 375
f 375 803 215
f 288 289 804
f 804 667 288
f 289 252 805
f 252 666 805
f 289 805 804
f 290 255 806
f 255 669 806
f 807 291 290
f 807 668 291
f 806 807 290
f 808 354 683
f 809 491 667
f 355 717 809
f 717 491 809
f 809 667 804
f 356 684 810
f 810 668 807
f 811 490 357
f 811 357 680
f 695 490 811
f 669 695 811
f 512 812 513
f 512 801 812
f 813 99 513
f 813 712 713
f 800 99 813
f 713 800 813
f 513 812 813
f 812 712 813
f 814 102 514
f 714 814 715
f 803 102 814
f 714 803 814
f 815 514 515
f 515 802 815
f 814 514 815
f 715 814 815
f 50 816 88
f 816 50 380
f 132 816 380
f 49 817 238
f 238 817 378
f 817 49 711
f 90 817 711
f 283 465 819
f 479 463 821
f 168 76 822
f 76 779 822
f 823 169 168
f 106 778 823
f 823 778 169
f 822 823 168
f 168 169 824
f 105 781 824
f 824 781 168
f 169 75 825
f 75 780 825
f 169 825 824
f 826 180 106
f 89 826 301
f 89 404 826
f 404 180 826
f 107 827 300
f 827 90 492
f 300 827 492
f 107 645 827
f 828 182 87
f 104 828 299
f 828 87 495
f 299 828 495
f 104 524 828
f 524 182 828
f 88 829 298
f 88 816 829
f 831 459 458
f 830 831 458
f 456 457 832
f 457 833 832
f 324 834 196
f 325 835 128
f 322 836 131
f 194 836 676
f 836 322 676
f 391 837 321
f 323 837 391
f 171 798 839
f 839 798 435
f 230 418 840
f 840 418 432
f 433 145 841
f 145 799 841
f 736 842 737
f 843 222 737
f 737 842 843
f 844 221 738
f 845 738 739
f 844 738 845
f 81 846 424
f 653 846 421
f 846 656 424
f 656 846 653
f 848 36 328
f 328 329 848
f 435 36 848
f 764 35 849
f 329 764 849
f 329 849 848
f 763 34 850
f 330 763 850
f 851 33 331
f 851 331 330
f 432 33 851
f 850 851 330
f 154 852 422
f 422 852 508
f 852 792 508
f 84 853 427
f 853 155 427
f 793 853 84
f 854 152 652
f 420 854 652
f 790 854 420
f 82 855 70
f 153 855 82
f 855 791 70
f 134 856 135
f 134 645 856
f 857 527 135
f 141 527 857
f 135 856 857
f 859 132 133
f 133 183 859
f 183 525 859
f 858 132 859
f 660 861 662
f 659 862 665
f 529 863 113
f 629 611 864
f 51 610 865
f 54 613 866
f 630 612 867
f 868 477 516
f 784 868 785
f 869 516 517
f 868 516 869
f 785 868 869
f 518 870 519
f 871 478 519
f 871 782 783
f 519 870 871
f 870 782 871
f 572 872 573
f 873 584 573
f 573 872 873
f 874 587 574
f 875 574 575
f 874 574 875
f 877 17 351
f 877 351 200
f 403 17 877
f 878 352 199
f 878 594 352
f 534 594 878
f 474 18 879
f 353 474 879
f 197 679 880
f 194 676 883
f 594 884 352
f 352 884 746
f 595 885 470
f 596 886 473
f 350 886 876
f 886 596 876
f 689 887 593
f 597 887 689
f 424 888 425
f 656 193 888
f 424 656 888
f 425 888 889
f 890 847 426
f 657 847 890
f 427 155 891
f 891 426 427
f 890 426 891
f 880 679 892
f 893 881 880
f 892 893 880
f 882 883 894
f 883 676 895
f 883 895 894
f 670 896 579
f 579 896 721
f 896 693 721
f 693 896 818
f 692 897 577
f 430 614 898
f 431 671 900
f 38 902 261
f 416 902 38
f 902 416 838
f 434 902 838
f 110 903 260
f 903 417 260
f 109 904 263
f 904 418 263
f 432 904 33
f 418 904 432
f 39 905 262
f 419 905 39
f 905 419 409
f 906 147 616
f 304 906 616
f 146 907 394
f 394 907 618
f 476 908 517
f 517 908 869
f 477 909 241
f 241 909 567
f 909 477 868
f 784 909 868
f 478 910 252
f 252 910 666
f 910 478 871
f 783 910 871
f 479 911 518
f 518 911 870
f 794 912 698
f 67 913 696
f 312 914 313
f 312 791 914
f 791 855 914
f 915 500 313
f 790 500 915
f 313 914 915
f 916 503 310
f 793 503 916
f 917 310 311
f 311 792 917
f 792 852 917
f 916 310 917
f 364 918 365
f 919 684 365
f 919 784 785
f 365 918 919
f 918 784 919
f 920 687 362
f 782 920 783
f 921 362 363
f 920 362 921
f 783 920 921
f 666 922 808
f 910 922 666
f 922 910 783
f 921 922 783
f 569 923 243
f 870 923 782
f 923 911 243
f 911 923 870
f 668 924 254
f 869 924 785
f 924 908 254
f 908 924 869
f 567 925 295
f 909 925 567
f 925 909 784
f 918 925 784
f 22 926 639
f 926 620 639
f 621 927 20
f 928 8 556
f 556 557 928
f 929 7 92
f 929 92 91
f 346 7 929
f 557 346 929
f 928 929 91
f 557 929 928
f 930 6 93
f 93 94 930
f 345 6 930
f 554 345 930
f 931 5 555
f 931 555 554
f 94 931 930
f 930 931 554
f 186 932 744
f 744 932 350
f 932 886 350
f 187 933 632
f 933 187 787
f 593 933 787
f 887 933 593
f 934 184 360
f 184 934 635
f 746 934 360
f 884 934 746
f 185 935 591
f 591 935 691
f 935 885 691
f 937 153 425
f 889 937 425
f 938 154 654
f 155 939 891
f 144 798 940
f 940 798 410
f 941 410 411
f 411 417 941
f 417 903 941
f 940 410 941
f 408 145 942
f 408 942 409
f 145 615 942
f 943 905 409
f 409 942 943
f 261 944 111
f 35 944 434
f 902 944 261
f 944 902 434
f 148 945 110
f 945 903 110
f 151 946 109
f 33 946 762
f 904 946 33
f 946 904 109
f 262 947 108
f 905 947 262
f 947 905 943
f 161 948 177
f 948 414 13
f 414 948 161
f 758 948 13
f 2 949 287
f 415 949 2
f 949 415 176
f 950 412 179
f 412 950 756
f 756 950 774
f 162 951 178
f 413 951 162
f 315 952 173
f 442 484 952
f 952 548 173
f 952 484 548
f 314 953 538
f 549 953 314
f 549 589 953
f 317 954 537
f 546 954 317
f 316 955 174
f 955 547 174
f 190 956 486
f 956 716 486
f 716 956 625
f 772 956 190
f 386 957 488
f 623 957 355
f 957 717 355
f 717 957 386
f 957 773 488
f 773 957 623
f 496 960 497
f 540 402 960
f 496 540 960
f 497 960 961
f 962 731 498
f 541 731 962
f 499 451 963
f 963 498 499
f 962 498 963
f 732 964 58
f 964 534 878
f 57 965 332
f 18 402 965
f 965 733 332
f 965 402 733
f 879 18 965
f 879 965 57
f 56 966 335
f 596 532 966
f 966 734 335
f 966 532 734
f 876 966 56
f 876 596 966
f 541 403 967
f 735 967 55
f 735 541 967
f 967 403 877
f 968 482 954
f 546 968 954
f 548 970 51
f 484 970 548
f 971 485 447
f 974 436 630
f 437 975 397
f 397 975 617
f 446 976 447
f 446 589 976
f 977 971 447
f 447 976 977
f 979 444 445
f 445 483 979
f 483 969 979
f 978 444 979
f 324 980 129
f 980 324 678
f 323 983 130
f 69 984 81
f 421 984 511
f 984 846 81
f 846 984 421
f 426 985 83
f 423 985 655
f 847 985 426
f 985 847 655
f 986 308 750
f 986 800 713
f 309 987 213
f 213 987 373
f 987 309 712
f 987 801 373
f 812 987 712
f 801 987 812
f 988 306 715
f 988 802 206
f 815 988 715
f 802 988 815
f 215 989 337
f 989 307 337
f 803 989 215
f 989 803 714
f 990 761 3
f 770 990 771
f 991 3 4
f 991 413 771
f 4 951 991
f 951 413 991
f 990 3 991
f 771 990 991
f 1 992 2
f 992 480 768
f 993 415 2
f 269 415 993
f 769 269 993
f 993 768 769
f 2 992 993
f 992 768 993
f 236 48 994
f 236 994 237
f 48 646 994
f 100 553 995
f 995 553 237
f 237 994 995
f 47 49 996
f 996 49 238
f 997 238 239
f 996 238 997
f 671 897 998
f 900 671 998
f 900 998 901
f 281 703 999
f 999 703 901
f 901 998 999
f 670 430 1000
f 1000 430 898
f 1001 898 899
f 1000 898 1001
f 200 201 1002
f 1002 877 200
f 55 967 1002
f 967 877 1002
f 1003 56 55
f 201 350 1003
f 1003 876 56
f 350 876 1003
f 1002 1003 55
f 201 1003 1002
f 57 58 1004
f 198 353 1004
f 1004 879 57
f 353 879 1004
f 1005 199 198
f 1005 878 199
f 58 964 1005
f 964 878 1005
f 58 1005 1004
f 1004 1005 198
f 325 981 1007
f 570 377 1008
f 378 1010 134
f 1010 645 134
f 1010 817 90
f 817 1010 378
f 827 1010 90
f 645 1010 827
f 1011 644 105
f 1011 816 132
f 829 1011 105
f 816 1011 829
f 858 1011 132
f 644 1011 858
f 1012 740 320
f 1013 320 321
f 1012 320 1013
f 318 1014 319
f 1015 587 319
f 401 587 1015
f 319 1014 1015
f 741 1016 318
f 318 1016 1014
f 1016 927 1014
f 1017 926 22
f 1017 740 1012
f 682 355 1018
f 804 805 1018
f 355 809 1018
f 1018 809 804
f 1019 683 682
f 805 666 1019
f 666 808 1019
f 1019 808 683
f 1018 1019 682
f 805 1019 1018
f 680 681 1020
f 806 669 1020
f 669 811 1020
f 1020 811 680
f 681 356 1021
f 1021 807 806
f 356 810 1021
f 1021 810 807
f 681 1021 1020
f 1020 1021 806
f 150 1022 151
f 1022 281 468
f 150 703 1022
f 703 281 1022
f 1023 468 469
f 469 702 1023
f 151 1022 1023
f 1022 468 1023
f 466 1024 467
f 466 701 1024
f 1025 148 149
f 1025 282 467
f 149 700 1025
f 700 282 1025
f 1024 148 1025
f 467 1024 1025
f 640 1026 60
f 640 452 1026
f 749 1027 59
f 749 767 1027
f 750 1028 62
f 750 308 1028
f 643 1029 61
f 1030 576 367
f 1030 702 576
f 707 1030 367
f 762 1030 707
f 706 1031 330
f 577 1031 706
f 1031 763 330
f 1031 671 763
f 577 897 1031
f 897 671 1031
f 578 282 1032
f 282 700 1032
f 705 1032 329
f 578 1032 705
f 1032 764 329
f 1032 700 764
f 1033 579 368
f 430 670 1033
f 1033 670 579
f 704 1033 368
f 765 430 1033
f 765 1033 704
f 1034 502 640
f 792 502 1034
f 508 792 1034
f 1035 509 382
f 1035 913 509
f 454 500 1036
f 1036 510 385
f 1036 500 510
f 642 454 1036
f 1037 912 643
f 652 152 1040
f 831 1040 459
f 652 1040 831
f 152 936 1040
f 193 656 1041
f 1041 656 653
f 1042 938 654
f 832 1043 456
f 655 1043 832
f 655 847 1043
f 847 657 1043
f 59 1027 1044
f 1027 641 1044
f 1045 60 59
f 1045 640 60
f 1034 640 1045
f 1044 1045 59
f 61 62 1046
f 1046 643 61
f 1037 643 1046
f 62 1028 1047
f 1028 642 1047
f 62 1047 1046
f 621 327 1048
f 1048 327 786
f 787 187 1049
f 1049 786 787
f 1048 786 1049
f 788 620 1050
f 788 1050 789
f 620 926 1050
f 789 1050 1051
f 1041 653 1052
f 830 1041 1052
f 420 652 1053
f 1053 652 831
f 1053 831 830
f 1052 1053 830
f 423 655 1054
f 1054 655 832
f 832 833 1054
f 1042 654 1055
f 833 1042 1055
f 833 1055 1054
f 536 537 1056
f 357 625 1056
f 1056 625 536
f 680 357 1056
f 1057 624 681
f 1057 681 680
f 537 1057 1056
f 1056 1057 680
f 1058 623 682
f 682 683 1058
f 1059 539 538
f 354 622 1059
f 1059 622 539
f 683 354 1059
f 1058 1059 538
f 683 1059 1058
f 338 1060 600
f 766 1060 338
f 1060 766 751
f 1029 1060 751
f 1061 767 598
f 796 1061 598
f 1027 1061 641
f 767 1061 1027
f 552 1062 125
f 406 1062 708
f 237 1063 381
f 407 1063 9
f 1063 407 381
f 553 1063 237
f 404 1064 12
f 1064 404 89
f 710 1064 89
f 550 1064 710
f 405 1065 239
f 551 1065 126
f 239 1065 997
f 1065 551 997
f 374 1066 375
f 647 47 1066
f 374 647 1066
f 1066 47 996
f 1067 102 375
f 551 102 1067
f 997 551 1067
f 1067 996 997
f 375 1066 1067
f 1066 996 1067
f 1068 371 372
f 646 371 1068
f 994 646 1068
f 994 1068 995
f 1069 372 373
f 801 100 1069
f 373 801 1069
f 1069 100 995
f 1068 372 1069
f 995 1068 1069
f 34 433 1070
f 850 34 1070
f 840 432 1071
f 1071 432 851
f 1071 851 850
f 1070 1071 850
f 839 435 1072
f 1072 435 848
f 848 849 1072
f 35 434 1073
f 849 35 1073
f 849 1073 1072
f 1074 597 472
f 887 597 1074
f 1075 472 473
f 473 886 1075
f 886 932 1075
f 1074 472 1075
f 470 1076 471
f 470 885 1076
f 885 935 1076
f 1077 594 471
f 884 594 1077
f 471 1076 1077
f 1078 186 358
f 1078 400 121
f 633 1078 121
f 186 1078 633
f 636 1078 358
f 400 1078 636
f 1079 187 120
f 674 1079 120
f 401 1079 674
f 187 1079 1049
f 1080 184 123
f 1080 398 21
f 638 1080 21
f 184 1080 638
f 673 1080 123
f 398 1080 673
f 1081 399 122
f 634 1081 122
f 185 1081 634
f 1081 185 789
f 399 1081 1051
f 1051 1081 789
f 193 481 1082
f 1082 481 770
f 888 193 1082
f 888 1082 889
f 771 271 1083
f 1083 770 771
f 1082 770 1083
f 889 1082 1083
f 192 657 1084
f 768 192 1084
f 768 1084 769
f 1084 657 890
f 1085 890 891
f 891 939 1085
f 769 1084 1085
f 1084 890 1085
f 1086 561 894
f 894 895 1086
f 1087 64 63
f 1087 560 64
f 1086 1087 63
f 895 1087 1086
f 65 66 1088
f 1088 559 65
f 1089 558 893
f 1089 893 892
f 66 1089 1088
f 1088 1089 892
f 296 1090 240
f 1090 296 255
f 1091 692 719
f 692 1091 820
f 1092 692 820
f 897 692 1092
f 998 897 1092
f 998 1092 999
f 463 281 1093
f 821 463 1093
f 1093 820 821
f 1093 281 999
f 1092 820 1093
f 999 1092 1093
f 818 1094 819
f 896 670 1094
f 818 896 1094
f 1094 670 1000
f 701 283 1095
f 1095 283 819
f 1001 701 1095
f 1095 1000 1001
f 819 1094 1095
f 1094 1000 1095
f 288 253 1096
f 580 581 1096
f 1097 289 288
f 581 718 1097
f 1096 1097 288
f 581 1097 1096
f 290 291 1098
f 582 721 1098
f 291 254 1099
f 1099 583 582
f 291 1099 1098
f 1098 1099 582
f 439 277 1101
f 1104 686 354
f 686 1104 363
f 808 1104 354
f 363 1104 921
f 922 1104 808
f 1104 922 921
f 293 1105 569
f 687 1105 293
f 1105 687 920
f 782 1105 920
f 1105 923 569
f 923 1105 782
f 810 1106 668
f 684 1106 810
f 1106 684 919
f 785 1106 919
f 1106 924 668
f 924 1106 785
f 295 1107 389
f 685 1107 364
f 1107 685 389
f 364 1107 918
f 925 1107 295
f 1107 925 918
f 230 1108 157
f 950 1108 774
f 285 1109 4
f 231 1109 285
f 1109 951 4
f 951 1109 178
f 228 1110 776
f 776 1110 758
f 948 1110 177
f 1110 948 758
f 1111 229 72
f 229 1111 158
f 287 1111 72
f 949 1111 287
f 91 92 1112
f 92 1113 1112
f 1115 94 93
f 1114 1115 93
f 1116 222 843
f 1117 223 305
f 617 1117 305
f 223 1117 736
f 736 1117 842
f 975 1117 617
f 1117 975 842
f 1118 220 5
f 220 1118 739
f 739 1118 845
f 1118 972 845
f 221 1119 619
f 619 1119 395
f 1119 221 844
f 1119 973 395
f 209 139 1120
f 204 209 1120
f 1120 139 246
f 246 247 1120
f 1121 138 205
f 1121 205 204
f 1120 1121 204
f 247 1121 1120
f 1122 137 202
f 202 203 1122
f 206 136 1123
f 203 206 1123
f 1123 136 245
f 1123 245 244
f 203 1123 1122
f 1122 1123 244
f 483 441 1124
f 482 968 1125
f 485 971 1126
f 484 442 1127
f 111 1128 149
f 1128 700 149
f 764 1128 35
f 700 1128 764
f 1128 944 35
f 944 1128 111
f 1129 945 148
f 945 1129 899
f 1129 701 1001
f 899 1129 1001
f 1024 1129 148
f 701 1129 1024
f 1130 946 151
f 946 1130 762
f 1023 1130 151
f 702 1130 1023
f 1130 702 1030
f 762 1130 1030
f 108 1131 150
f 1131 703 150
f 703 1131 901
f 947 1131 108
f 1132 252 289
f 1132 478 252
f 462 478 1132
f 718 462 1132
f 1097 1132 289
f 718 1132 1097
f 253 297 1133
f 1133 719 580
f 297 1091 1133
f 1133 1091 719
f 253 1133 1096
f 1096 1133 580
f 1134 476 720
f 1134 720 583
f 254 908 1134
f 908 476 1134
f 254 1134 1099
f 1099 1134 583
f 1135 255 290
f 721 693 1135
f 1135 1090 255
f 693 1090 1135
f 1098 1135 290
f 721 1135 1098
f 648 1136 649
f 939 155 1136
f 648 939 1136
f 649 1136 1137
f 1139 650 651
f 936 152 1139
f 651 936 1139
f 1138 650 1139
f 1140 197 880
f 880 881 1140
f 1141 196 267
f 1141 267 266
f 678 196 1141
f 881 678 1141
f 1140 1141 266
f 881 1141 1140
f 1142 195 264
f 264 265 1142
f 677 195 1142
f 882 677 1142
f 1143 194 883
f 1143 883 882
f 265 1143 1142
f 1142 1143 882
f 240 1144 241
f 1144 693 818
f 240 1090 1144
f 1090 693 1144
f 1145 477 241
f 465 477 1145
f 819 465 1145
f 1145 818 819
f 241 1144 1145
f 1144 818 1145
f 1146 297 242
f 820 1146 821
f 1091 297 1146
f 820 1091 1146
f 1147 242 243
f 1147 479 821
f 243 911 1147
f 911 479 1147
f 1146 242 1147
f 821 1146 1147
f 390 1148 391
f 1148 570 1008
f 1149 323 391
f 983 323 1149
f 1009 983 1149
f 1149 1008 1009
f 391 1148 1149
f 1148 1008 1149
f 1006 1150 1007
f 1151 392 393
f 835 325 1151
f 393 835 1151
f 1151 325 1007
f 1150 392 1151
f 1007 1150 1151
f 637 20 1152
f 216 637 1152
f 1153 19 217
f 1153 217 216
f 1152 1153 216
f 1154 22 218
f 218 219 1154
f 638 21 1155
f 219 638 1155
f 219 1155 1154
f 278 1156 53
f 53 1156 546
f 1156 968 546
f 279 1157 43
f 1157 279 1103
f 276 1158 42
f 51 1158 610
f 1158 276 610
f 970 1158 51
f 1159 971 977
f 153 937 1160
f 1160 937 1138
f 152 854 1161
f 1139 152 1161
f 1161 1138 1139
f 1160 1138 1161
f 155 853 1162
f 1136 155 1162
f 1136 1162 1137
f 154 938 1163
f 1163 938 1137
f 1137 1162 1163
f 1164 270 166
f 270 1164 545
f 545 1164 651
f 1164 936 651
f 1165 271 650
f 1165 937 889
f 271 1165 1083
f 1083 1165 889
f 1138 1165 650
f 937 1165 1138
f 1166 268 649
f 1166 938 1042
f 1137 1166 649
f 938 1166 1137
f 269 1167 542
f 542 1167 648
f 1167 269 769
f 1167 939 648
f 1085 1167 769
f 939 1167 1085
f 59 60 1168
f 1168 749 59
f 1169 233 232
f 1169 748 233
f 60 1026 1169
f 1026 748 1169
f 60 1169 1168
f 1168 1169 232
f 234 235 1170
f 1170 751 234
f 61 1029 1170
f 1029 751 1170
f 1171 62 61
f 1171 750 62
f 1170 1171 61
f 235 1171 1170
f 926 1017 1172
f 1172 1017 1012
f 1050 926 1172
f 1050 1172 1051
f 585 399 1173
f 1013 585 1173
f 1173 1012 1013
f 1173 399 1051
f 1172 1012 1173
f 1051 1172 1173
f 927 621 1174
f 1014 927 1174
f 1014 1174 1015
f 1174 621 1048
f 1175 401 1015
f 1175 1048 1049
f 1079 401 1175
f 1049 1079 1175
f 1015 1174 1175
f 1174 1048 1175
f 600 1176 794
f 912 1176 643
f 1176 912 794
f 643 1176 1029
f 1060 1176 600
f 1176 1060 1029
f 696 1177 796
f 913 1177 696
f 641 1177 1035
f 1177 913 1035
f 1061 1177 641
f 1177 1061 796
f 1178 586 19
f 1178 19 1153
f 20 927 1179
f 927 1016 1179
f 21 398 1180
f 398 584 1180
f 1181 1017 22
f 740 1017 1181
f 1181 22 1154
f 266 267 1182
f 1152 20 1182
f 20 1179 1182
f 1182 1179 266
f 1183 1153 1152
f 1183 1178 1153
f 267 1183 1182
f 1182 1183 1152
f 1154 1155 1184
f 1184 1181 1154
f 1185 265 264
f 1155 21 1185
f 21 1180 1185
f 1185 1180 265
f 1184 1185 264
f 1155 1185 1184
f 384 511 1186
f 511 1037 1186
f 1186 1037 1046
f 1046 1047 1186
f 1187 385 384
f 1187 1036 385
f 642 1036 1187
f 1047 642 1187
f 1186 1187 384
f 1047 1187 1186
f 382 383 1188
f 1188 1035 382
f 641 1035 1188
f 1044 641 1188
f 383 508 1189
f 508 1034 1189
f 1189 1034 1045
f 1189 1045 1044
f 383 1189 1188
f 1188 1189 1044
f 1190 552 138
f 708 1190 247
f 1062 552 1190
f 708 1062 1190
f 1190 138 1121
f 247 1190 1121
f 139 1191 246
f 246 1191 506
f 646 48 1191
f 139 646 1191
f 1191 48 709
f 1191 709 506
f 136 101 1192
f 136 1192 245
f 245 1192 505
f 101 550 1192
f 1192 710 505
f 1192 550 710
f 49 47 1193
f 1193 47 137
f 711 49 1193
f 711 1193 244
f 1193 137 1122
f 244 1193 1122
f 8 1194 347
f 498 1194 304
f 1194 731 347
f 731 1194 498
f 906 1194 8
f 1194 906 304
f 618 1195 302
f 730 1195 6
f 1195 730 302
f 907 1195 618
f 615 431 1196
f 1196 431 900
f 942 615 1196
f 942 1196 943
f 1197 900 901
f 1197 947 943
f 901 1131 1197
f 1131 947 1197
f 1196 900 1197
f 943 1196 1197
f 614 144 1198
f 898 614 1198
f 898 1198 899
f 1198 144 940
f 941 903 1199
f 1199 940 941
f 1199 945 899
f 903 945 1199
f 899 1198 1199
f 1198 940 1199
f 454 1200 98
f 1200 454 642
f 98 1200 755
f 1200 308 755
f 308 1200 1028
f 1028 1200 642
f 1201 309 339
f 601 1201 339
f 455 1201 601
f 1201 455 754
f 1202 306 748
f 1202 452 753
f 452 1202 1026
f 1026 1202 748
f 453 1203 95
f 307 1203 599
f 95 1203 752
f 1203 307 752
f 1203 453 797
f 599 1203 797
f 862 1204 558
f 1204 862 659
f 664 1205 658
f 1205 863 529
f 863 1205 664
f 1205 981 658
f 663 1206 661
f 860 1206 663
f 982 1206 560
f 1206 982 661
f 1207 861 660
f 1207 983 1009
f 1208 279 43
f 437 279 1208
f 1209 43 44
f 44 436 1209
f 436 974 1209
f 1208 43 1209
f 41 1210 42
f 41 439 1210
f 439 973 1210
f 1211 276 42
f 438 276 1211
f 42 1210 1211
f 27 28 1212
f 1212 841 27
f 433 841 1212
f 1070 433 1212
f 1213 840 1071
f 1213 1071 1070
f 28 1213 1212
f 1212 1213 1070
f 1214 839 1072
f 1072 1073 1214
f 1215 26 25
f 1215 838 26
f 434 838 1215
f 1073 434 1215
f 1214 1215 25
f 1073 1215 1214
f 52 1216 549
f 1216 589 549
f 589 1216 976
f 588 1217 54
f 54 1217 613
f 564 565 1218
f 562 607 1218
f 1219 563 562
f 565 608 1219
f 1218 1219 562
f 565 1219 1218
f 7 1220 92
f 7 222 1220
f 92 1220 1113
f 222 1116 1220
f 1221 906 8
f 147 906 1221
f 1221 8 928
f 91 1221 928
f 1222 5 931
f 94 1222 931
f 1222 1118 5
f 972 1118 1222
f 6 1223 93
f 93 1223 1114
f 6 1195 1223
f 1195 907 1223
f 842 1224 843
f 975 437 1224
f 842 975 1224
f 1224 437 1208
f 1225 1116 843
f 974 1116 1225
f 1209 974 1225
f 1225 1208 1209
f 843 1224 1225
f 1224 1208 1225
f 1226 1119 844
f 973 1119 1226
f 1210 973 1226
f 1210 1226 1211
f 1227 844 845
f 972 438 1227
f 845 972 1227
f 1227 438 1211
f 1226 844 1227
f 1211 1226 1227
f 1228 277 41
f 1159 277 1228
f 1229 41 42
f 42 1158 1229
f 1158 970 1229
f 1228 41 1229
f 43 1230 44
f 43 1157 1230
f 1157 969 1230
f 1231 278 44
f 1156 278 1231
f 44 1230 1231
f 30 1232 225
f 1232 448 225
f 534 1232 30
f 448 1232 732
f 1232 534 964
f 732 1232 964
f 250 1233 224
f 449 1233 250
f 1233 449 497
f 1233 535 224
f 961 1233 497
f 535 1233 961
f 249 1234 227
f 450 1234 249
f 1234 450 346
f 1234 532 227
f 734 1234 346
f 532 1234 734
f 31 1235 226
f 1235 451 226
f 533 1235 31
f 451 1235 963
f 257 685 1236
f 1236 685 364
f 365 256 1237
f 1237 364 365
f 256 440 1237
f 1236 364 1237
f 362 259 1238
f 362 1238 363
f 259 443 1238
f 258 686 1239
f 1239 686 363
f 363 1238 1239
f 16 1240 167
f 1240 481 167
f 761 1240 16
f 481 1240 770
f 1240 761 990
f 770 1240 990
f 480 1241 14
f 14 1241 759
f 760 1241 1
f 1241 760 759
f 1 1241 992
f 1241 480 992
f 1242 588 547
f 1242 772 444
f 955 1242 547
f 772 1242 955
f 978 1242 444
f 588 1242 978
f 188 1243 446
f 1243 589 446
f 773 1243 188
f 589 1243 953
f 862 1244 665
f 958 1244 606
f 863 1245 113
f 959 1245 1038
f 860 1246 608
f 958 1246 1039
f 115 1247 531
f 1247 861 531
f 861 1247 662
f 959 1247 115
f 196 1248 267
f 196 834 1248
f 267 1248 1183
f 1248 1178 1183
f 1249 741 197
f 1016 741 1249
f 1249 197 1140
f 266 1249 1140
f 1179 1249 266
f 1179 1016 1249
f 1250 194 1143
f 265 1250 1143
f 1180 1250 265
f 1180 584 1250
f 195 1251 264
f 1251 740 1181
f 264 1251 1184
f 1251 1181 1184
f 377 742 1252
f 1252 742 530
f 1008 377 1252
f 1008 1252 1009
f 1253 530 531
f 531 861 1253
f 861 1207 1253
f 1253 1207 1009
f 1252 530 1253
f 1009 1252 1253
f 528 376 1254
f 528 1254 529
f 376 571 1254
f 1254 571 1006
f 1007 981 1255
f 1255 1006 1007
f 1255 1205 529
f 981 1205 1255
f 529 1254 1255
f 1254 1006 1255
f 126 1256 127
f 1256 405 11
f 126 1065 1256
f 1065 405 1256
f 1257 11 12
f 1257 550 127
f 12 1064 1257
f 1064 550 1257
f 1256 11 1257
f 127 1256 1257
f 9 1258 10
f 1258 553 124
f 9 1063 1258
f 1063 553 1258
f 1259 124 125
f 1259 406 10
f 125 1062 1259
f 1062 406 1259
f 10 1258 1259
f 1258 124 1259
f 1260 323 130
f 837 323 1260
f 872 837 1260
f 872 1260 873
f 1261 130 131
f 131 836 1261
f 1260 130 1261
f 873 1260 1261
f 128 1262 129
f 128 835 1262
f 1263 324 129
f 834 324 1263
f 875 834 1263
f 1263 874 875
f 129 1262 1263
f 1262 874 1263
f 752 307 1264
f 752 1264 753
f 307 989 1264
f 1264 989 714
f 715 306 1265
f 1265 714 715
f 306 1202 1265
f 1265 1202 753
f 1264 714 1265
f 753 1264 1265
f 712 309 1266
f 712 1266 713
f 309 1201 1266
f 1266 1201 754
f 755 308 1267
f 1267 754 755
f 308 986 1267
f 1267 986 713
f 713 1266 1267
f 1266 754 1267
f 1268 863 664
f 1038 1268 1039
f 1245 863 1268
f 1038 1245 1268
f 1269 664 665
f 1269 958 1039
f 665 1244 1269
f 1244 958 1269
f 1268 664 1269
f 1039 1268 1269
f 662 1270 663
f 1270 959 1038
f 662 1247 1270
f 1247 959 1270
f 1271 860 663
f 1271 1038 1039
f 1246 860 1271
f 1039 1246 1271
f 663 1270 1271
f 1270 1038 1271
f 1272 103 23
f 856 1272 857
f 1273 23 24
f 24 429 1273
f 429 141 1273
f 1273 141 857
f 1272 23 1273
f 857 1272 1273
f 23 1274 24
f 1274 644 858
f 1275 143 24
f 525 143 1275
f 859 525 1275
f 1275 858 859
f 24 1274 1275
f 1274 858 1275
f 443 485 1276
f 1276 485 1126
f 1238 443 1276
f 1238 1276 1239
f 442 258 1277
f 1127 442 1277
f 1277 1126 1127
f 1277 258 1239
f 1276 1126 1277
f 1239 1276 1277
f 441 257 1278
f 1124 441 1278
f 1124 1278 1125
f 1278 257 1236
f 440 482 1279
f 1279 482 1125
f 1237 440 1279
f 1279 1236 1237
f 1125 1278 1279
f 1278 1236 1279
f 560 1280 64
f 64 1280 565
f 1280 608 565
f 1280 860 608
f 560 1206 1280
f 1206 860 1280
f 609 1281 63
f 609 86 1281
f 86 742 1281
f 1281 742 561
f 63 1281 1086
f 1281 561 1086
f 606 1282 66
f 1282 862 558
f 66 1282 1089
f 1282 558 1089
f 606 1244 1282
f 1244 862 1282
f 559 1283 65
f 559 376 1283
f 65 1283 562
f 1283 607 562
f 376 743 1283
f 1283 743 607
f 86 1284 114
f 1284 86 609
f 1285 836 194
f 1285 584 873
f 1250 1285 194
f 584 1285 1250
f 836 1285 1261
f 1261 1285 873
f 585 1286 572
f 837 1286 321
f 572 1286 872
f 1286 837 872
f 321 1286 1013
f 1286 585 1013
f 586 1287 575
f 575 1287 875
f 1287 834 875
f 1287 586 1178
f 834 1287 1248
f 1248 1287 1178
f 319 1288 393
f 587 1288 319
f 1288 835 393
f 1288 587 874
f 835 1288 1262
f 1262 1288 874
f 632 1289 633
f 632 933 1289
f 933 887 1289
f 1289 887 1074
f 1290 186 633
f 932 186 1290
f 1075 932 1290
f 1290 1074 1075
f 633 1289 1290
f 1289 1074 1290
f 1291 185 634
f 935 185 1291
f 1076 935 1291
f 1076 1291 1077
f 1292 634 635
f 635 934 1292
f 934 884 1292
f 1292 884 1077
f 1291 634 1292
f 1077 1291 1292
f 1293 165 272
f 272 273 1293
f 13 164 1294
f 273 13 1294
f 1294 164 457
f 1294 457 456
f 273 1294 1293
f 1293 1294 456
f 16 167 1295
f 274 16 1295
f 1295 167 458
f 458 459 1295
f 1296 166 275
f 1296 275 274
f 1295 1296 274
f 459 1296 1295
f 676 322 1297
f 676 1297 895
f 322 982 1297
f 1297 982 560
f 1297 560 1087
f 895 1297 1087
f 561 377 1298
f 377 570 1298
f 1298 570 677
f 1298 677 882
f 561 1298 894
f 894 1298 882
f 1299 678 881
f 558 1299 893
f 893 1299 881
f 1299 980 678
f 558 1204 1299
f 1204 980 1299
f 1300 571 559
f 679 1300 892
f 1300 559 1088
f 892 1300 1088
f 1301 645 107
f 103 1301 779
f 779 1301 107
f 645 1301 856
f 1301 103 1272
f 856 1301 1272
f 103 1302 23
f 1302 103 76
f 781 1302 76
f 644 1302 781
f 23 1302 1274
f 1302 644 1274
f 402 18 1303
f 960 402 1303
f 960 1303 961
f 595 535 1304
f 1304 535 961
f 961 1303 1304
f 403 541 1305
f 1305 541 962
f 1306 962 963
f 1235 533 1306
f 963 1235 1306
f 1305 962 1306
f 1307 629 864
f 864 865 1307
f 610 628 1308
f 865 610 1308
f 1308 628 1115
f 1308 1115 1114
f 865 1308 1307
f 1307 1308 1114
f 613 631 1309
f 866 613 1309
f 1309 631 1112
f 1112 1113 1309
f 1310 630 867
f 1310 867 866
f 1309 1310 866
f 1113 1310 1309
f 1311 606 563
f 1311 958 606
f 1219 1311 563
f 608 1311 1219
f 608 1246 1311
f 1246 958 1311
f 607 85 1312
f 1312 609 564
f 1218 1312 564
f 607 1312 1218
f 85 1284 1312
f 1312 1284 609
f 1313 588 978
f 1102 1313 1103
f 1217 588 1313
f 1102 1217 1313
f 979 969 1314
f 1314 978 979
f 969 1157 1314
f 1314 1157 1103
f 1313 978 1314
f 1103 1313 1314
f 976 1315 977
f 976 1216 1315
f 1101 277 1316
f 1316 1100 1101
f 277 1159 1316
f 1316 1159 977
f 977 1315 1316
f 1315 1100 1316
f 17 403 1317
f 688 17 1317
f 688 1317 689
f 1317 403 1305
f 533 597 1318
f 1318 597 689
f 1306 533 1318
f 1318 1305 1306
f 689 1317 1318
f 1317 1305 1318
f 18 474 1319
f 1319 474 690
f 1303 18 1319
f 1303 1319 1304
f 1320 690 691
f 885 595 1320
f 691 885 1320
f 1320 595 1304
f 1319 690 1320
f 1304 1319 1320
f 1321 105 824
f 824 825 1321
f 829 105 1321
f 298 829 1321
f 1322 104 299
f 1322 299 298
f 780 104 1322
f 825 780 1322
f 1321 1322 298
f 825 1322 1321
f 1323 107 300
f 300 301 1323
f 779 107 1323
f 822 779 1323
f 1324 106 823
f 1324 823 822
f 826 106 1324
f 301 826 1324
f 301 1324 1323
f 1323 1324 822
f 216 217 1325
f 1325 359 216
f 340 745 1325
f 745 359 1325
f 1326 341 340
f 1326 358 341
f 217 636 1326
f 636 358 1326
f 217 1326 1325
f 1325 1326 340
f 342 343 1327
f 1327 361 342
f 218 639 1327
f 639 361 1327
f 1328 219 218
f 1328 360 219
f 343 746 1328
f 746 360 1328
f 1327 1328 218
f 343 1328 1327
f 382 509 1329
f 509 423 1329
f 1329 423 1054
f 1054 1055 1329
f 1330 383 382
f 1330 422 383
f 654 422 1330
f 1055 654 1330
f 1329 1330 382
f 1055 1330 1329
f 384 385 1331
f 1331 421 384
f 653 421 1331
f 1052 653 1331
f 385 510 1332
f 510 420 1332
f 1332 420 1053
f 1332 1053 1052
f 385 1332 1331
f 1331 1332 1052
f 774 1333 28
f 1333 230 840
f 1108 230 1333
f 774 1108 1333
f 28 1333 1213
f 1333 840 1213
f 27 1334 520
f 1334 170 775
f 1334 775 520
f 799 170 1334
f 841 1334 27
f 841 799 1334
f 416 228 1335
f 26 1335 523
f 1335 228 776
f 1335 776 523
f 838 1335 26
f 838 416 1335
f 45 171 1336
f 777 1336 25
f 777 45 1336
f 1336 171 839
f 25 1336 1214
f 1336 839 1214
f 571 1337 1006
f 1006 1337 1150
f 1337 571 1300
f 679 1337 1300
f 677 1338 195
f 570 1338 677
f 390 1338 1148
f 1338 570 1148
f 197 1339 679
f 741 1339 197
f 1339 741 392
f 1150 1339 392
f 1339 1337 679
f 1337 1339 1150
f 320 1340 390
f 740 1340 320
f 195 1340 1251
f 1340 740 1251
f 1338 1340 195
f 1340 1338 390
f 613 1341 631
f 1341 626 631
f 1217 1341 613
f 1341 1217 1102
f 611 1342 52
f 627 1342 611
f 1342 627 1100
f 1342 1216 52
f 1315 1342 1100
f 1216 1342 1315
f 178 1343 179
f 1343 231 156
f 178 1109 1343
f 1109 231 1343
f 1344 156 157
f 1344 950 179
f 157 1108 1344
f 1108 950 1344
f 1343 156 1344
f 179 1343 1344
f 158 1345 159
f 1345 949 176
f 158 1111 1345
f 1111 949 1345
f 1346 176 177
f 1346 228 159
f 177 1110 1346
f 1110 228 1346
f 159 1345 1346
f 1345 176 1346
f 969 483 1347
f 1347 483 1124
f 1230 969 1347
f 1230 1347 1231
f 1125 968 1348
f 1348 1124 1125
f 968 1156 1348
f 1348 1156 1231
f 1347 1124 1348
f 1231 1347 1348
f 1126 971 1349
f 1126 1349 1127
f 971 1159 1349
f 1349 1159 1228
f 970 484 1350
f 1350 484 1127
f 1229 970 1350
f 1350 1228 1229
f 1127 1349 1350
f 1349 1228 1350
f 258 442 1351
f 539 1351 315
f 622 258 1351
f 622 1351 539
f 1351 952 315
f 1351 442 952
f 1352 773 623
f 953 1352 538
f 538 1352 1058
f 1352 623 1058
f 1243 773 1352
f 953 1243 1352
f 482 440 1353
f 1353 440 624
f 954 482 1353
f 954 1353 537
f 537 1353 1057
f 1353 624 1057
f 536 1354 316
f 625 1354 536
f 1354 955 316
f 1354 772 955
f 625 956 1354
f 956 772 1354
f 855 153 1355
f 914 855 1355
f 914 1355 915
f 1355 153 1160
f 854 790 1356
f 1356 790 915
f 1161 854 1356
f 1356 1160 1161
f 915 1355 1356
f 1355 1160 1356
f 853 793 1357
f 1357 793 916
f 1162 853 1357
f 1162 1357 1163
f 852 154 1358
f 917 852 1358
f 1358 916 917
f 1358 154 1163
f 1357 916 1358
f 1163 1357 1358
f 547 54 1359
f 174 547 1359
f 1359 54 866
f 866 867 1359
f 1360 53 175
f 1360 175 174
f 612 53 1360
f 867 612 1360
f 1359 1360 174
f 867 1360 1359
f 1361 52 172
f 172 173 1361
f 611 52 1361
f 864 611 1361
f 548 51 1362
f 173 548 1362
f 1362 51 865
f 1362 865 864
f 173 1362 1361
f 1361 1362 864
f 1363 85 112
f 114 1363 115
f 1284 85 1363
f 114 1284 1363
f 1364 112 113
f 1364 959 115
f 113 1245 1364
f 1245 959 1364
f 1363 112 1364
f 115 1363 1364
f 1365 206 203
f 233 1365 203
f 748 1365 233
f 748 306 1365
f 1365 988 206
f 306 988 1365
f 207 1366 232
f 207 370 1366
f 370 461 1366
f 1366 461 749
f 232 1366 1168
f 1366 749 1168
f 208 1367 235
f 208 800 1367
f 1367 986 750
f 800 986 1367
f 235 1367 1171
f 1367 750 1171
f 1368 209 204
f 234 1368 204
f 1368 460 209
f 751 1368 234
f 766 460 1368
f 751 766 1368
f 83 1369 67
f 509 1369 423
f 1369 913 67
f 913 1369 509
f 985 1369 83
f 1369 985 423
f 698 1370 69
f 912 1370 698
f 1370 984 69
f 984 1370 511
f 511 1370 1037
f 1370 912 1037
f 1371 974 630
f 1116 974 1371
f 1220 1371 1113
f 1220 1116 1371
f 1371 630 1310
f 1113 1371 1310
f 626 147 1372
f 631 626 1372
f 1112 1372 91
f 631 1372 1112
f 1372 1221 91
f 1372 147 1221
f 628 438 1373
f 438 972 1373
f 1115 1373 94
f 628 1373 1115
f 1373 1222 94
f 1373 972 1222
f 1374 146 629
f 907 146 1374
f 1223 907 1374
f 1223 1374 1114
f 1374 629 1307
f 1114 1374 1307
f 130 1375 131
f 130 983 1375
f 1375 1207 660
f 983 1207 1375
f 1376 322 131
f 1376 660 661
f 982 322 1376
f 661 982 1376
f 131 1375 1376
f 1375 660 1376
f 1377 325 128
f 658 1377 659
f 981 325 1377
f 658 981 1377
f 1378 128 129
f 129 980 1378
f 1378 1204 659
f 980 1204 1378
f 1377 128 1378
f 659 1377 1378
f 1040 1379 459
f 1040 936 1379
f 1379 1164 166
f 936 1164 1379
f 1379 166 1296
f 459 1379 1296
f 167 1380 458
f 167 481 1380
f 481 193 1380
f 458 1380 830
f 1380 193 1041
f 1380 1041 830
f 164 268 1381
f 164 1381 457
f 457 1381 833
f 1381 1042 833
f 268 1166 1381
f 1381 1166 1042
f 1382 192 165
f 657 192 1382
f 1043 1382 456
f 1043 657 1382
f 1382 165 1293
f 456 1382 1293
f 396 1383 397
f 396 626 1383
f 626 1341 1383
f 1383 1341 1102
f 279 437 1384
f 1384 437 397
f 1103 279 1384
f 1384 1102 1103
f 397 1383 1384
f 1383 1102 1384
f 1385 146 394
f 627 146 1385
f 1100 627 1385
f 1100 1385 1101
f 1386 394 395
f 395 973 1386
f 973 439 1386
f 1386 439 1101
f 1385 394 1386
f 1101 1385 1386